adventprofmm_reg.ufo
<glyph name="exclam" format="1">
  <advance width="109"/>
  <unicode hex="0021"/>
  <outline>
    <contour>
      <point x="21" y="671" type="curve" smooth="yes"/>
      <point x="31" y="120" type="line"/>
      <point x="78" y="120" type="line"/>
      <point x="87" y="672" type="line" smooth="yes"/>
      <point x="87" y="696"/>
      <point x="76" y="708"/>
      <point x="54" y="708" type="curve" smooth="yes"/>
      <point x="32" y="708"/>
      <point x="21" y="696"/>
    </contour>
    <contour>
      <point x="54" y="67" type="curve" smooth="yes"/>
      <point x="35" y="67"/>
      <point x="21" y="52"/>
      <point x="21" y="34" type="curve" smooth="yes"/>
      <point x="21" y="15"/>
      <point x="35" y="0"/>
      <point x="54" y="0" type="curve" smooth="yes"/>
      <point x="73" y="0"/>
      <point x="87" y="15"/>
      <point x="87" y="34" type="curve" smooth="yes"/>
      <point x="87" y="52"/>
      <point x="73" y="67"/>
    </contour>
  </outline>
</glyph>
<glyph name="quotedbl" format="1">
  <advance width="240"/>
  <unicode hex="0022"/>
  <outline>
    <contour>
      <point x="153" y="701" type="curve"/>
      <point x="167" y="586" type="line"/>
      <point x="207" y="586" type="line"/>
      <point x="221" y="701" type="line"/>
      <point x="221" y="748"/>
      <point x="153" y="748"/>
    </contour>
    <contour>
      <point x="18" y="701" type="curve"/>
      <point x="32" y="586" type="line"/>
      <point x="71" y="586" type="line"/>
      <point x="86" y="701" type="line"/>
      <point x="86" y="748"/>
      <point x="18" y="748"/>
    </contour>
  </outline>
</glyph>
<glyph name="numbersign" format="1">
  <advance width="585"/>
  <unicode hex="0023"/>
  <outline>
    <contour>
      <point x="566" y="413" type="line"/>
      <point x="566" y="469" type="line"/>
      <point x="432" y="469" type="line"/>
      <point x="486" y="698" type="line"/>
      <point x="432" y="698" type="line"/>
      <point x="378" y="469" type="line"/>
      <point x="260" y="469" type="line"/>
      <point x="313" y="698" type="line"/>
      <point x="258" y="698" type="line"/>
      <point x="205" y="469" type="line"/>
      <point x="19" y="469" type="line"/>
      <point x="19" y="413" type="line"/>
      <point x="191" y="413" type="line"/>
      <point x="152" y="243" type="line"/>
      <point x="19" y="243" type="line"/>
      <point x="19" y="189" type="line"/>
      <point x="139" y="189" type="line"/>
      <point x="95" y="0" type="line"/>
      <point x="150" y="0" type="line"/>
      <point x="194" y="189" type="line"/>
      <point x="312" y="189" type="line"/>
      <point x="268" y="0" type="line"/>
      <point x="323" y="0" type="line"/>
      <point x="367" y="189" type="line"/>
      <point x="566" y="189" type="line"/>
      <point x="566" y="243" type="line"/>
      <point x="380" y="243" type="line"/>
      <point x="420" y="413" type="line"/>
    </contour>
    <contour>
      <point x="246" y="413" type="line"/>
      <point x="365" y="413" type="line"/>
      <point x="326" y="243" type="line"/>
      <point x="207" y="243" type="line"/>
    </contour>
  </outline>
</glyph>
<glyph name="dollar" format="1">
  <advance width="509"/>
  <unicode hex="0024"/>
  <outline>
    <contour>
      <point x="409" y="617" type="curve"/>
      <point x="427" y="669" type="line"/>
      <point x="381" y="694"/>
      <point x="321" y="707"/>
      <point x="264" y="707" type="curve" smooth="yes"/>
      <point x="209" y="706"/>
      <point x="155" y="693"/>
      <point x="116" y="664" type="curve" smooth="yes"/>
      <point x="78" y="638"/>
      <point x="54" y="599"/>
      <point x="52" y="547" type="curve" smooth="yes"/>
      <point x="46" y="447"/>
      <point x="120" y="402"/>
      <point x="204" y="365" type="curve" smooth="yes"/>
      <point x="237" y="351"/>
      <point x="271" y="338"/>
      <point x="302" y="323" type="curve" smooth="yes"/>
      <point x="374" y="291"/>
      <point x="432" y="253"/>
      <point x="429" y="177" type="curve" smooth="yes"/>
      <point x="427" y="140"/>
      <point x="414" y="111"/>
      <point x="394" y="90" type="curve" smooth="yes"/>
      <point x="359" y="55"/>
      <point x="304" y="41"/>
      <point x="249" y="41" type="curve" smooth="yes"/>
      <point x="193" y="41"/>
      <point x="148" y="62"/>
      <point x="121" y="82" type="curve" smooth="yes"/>
      <point x="73" y="119"/>
      <point x="62" y="159"/>
      <point x="62" y="159" type="curve"/>
      <point x="16" y="131" type="line"/>
      <point x="16" y="131"/>
      <point x="35" y="77"/>
      <point x="92" y="35" type="curve" smooth="yes"/>
      <point x="129" y="9"/>
      <point x="180" y="-13"/>
      <point x="253" y="-13" type="curve" smooth="yes"/>
      <point x="317" y="-13"/>
      <point x="382" y="3"/>
      <point x="428" y="42" type="curve" smooth="yes"/>
      <point x="463" y="73"/>
      <point x="486" y="117"/>
      <point x="488" y="178" type="curve" smooth="yes"/>
      <point x="493" y="280"/>
      <point x="416" y="333"/>
      <point x="329" y="372" type="curve" smooth="yes"/>
      <point x="294" y="388"/>
      <point x="257" y="403"/>
      <point x="224" y="417" type="curve" smooth="yes"/>
      <point x="157" y="446"/>
      <point x="106" y="479"/>
      <point x="109" y="540" type="curve" smooth="yes"/>
      <point x="111" y="579"/>
      <point x="129" y="606"/>
      <point x="155" y="625" type="curve"/>
      <point x="185" y="643"/>
      <point x="223" y="653"/>
      <point x="265" y="653" type="curve" smooth="yes"/>
      <point x="315" y="653"/>
      <point x="367" y="640"/>
    </contour>
    <contour>
      <point x="293" y="815" type="line"/>
      <point x="237" y="815" type="line"/>
      <point x="237" y="-113" type="line"/>
      <point x="293" y="-113" type="line"/>
    </contour>
  </outline>
</glyph>
<glyph name="percent" format="1">
  <advance width="684"/>
  <unicode hex="0025"/>
  <outline>
    <contour>
      <point x="635" y="698" type="line"/>
      <point x="571" y="698" type="line"/>
      <point x="34" y="0" type="line"/>
      <point x="101" y="0" type="line"/>
    </contour>
    <contour>
      <point x="161" y="712" type="curve" smooth="yes"/>
      <point x="80" y="712"/>
      <point x="15" y="647"/>
      <point x="15" y="566" type="curve" smooth="yes"/>
      <point x="15" y="486"/>
      <point x="80" y="421"/>
      <point x="161" y="421" type="curve" smooth="yes"/>
      <point x="241" y="421"/>
      <point x="306" y="486"/>
      <point x="306" y="566" type="curve" smooth="yes"/>
      <point x="306" y="647"/>
      <point x="241" y="712"/>
    </contour>
    <contour>
      <point x="161" y="661" type="curve" smooth="yes"/>
      <point x="212" y="661"/>
      <point x="255" y="618"/>
      <point x="255" y="566" type="curve" smooth="yes"/>
      <point x="255" y="515"/>
      <point x="212" y="472"/>
      <point x="161" y="472" type="curve" smooth="yes"/>
      <point x="109" y="472"/>
      <point x="66" y="515"/>
      <point x="66" y="566" type="curve" smooth="yes"/>
      <point x="66" y="618"/>
      <point x="109" y="661"/>
    </contour>
    <contour>
      <point x="520" y="276" type="curve" smooth="yes"/>
      <point x="441" y="276"/>
      <point x="376" y="211"/>
      <point x="376" y="131" type="curve" smooth="yes"/>
      <point x="376" y="51"/>
      <point x="441" y="-14"/>
      <point x="520" y="-14" type="curve" smooth="yes"/>
      <point x="601" y="-14"/>
      <point x="665" y="51"/>
      <point x="665" y="131" type="curve" smooth="yes"/>
      <point x="665" y="211"/>
      <point x="601" y="276"/>
    </contour>
    <contour>
      <point x="520" y="226" type="curve" smooth="yes"/>
      <point x="573" y="226"/>
      <point x="615" y="184"/>
      <point x="615" y="131" type="curve" smooth="yes"/>
      <point x="615" y="79"/>
      <point x="573" y="37"/>
      <point x="520" y="37" type="curve" smooth="yes"/>
      <point x="469" y="37"/>
      <point x="427" y="79"/>
      <point x="427" y="131" type="curve" smooth="yes"/>
      <point x="427" y="184"/>
      <point x="469" y="226"/>
    </contour>
  </outline>
</glyph>
<glyph name="ampersand" format="1">
  <advance width="503"/>
  <unicode hex="0026"/>
  <outline>
    <contour>
      <point x="366" y="651" type="curve"/>
      <point x="391" y="702" type="line"/>
      <point x="391" y="702"/>
      <point x="283" y="702"/>
      <point x="226" y="702" type="curve" smooth="yes"/>
      <point x="133" y="702"/>
      <point x="79" y="636"/>
      <point x="84" y="546" type="curve" smooth="yes"/>
      <point x="85" y="505"/>
      <point x="94" y="451"/>
      <point x="151" y="402" type="curve"/>
      <point x="148" y="402"/>
      <point x="144" y="403"/>
      <point x="142" y="402" type="curve"/>
      <point x="70" y="396"/>
      <point x="18" y="358"/>
      <point x="18" y="254" type="curve" smooth="yes"/>
      <point x="18" y="222"/>
      <point x="18" y="191"/>
      <point x="18" y="159" type="curve" smooth="yes"/>
      <point x="21" y="46"/>
      <point x="85" y="-6"/>
      <point x="195" y="-6" type="curve" smooth="yes"/>
      <point x="240" y="-6"/>
      <point x="309" y="14"/>
      <point x="350" y="62" type="curve"/>
      <point x="365" y="26"/>
      <point x="395" y="4"/>
      <point x="441" y="-9" type="curve"/>
      <point x="454" y="34" type="line"/>
      <point x="410" y="50"/>
      <point x="386" y="84"/>
      <point x="386" y="136" type="curve" smooth="yes"/>
      <point x="386" y="349" type="line"/>
      <point x="462" y="349" type="line"/>
      <point x="485" y="403" type="line"/>
      <point x="386" y="403" type="line"/>
      <point x="386" y="505" type="line"/>
      <point x="333" y="505" type="line"/>
      <point x="333" y="402" type="line"/>
      <point x="310" y="402"/>
      <point x="287" y="402"/>
      <point x="283" y="402" type="curve" smooth="yes"/>
      <point x="202" y="402"/>
      <point x="140" y="464"/>
      <point x="140" y="543" type="curve" smooth="yes"/>
      <point x="137" y="607"/>
      <point x="173" y="651"/>
      <point x="229" y="651" type="curve" smooth="yes"/>
      <point x="265" y="651"/>
      <point x="366" y="651"/>
    </contour>
    <contour>
      <point x="333" y="349" type="curve"/>
      <point x="333" y="176" type="line" smooth="yes"/>
      <point x="333" y="106"/>
      <point x="287" y="57"/>
      <point x="206" y="50" type="curve" smooth="yes"/>
      <point x="120" y="42"/>
      <point x="74" y="87"/>
      <point x="74" y="164" type="curve" smooth="yes"/>
      <point x="74" y="169"/>
      <point x="74" y="248"/>
      <point x="74" y="251" type="curve" smooth="yes"/>
      <point x="74" y="342"/>
      <point x="135" y="349"/>
      <point x="172" y="349" type="curve" smooth="yes"/>
      <point x="201" y="349"/>
      <point x="279" y="349"/>
    </contour>
  </outline>
</glyph>
<glyph name="quotesingle" format="1">
  <advance width="103"/>
  <unicode hex="0027"/>
  <outline>
    <contour>
      <point x="18" y="702" type="curve"/>
      <point x="31" y="587" type="line"/>
      <point x="71" y="587" type="line"/>
      <point x="85" y="702" type="line"/>
      <point x="85" y="748"/>
      <point x="18" y="748"/>
    </contour>
  </outline>
</glyph>
<glyph name="parenright" format="1">
  <advance width="161"/>
  <unicode hex="0029"/>
  <outline>
    <contour>
      <point x="14" y="778" type="curve"/>
      <point x="33" y="815" type="line"/>
      <point x="102" y="777"/>
      <point x="137" y="725"/>
      <point x="137" y="625" type="curve" smooth="yes"/>
      <point x="137" y="70" type="line" smooth="yes"/>
      <point x="137" y="-58"/>
      <point x="84" y="-81"/>
      <point x="33" y="-119" type="curve"/>
      <point x="14" y="-81" type="line"/>
      <point x="59" y="-48"/>
      <point x="81" y="-1"/>
      <point x="81" y="62" type="curve" smooth="yes"/>
      <point x="81" y="253"/>
      <point x="81" y="443"/>
      <point x="81" y="635" type="curve" smooth="yes"/>
      <point x="81" y="697"/>
      <point x="59" y="745"/>
    </contour>
  </outline>
</glyph>
<glyph name="asterisk" format="1">
  <advance width="335"/>
  <unicode hex="002A"/>
  <outline>
    <contour>
      <point x="121" y="539" type="line"/>
      <point x="56" y="449" type="line"/>
      <point x="101" y="418" type="line"/>
      <point x="166" y="514" type="line"/>
      <point x="235" y="418" type="line"/>
      <point x="276" y="449" type="line"/>
      <point x="210" y="539" type="line"/>
      <point x="319" y="577" type="line"/>
      <point x="298" y="625" type="line"/>
      <point x="191" y="585" type="line"/>
      <point x="191" y="698" type="line"/>
      <point x="137" y="698" type="line"/>
      <point x="137" y="585" type="line"/>
      <point x="33" y="625" type="line"/>
      <point x="15" y="577" type="line"/>
    </contour>
  </outline>
</glyph>
<glyph name="plus" format="1">
  <advance width="355"/>
  <unicode hex="002B"/>
  <outline>
    <contour>
      <point x="151" y="397" type="line"/>
      <point x="18" y="397" type="line"/>
      <point x="18" y="342" type="line"/>
      <point x="151" y="342" type="line"/>
      <point x="151" y="209" type="line"/>
      <point x="206" y="209" type="line"/>
      <point x="206" y="342" type="line"/>
      <point x="337" y="342" type="line"/>
      <point x="337" y="397" type="line"/>
      <point x="206" y="397" type="line"/>
      <point x="206" y="528" type="line"/>
      <point x="151" y="528" type="line"/>
    </contour>
  </outline>
</glyph>
<glyph name="comma" format="1">
  <advance width="108"/>
  <unicode hex="002C"/>
  <outline>
    <contour>
      <point x="19" y="-85" type="curve"/>
      <point x="36" y="-97" type="line"/>
      <point x="56" y="-79"/>
      <point x="88" y="-40"/>
      <point x="89" y="23" type="curve"/>
      <point x="88" y="43"/>
      <point x="74" y="56"/>
      <point x="55" y="56" type="curve" smooth="yes"/>
      <point x="36" y="56"/>
      <point x="22" y="42"/>
      <point x="22" y="23" type="curve" smooth="yes"/>
      <point x="22" y="7"/>
      <point x="34" y="-7"/>
      <point x="50" y="-10" type="curve"/>
      <point x="47" y="-31"/>
      <point x="40" y="-58"/>
    </contour>
  </outline>
</glyph>
<glyph name="period" format="1">
  <advance width="105"/>
  <unicode hex="002E"/>
  <outline>
    <contour>
      <point x="52" y="57" type="curve" smooth="yes"/>
      <point x="34" y="57"/>
      <point x="19" y="43"/>
      <point x="19" y="24" type="curve" smooth="yes"/>
      <point x="19" y="5"/>
      <point x="34" y="-9"/>
      <point x="52" y="-9" type="curve" smooth="yes"/>
      <point x="70" y="-9"/>
      <point x="86" y="5"/>
      <point x="86" y="24" type="curve" smooth="yes"/>
      <point x="86" y="43"/>
      <point x="70" y="57"/>
    </contour>
  </outline>
</glyph>
<glyph name="one" format="1">
  <advance width="195"/>
  <unicode hex="0031"/>
  <outline>
    <contour>
      <point x="-7" y="620" type="curve"/>
      <point x="7" y="581" type="line"/>
      <point x="40" y="585"/>
      <point x="95" y="613"/>
      <point x="119" y="632" type="curve"/>
      <point x="119" y="0" type="line"/>
      <point x="172" y="0" type="line"/>
      <point x="172" y="698" type="line"/>
      <point x="118" y="698" type="line"/>
      <point x="71" y="641"/>
      <point x="-7" y="620"/>
    </contour>
  </outline>
</glyph>
<glyph name="two" format="1">
  <advance width="377"/>
  <unicode hex="0032"/>
  <outline>
    <contour>
      <point x="25" y="588" type="curve"/>
      <point x="77" y="569" type="line"/>
      <point x="99" y="628"/>
      <point x="144" y="654"/>
      <point x="189" y="654" type="curve" smooth="yes"/>
      <point x="246" y="656"/>
      <point x="301" y="612"/>
      <point x="301" y="539" type="curve" smooth="yes"/>
      <point x="301" y="508"/>
      <point x="295" y="486"/>
      <point x="257" y="425" type="curve" smooth="yes"/>
      <point x="179" y="295"/>
      <point x="92" y="176"/>
      <point x="12" y="53" type="curve"/>
      <point x="12" y="0" type="line"/>
      <point x="361" y="0" type="line"/>
      <point x="361" y="53" type="line"/>
      <point x="77" y="53" type="line"/>
      <point x="153" y="166"/>
      <point x="229" y="280"/>
      <point x="305" y="394" type="curve"/>
      <point x="346" y="464"/>
      <point x="360" y="509"/>
      <point x="360" y="549" type="curve" smooth="yes"/>
      <point x="361" y="650"/>
      <point x="276" y="710"/>
      <point x="190" y="708" type="curve" smooth="yes"/>
      <point x="123" y="707"/>
      <point x="56" y="670"/>
    </contour>
  </outline>
</glyph>
<glyph name="three" format="1">
  <advance width="411"/>
  <unicode hex="0033"/>
  <outline>
    <contour>
      <point x="186" y="413" type="curve" smooth="yes"/>
      <point x="184" y="413" type="line"/>
      <point x="343" y="649" type="line"/>
      <point x="343" y="698" type="line"/>
      <point x="54" y="698" type="line"/>
      <point x="54" y="641" type="line"/>
      <point x="275" y="641" type="line"/>
      <point x="82" y="355" type="line"/>
      <point x="193" y="355" type="line" smooth="yes"/>
      <point x="234" y="355"/>
      <point x="269" y="339"/>
      <point x="299" y="307" type="curve" smooth="yes"/>
      <point x="328" y="277"/>
      <point x="342" y="242"/>
      <point x="342" y="199" type="curve" smooth="yes"/>
      <point x="342" y="156"/>
      <point x="328" y="121"/>
      <point x="297" y="90" type="curve" smooth="yes"/>
      <point x="266" y="58"/>
      <point x="229" y="44"/>
      <point x="186" y="44" type="curve" smooth="yes"/>
      <point x="130" y="44"/>
      <point x="87" y="67"/>
      <point x="56" y="112" type="curve"/>
      <point x="10" y="82" type="line"/>
      <point x="48" y="24"/>
      <point x="114" y="-12"/>
      <point x="186" y="-12" type="curve" smooth="yes"/>
      <point x="245" y="-12"/>
      <point x="296" y="9"/>
      <point x="337" y="50" type="curve" smooth="yes"/>
      <point x="377" y="90"/>
      <point x="398" y="141"/>
      <point x="398" y="199" type="curve" smooth="yes"/>
      <point x="398" y="258"/>
      <point x="377" y="309"/>
      <point x="337" y="350" type="curve" smooth="yes"/>
      <point x="296" y="391"/>
      <point x="245" y="413"/>
    </contour>
  </outline>
</glyph>
<glyph name="four" format="1">
  <advance width="453"/>
  <unicode hex="0034"/>
  <outline>
    <contour>
      <point x="370" y="355" type="line"/>
      <point x="422" y="355" type="line"/>
      <point x="442" y="413" type="line"/>
      <point x="370" y="413" type="line"/>
      <point x="370" y="698" type="line"/>
      <point x="313" y="698" type="line"/>
      <point x="313" y="413" type="line"/>
      <point x="94" y="413" type="line"/>
      <point x="250" y="698" type="line"/>
      <point x="191" y="698" type="line"/>
      <point x="-2" y="355" type="line"/>
      <point x="313" y="355" type="line"/>
      <point x="313" y="0" type="line"/>
      <point x="370" y="0" type="line"/>
    </contour>
  </outline>
</glyph>
<glyph name="five" format="1">
  <advance width="408"/>
  <unicode hex="0035"/>
  <outline>
    <contour>
      <point x="100" y="411" type="curve"/>
      <point x="124" y="641" type="line"/>
      <point x="340" y="641" type="line"/>
      <point x="340" y="698" type="line"/>
      <point x="75" y="698" type="line"/>
      <point x="38" y="355" type="line"/>
      <point x="153" y="355" type="line" smooth="yes"/>
      <point x="274" y="355"/>
      <point x="339" y="287"/>
      <point x="339" y="200" type="curve" smooth="yes"/>
      <point x="339" y="105"/>
      <point x="262" y="44"/>
      <point x="182" y="44" type="curve" smooth="yes"/>
      <point x="94" y="44"/>
      <point x="33" y="89"/>
      <point x="33" y="89" type="curve"/>
      <point x="12" y="42" type="line"/>
      <point x="12" y="42"/>
      <point x="96" y="-12"/>
      <point x="185" y="-12" type="curve" smooth="yes"/>
      <point x="318" y="-12"/>
      <point x="395" y="96"/>
      <point x="395" y="198" type="curve" smooth="yes"/>
      <point x="395" y="343"/>
      <point x="284" y="411"/>
      <point x="153" y="411" type="curve" smooth="yes"/>
      <point x="142" y="411"/>
      <point x="111" y="411"/>
    </contour>
  </outline>
</glyph>
<glyph name="six" format="1">
  <advance width="450"/>
  <unicode hex="0036"/>
  <outline>
    <contour>
      <point x="254" y="646" type="curve" smooth="yes"/>
      <point x="293" y="646" type="line"/>
      <point x="293" y="698" type="line"/>
      <point x="258" y="698" type="line" smooth="yes"/>
      <point x="169" y="698"/>
      <point x="103" y="661"/>
      <point x="66" y="614" type="curve" smooth="yes"/>
      <point x="30" y="568"/>
      <point x="14" y="515"/>
      <point x="14" y="460" type="curve" smooth="yes"/>
      <point x="14" y="202" type="line" smooth="yes"/>
      <point x="14" y="143"/>
      <point x="35" y="92"/>
      <point x="77" y="52" type="curve" smooth="yes"/>
      <point x="118" y="11"/>
      <point x="168" y="-10"/>
      <point x="227" y="-10" type="curve" smooth="yes"/>
      <point x="286" y="-10"/>
      <point x="335" y="11"/>
      <point x="376" y="52" type="curve" smooth="yes"/>
      <point x="418" y="92"/>
      <point x="439" y="143"/>
      <point x="439" y="202" type="curve" smooth="yes"/>
      <point x="439" y="261"/>
      <point x="418" y="311"/>
      <point x="376" y="352" type="curve" smooth="yes"/>
      <point x="335" y="393"/>
      <point x="285" y="414"/>
      <point x="224" y="414" type="curve" smooth="yes"/>
      <point x="163" y="414"/>
      <point x="111" y="391"/>
      <point x="69" y="346" type="curve"/>
      <point x="69" y="453" type="line" smooth="yes"/>
      <point x="69" y="516"/>
      <point x="86" y="559"/>
      <point x="122" y="596" type="curve" smooth="yes"/>
      <point x="156" y="631"/>
      <point x="205" y="646"/>
    </contour>
    <contour>
      <point x="227" y="359" type="curve" smooth="yes"/>
      <point x="313" y="359"/>
      <point x="384" y="288"/>
      <point x="384" y="202" type="curve" smooth="yes"/>
      <point x="384" y="116"/>
      <point x="313" y="45"/>
      <point x="227" y="45" type="curve" smooth="yes"/>
      <point x="140" y="45"/>
      <point x="69" y="116"/>
      <point x="69" y="202" type="curve" smooth="yes"/>
      <point x="69" y="288"/>
      <point x="140" y="359"/>
    </contour>
  </outline>
</glyph>
<glyph name="seven" format="1">
  <advance width="399"/>
  <unicode hex="0037"/>
  <outline>
    <contour>
      <point x="400" y="698" type="line"/>
      <point x="9" y="698" type="line"/>
      <point x="9" y="641" type="line"/>
      <point x="337" y="641" type="line"/>
      <point x="20" y="0" type="line"/>
      <point x="82" y="0" type="line"/>
      <point x="400" y="643" type="line"/>
    </contour>
  </outline>
</glyph>
<glyph name="eight" format="1">
  <advance width="449"/>
  <unicode hex="0038"/>
  <outline>
    <contour>
      <point x="224" y="707" type="curve" smooth="yes"/>
      <point x="175" y="707"/>
      <point x="134" y="690"/>
      <point x="100" y="656" type="curve" smooth="yes"/>
      <point x="67" y="621"/>
      <point x="50" y="581"/>
      <point x="50" y="531" type="curve" smooth="yes"/>
      <point x="50" y="490"/>
      <point x="62" y="453"/>
      <point x="85" y="425" type="curve" smooth="yes"/>
      <point x="96" y="410"/>
      <point x="109" y="398"/>
      <point x="124" y="388" type="curve"/>
      <point x="99" y="374"/>
      <point x="76" y="355"/>
      <point x="58" y="333" type="curve" smooth="yes"/>
      <point x="29" y="297"/>
      <point x="11" y="251"/>
      <point x="11" y="200" type="curve" smooth="yes"/>
      <point x="11" y="142"/>
      <point x="32" y="90"/>
      <point x="73" y="50" type="curve" smooth="yes"/>
      <point x="113" y="9"/>
      <point x="164" y="-12"/>
      <point x="223" y="-12" type="curve" smooth="yes"/>
      <point x="282" y="-12"/>
      <point x="333" y="9"/>
      <point x="374" y="50" type="curve" smooth="yes"/>
      <point x="415" y="90"/>
      <point x="436" y="142"/>
      <point x="436" y="200" type="curve" smooth="yes"/>
      <point x="436" y="248"/>
      <point x="420" y="290"/>
      <point x="394" y="326" type="curve" smooth="yes"/>
      <point x="373" y="353"/>
      <point x="346" y="374"/>
      <point x="323" y="387" type="curve"/>
      <point x="339" y="397"/>
      <point x="353" y="410"/>
      <point x="364" y="424" type="curve" smooth="yes"/>
      <point x="387" y="452"/>
      <point x="399" y="488"/>
      <point x="399" y="531" type="curve" smooth="yes"/>
      <point x="399" y="581"/>
      <point x="383" y="621"/>
      <point x="349" y="656" type="curve" smooth="yes"/>
      <point x="315" y="690"/>
      <point x="273" y="707"/>
    </contour>
    <contour>
      <point x="223" y="411" type="curve" smooth="yes"/>
      <point x="187" y="411"/>
      <point x="154" y="428"/>
      <point x="132" y="453" type="curve" smooth="yes"/>
      <point x="113" y="474"/>
      <point x="102" y="503"/>
      <point x="102" y="532" type="curve" smooth="yes"/>
      <point x="102" y="599"/>
      <point x="156" y="654"/>
      <point x="223" y="654" type="curve" smooth="yes"/>
      <point x="290" y="654"/>
      <point x="344" y="599"/>
      <point x="344" y="532" type="curve" smooth="yes"/>
      <point x="344" y="503"/>
      <point x="333" y="474"/>
      <point x="315" y="453" type="curve" smooth="yes"/>
      <point x="293" y="428"/>
      <point x="260" y="411"/>
    </contour>
    <contour>
      <point x="223" y="44" type="curve" smooth="yes"/>
      <point x="136" y="44"/>
      <point x="67" y="114"/>
      <point x="67" y="200" type="curve" smooth="yes"/>
      <point x="67" y="238"/>
      <point x="80" y="273"/>
      <point x="102" y="299" type="curve" smooth="yes"/>
      <point x="131" y="334"/>
      <point x="175" y="356"/>
      <point x="223" y="356" type="curve" smooth="yes"/>
      <point x="275" y="356"/>
      <point x="321" y="332"/>
      <point x="350" y="294" type="curve" smooth="yes"/>
      <point x="369" y="267"/>
      <point x="380" y="235"/>
      <point x="380" y="200" type="curve" smooth="yes"/>
      <point x="380" y="114"/>
      <point x="310" y="44"/>
    </contour>
  </outline>
</glyph>
<glyph name="nine" format="1">
  <advance width="444"/>
  <unicode hex="0039"/>
  <outline>
    <contour>
      <point x="217" y="707" type="curve" smooth="yes"/>
      <point x="157" y="707"/>
      <point x="108" y="686"/>
      <point x="67" y="646" type="curve" smooth="yes"/>
      <point x="26" y="605"/>
      <point x="5" y="554"/>
      <point x="5" y="495" type="curve" smooth="yes"/>
      <point x="5" y="437"/>
      <point x="26" y="386"/>
      <point x="67" y="345" type="curve" smooth="yes"/>
      <point x="108" y="305"/>
      <point x="158" y="284"/>
      <point x="220" y="284" type="curve" smooth="yes"/>
      <point x="280" y="284"/>
      <point x="332" y="307"/>
      <point x="374" y="352" type="curve"/>
      <point x="374" y="245" type="line" smooth="yes"/>
      <point x="374" y="182"/>
      <point x="356" y="135"/>
      <point x="319" y="102" type="curve" smooth="yes"/>
      <point x="283" y="70"/>
      <point x="240" y="54"/>
      <point x="189" y="54" type="curve" smooth="yes"/>
      <point x="151" y="54" type="line"/>
      <point x="151" y="-1" type="line"/>
      <point x="186" y="-1" type="line" smooth="yes"/>
      <point x="274" y="-1"/>
      <point x="343" y="34"/>
      <point x="378" y="84" type="curve" smooth="yes"/>
      <point x="413" y="131"/>
      <point x="429" y="183"/>
      <point x="429" y="238" type="curve" smooth="yes"/>
      <point x="429" y="495" type="line" smooth="yes"/>
      <point x="429" y="554"/>
      <point x="408" y="605"/>
      <point x="367" y="646" type="curve" smooth="yes"/>
      <point x="327" y="686"/>
      <point x="275" y="707"/>
    </contour>
    <contour>
      <point x="217" y="652" type="curve" smooth="yes"/>
      <point x="304" y="652"/>
      <point x="374" y="582"/>
      <point x="374" y="495" type="curve" smooth="yes"/>
      <point x="374" y="409"/>
      <point x="304" y="339"/>
      <point x="217" y="339" type="curve" smooth="yes"/>
      <point x="130" y="339"/>
      <point x="61" y="409"/>
      <point x="61" y="495" type="curve" smooth="yes"/>
      <point x="61" y="582"/>
      <point x="130" y="652"/>
    </contour>
  </outline>
</glyph>
<glyph name="colon" format="1">
  <advance width="109"/>
  <unicode hex="003A"/>
  <outline>
    <contour>
      <point x="87" y="143" type="curve" smooth="yes"/>
      <point x="87" y="162"/>
      <point x="71" y="176"/>
      <point x="54" y="176" type="curve" smooth="yes"/>
      <point x="35" y="176"/>
      <point x="20" y="162"/>
      <point x="20" y="143" type="curve" smooth="yes"/>
      <point x="20" y="124"/>
      <point x="35" y="110"/>
      <point x="54" y="110" type="curve" smooth="yes"/>
      <point x="71" y="110"/>
      <point x="87" y="124"/>
    </contour>
    <contour>
      <point x="87" y="384" type="curve" smooth="yes"/>
      <point x="87" y="403"/>
      <point x="71" y="417"/>
      <point x="54" y="417" type="curve" smooth="yes"/>
      <point x="35" y="417"/>
      <point x="20" y="403"/>
      <point x="20" y="384" type="curve" smooth="yes"/>
      <point x="20" y="365"/>
      <point x="35" y="351"/>
      <point x="54" y="351" type="curve" smooth="yes"/>
      <point x="71" y="351"/>
      <point x="87" y="365"/>
    </contour>
  </outline>
</glyph>
<glyph name="semicolon" format="1">
  <advance width="113"/>
  <unicode hex="003B"/>
  <outline>
    <contour>
      <point x="20" y="35" type="curve"/>
      <point x="37" y="23" type="line"/>
      <point x="57" y="41"/>
      <point x="89" y="80"/>
      <point x="90" y="143" type="curve"/>
      <point x="89" y="163"/>
      <point x="75" y="176"/>
      <point x="56" y="176" type="curve" smooth="yes"/>
      <point x="37" y="176"/>
      <point x="23" y="162"/>
      <point x="23" y="143" type="curve" smooth="yes"/>
      <point x="23" y="127"/>
      <point x="35" y="112"/>
      <point x="51" y="110" type="curve"/>
      <point x="48" y="89"/>
      <point x="41" y="62"/>
    </contour>
    <contour>
      <point x="92" y="384" type="curve" smooth="yes"/>
      <point x="92" y="403"/>
      <point x="77" y="417"/>
      <point x="59" y="417" type="curve" smooth="yes"/>
      <point x="41" y="417"/>
      <point x="25" y="403"/>
      <point x="25" y="384" type="curve" smooth="yes"/>
      <point x="25" y="365"/>
      <point x="41" y="351"/>
      <point x="59" y="351" type="curve" smooth="yes"/>
      <point x="77" y="351"/>
      <point x="92" y="365"/>
    </contour>
  </outline>
</glyph>
<glyph name="less" format="1">
  <advance width="353"/>
  <unicode hex="003C"/>
  <outline>
    <contour>
      <point x="334" y="118" type="line"/>
      <point x="94" y="356" type="line"/>
      <point x="334" y="597" type="line"/>
      <point x="295" y="635" type="line"/>
      <point x="18" y="358" type="line"/>
      <point x="295" y="79" type="line"/>
    </contour>
  </outline>
</glyph>
<glyph name="equal" format="1">
  <advance width="362"/>
  <unicode hex="003D"/>
  <outline>
    <contour>
      <point x="340" y="411" type="line"/>
      <point x="21" y="411" type="line"/>
      <point x="21" y="356" type="line"/>
      <point x="340" y="356" type="line"/>
    </contour>
    <contour>
      <point x="340" y="307" type="line"/>
      <point x="21" y="307" type="line"/>
      <point x="21" y="252" type="line"/>
      <point x="340" y="252" type="line"/>
    </contour>
  </outline>
</glyph>
<glyph name="greater" format="1">
  <advance width="352"/>
  <unicode hex="003E"/>
  <outline>
    <contour>
      <point x="18" y="118" type="line"/>
      <point x="56" y="79" type="line"/>
      <point x="333" y="358" type="line"/>
      <point x="56" y="635" type="line"/>
      <point x="18" y="597" type="line"/>
      <point x="257" y="356" type="line"/>
    </contour>
  </outline>
</glyph>
<glyph name="question" format="1">
  <advance width="384"/>
  <unicode hex="003F"/>
  <outline>
    <contour>
      <point x="16" y="530" type="curve"/>
      <point x="73" y="530" type="line"/>
      <point x="73" y="616"/>
      <point x="133" y="656"/>
      <point x="194" y="654" type="curve" smooth="yes"/>
      <point x="252" y="652"/>
      <point x="311" y="612"/>
      <point x="311" y="533" type="curve" smooth="yes"/>
      <point x="311" y="468"/>
      <point x="271" y="431"/>
      <point x="233" y="388" type="curve" smooth="yes"/>
      <point x="196" y="345"/>
      <point x="156" y="299"/>
      <point x="156" y="211" type="curve" smooth="yes"/>
      <point x="156" y="119" type="line"/>
      <point x="207" y="119" type="line"/>
      <point x="207" y="147"/>
      <point x="207" y="177"/>
      <point x="207" y="206" type="curve" smooth="yes"/>
      <point x="207" y="289"/>
      <point x="245" y="320"/>
      <point x="284" y="365" type="curve" smooth="yes"/>
      <point x="328" y="417"/>
      <point x="366" y="462"/>
      <point x="366" y="536" type="curve" smooth="yes"/>
      <point x="366" y="642"/>
      <point x="282" y="705"/>
      <point x="194" y="707" type="curve" smooth="yes"/>
      <point x="106" y="708"/>
      <point x="16" y="652"/>
    </contour>
    <contour>
      <point x="183" y="57" type="curve" smooth="yes"/>
      <point x="164" y="57"/>
      <point x="148" y="43"/>
      <point x="148" y="24" type="curve" smooth="yes"/>
      <point x="148" y="5"/>
      <point x="164" y="-9"/>
      <point x="183" y="-9" type="curve" smooth="yes"/>
      <point x="200" y="-9"/>
      <point x="216" y="5"/>
      <point x="216" y="24" type="curve" smooth="yes"/>
      <point x="216" y="43"/>
      <point x="200" y="57"/>
    </contour>
  </outline>
</glyph>
<glyph name="at" format="1">
  <advance width="693"/>
  <unicode hex="0040"/>
  <outline>
    <contour>
      <point x="675" y="450" type="curve"/>
      <point x="660" y="491" type="line"/>
      <point x="603" y="474"/>
      <point x="586" y="433"/>
      <point x="586" y="363" type="curve" smooth="yes"/>
      <point x="586" y="354"/>
      <point x="586" y="172"/>
      <point x="586" y="162" type="curve" smooth="yes"/>
      <point x="586" y="35"/>
      <point x="461" y="-11"/>
      <point x="335" y="-11" type="curve" smooth="yes"/>
      <point x="183" y="-11"/>
      <point x="78" y="44"/>
      <point x="78" y="189" type="curve" smooth="yes"/>
      <point x="78" y="240"/>
      <point x="78" y="290"/>
      <point x="78" y="341" type="curve" smooth="yes"/>
      <point x="78" y="465"/>
      <point x="162" y="529"/>
      <point x="274" y="529" type="curve" smooth="yes"/>
      <point x="367" y="529"/>
      <point x="431" y="496"/>
      <point x="449" y="442" type="curve"/>
      <point x="394" y="442"/>
      <point x="338" y="442"/>
      <point x="283" y="442" type="curve" smooth="yes"/>
      <point x="209" y="441"/>
      <point x="142" y="405"/>
      <point x="142" y="288" type="curve" smooth="yes"/>
      <point x="142" y="233" type="line" smooth="yes"/>
      <point x="142" y="84"/>
      <point x="240" y="58"/>
      <point x="335" y="61" type="curve" smooth="yes"/>
      <point x="382" y="63"/>
      <point x="501" y="69"/>
      <point x="501" y="69" type="curve"/>
      <point x="501" y="176"/>
      <point x="501" y="282"/>
      <point x="501" y="388" type="curve"/>
      <point x="551" y="388" type="line"/>
      <point x="564" y="442" type="line"/>
      <point x="497" y="442" type="line"/>
      <point x="481" y="515"/>
      <point x="414" y="577"/>
      <point x="271" y="577" type="curve" smooth="yes"/>
      <point x="109" y="577"/>
      <point x="18" y="477"/>
      <point x="18" y="338" type="curve" smooth="yes"/>
      <point x="18" y="290"/>
      <point x="19" y="239"/>
      <point x="19" y="183" type="curve" smooth="yes"/>
      <point x="19" y="11"/>
      <point x="170" y="-66"/>
      <point x="327" y="-66" type="curve" smooth="yes"/>
      <point x="490" y="-66"/>
      <point x="642" y="2"/>
      <point x="642" y="170" type="curve" smooth="yes"/>
      <point x="641" y="380" type="line" smooth="yes"/>
      <point x="641" y="417"/>
      <point x="652" y="440"/>
    </contour>
    <contour>
      <point x="280" y="388" type="curve" smooth="yes"/>
      <point x="339" y="388"/>
      <point x="396" y="388"/>
      <point x="454" y="388" type="curve"/>
      <point x="454" y="119" type="line"/>
      <point x="454" y="119"/>
      <point x="386" y="111"/>
      <point x="315" y="111" type="curve" smooth="yes"/>
      <point x="235" y="111"/>
      <point x="195" y="152"/>
      <point x="195" y="227" type="curve" smooth="yes"/>
      <point x="195" y="285" type="line" smooth="yes"/>
      <point x="195" y="383"/>
      <point x="249" y="388"/>
    </contour>
  </outline>
</glyph>
<glyph name="C" format="1">
  <advance width="386"/>
  <unicode hex="0043"/>
  <outline>
    <contour>
      <point x="334" y="637" type="curve"/>
      <point x="351" y="675" type="line"/>
      <point x="308" y="697"/>
      <point x="260" y="708"/>
      <point x="209" y="708" type="curve" smooth="yes"/>
      <point x="168" y="708"/>
      <point x="132" y="700"/>
      <point x="102" y="683" type="curve" smooth="yes"/>
      <point x="44" y="647"/>
      <point x="15" y="590"/>
      <point x="15" y="503" type="curve" smooth="yes"/>
      <point x="15" y="183" type="line" smooth="yes"/>
      <point x="15" y="99"/>
      <point x="48" y="42"/>
      <point x="97" y="15" type="curve" smooth="yes"/>
      <point x="145" y="-10"/>
      <point x="194" y="-10"/>
      <point x="215" y="-10" type="curve" smooth="yes"/>
      <point x="265" y="-10"/>
      <point x="319" y="1"/>
      <point x="376" y="23" type="curve"/>
      <point x="364" y="69" type="line"/>
      <point x="307" y="50"/>
      <point x="258" y="40"/>
      <point x="219" y="40" type="curve" smooth="yes"/>
      <point x="173" y="40"/>
      <point x="141" y="48"/>
      <point x="118" y="65" type="curve" smooth="yes"/>
      <point x="82" y="90"/>
      <point x="71" y="132"/>
      <point x="71" y="185" type="curve" smooth="yes"/>
      <point x="71" y="512" type="line" smooth="yes"/>
      <point x="71" y="568"/>
      <point x="88" y="607"/>
      <point x="122" y="631" type="curve" smooth="yes"/>
      <point x="147" y="649"/>
      <point x="183" y="658"/>
      <point x="227" y="658" type="curve" smooth="yes"/>
      <point x="261" y="658"/>
      <point x="297" y="651"/>
    </contour>
  </outline>
</glyph>
<glyph name="E" format="1">
  <advance width="369"/>
  <unicode hex="0045"/>
  <outline>
    <contour>
      <point x="353" y="50" type="line"/>
      <point x="78" y="50" type="line"/>
      <point x="78" y="356" type="line"/>
      <point x="250" y="356" type="line"/>
      <point x="268" y="411" type="line"/>
      <point x="78" y="411" type="line"/>
      <point x="78" y="646" type="line"/>
      <point x="355" y="646" type="line"/>
      <point x="355" y="698" type="line"/>
      <point x="22" y="698" type="line"/>
      <point x="22" y="0" type="line"/>
      <point x="353" y="0" type="line"/>
    </contour>
  </outline>
</glyph>
<glyph name="F" format="1">
  <advance width="353"/>
  <unicode hex="0046"/>
  <outline>
    <contour>
      <point x="22" y="0" type="line"/>
      <point x="78" y="0" type="line"/>
      <point x="78" y="356" type="line"/>
      <point x="246" y="356" type="line"/>
      <point x="269" y="411" type="line"/>
      <point x="78" y="411" type="line"/>
      <point x="78" y="645" type="line"/>
      <point x="355" y="645" type="line"/>
      <point x="355" y="698" type="line"/>
      <point x="22" y="698" type="line"/>
    </contour>
  </outline>
</glyph>
<glyph name="J" format="1">
  <advance width="170"/>
  <unicode hex="004A"/>
  <outline>
    <contour>
      <point x="148" y="118" type="curve" smooth="yes"/>
      <point x="148" y="698" type="line"/>
      <point x="25" y="698" type="line"/>
      <point x="25" y="649" type="line"/>
      <point x="91" y="647" type="line"/>
      <point x="91" y="113" type="line" smooth="yes"/>
      <point x="91" y="34"/>
      <point x="54" y="0"/>
      <point x="10" y="0" type="curve"/>
      <point x="23" y="-37" type="line"/>
      <point x="66" y="-37"/>
      <point x="99" y="-21"/>
      <point x="120" y="10" type="curve" smooth="yes"/>
      <point x="139" y="36"/>
      <point x="148" y="73"/>
    </contour>
  </outline>
</glyph>
<glyph name="L" format="1">
  <advance width="387"/>
  <unicode hex="004C"/>
  <outline>
    <contour>
      <point x="382" y="50" type="line"/>
      <point x="78" y="50" type="line"/>
      <point x="78" y="698" type="line"/>
      <point x="22" y="698" type="line"/>
      <point x="22" y="0" type="line"/>
      <point x="382" y="0" type="line"/>
    </contour>
  </outline>
</glyph>
<glyph name="P" format="1">
  <advance width="469"/>
  <unicode hex="0050"/>
  <outline>
    <contour>
      <point x="257" y="698" type="curve" smooth="yes"/>
      <point x="22" y="698" type="line"/>
      <point x="22" y="0" type="line"/>
      <point x="78" y="0" type="line"/>
      <point x="78" y="244" type="line"/>
      <point x="142" y="244"/>
      <point x="209" y="244"/>
      <point x="257" y="244" type="curve" smooth="yes"/>
      <point x="389" y="244"/>
      <point x="455" y="307"/>
      <point x="455" y="472" type="curve" smooth="yes"/>
      <point x="455" y="643"/>
      <point x="384" y="698"/>
    </contour>
    <contour>
      <point x="78" y="299" type="curve"/>
      <point x="78" y="645" type="line"/>
      <point x="262" y="645" type="line" smooth="yes"/>
      <point x="340" y="645"/>
      <point x="399" y="613"/>
      <point x="399" y="472" type="curve" smooth="yes"/>
      <point x="399" y="320"/>
      <point x="338" y="299"/>
      <point x="262" y="299" type="curve" smooth="yes"/>
      <point x="217" y="299"/>
      <point x="151" y="299"/>
    </contour>
  </outline>
</glyph>
<glyph name="Q" format="1">
  <advance width="452"/>
  <unicode hex="0051"/>
  <outline>
    <contour>
      <point x="15" y="506" type="curve" smooth="yes"/>
      <point x="15" y="185" type="line" smooth="yes"/>
      <point x="15" y="56"/>
      <point x="108" y="-11"/>
      <point x="226" y="-11" type="curve" smooth="yes"/>
      <point x="349" y="-11"/>
      <point x="435" y="64"/>
      <point x="435" y="185" type="curve" smooth="yes"/>
      <point x="435" y="505" type="line" smooth="yes"/>
      <point x="435" y="635"/>
      <point x="359" y="714"/>
      <point x="227" y="714" type="curve" smooth="yes"/>
      <point x="95" y="714"/>
      <point x="15" y="642"/>
    </contour>
    <contour>
      <point x="71" y="186" type="curve" smooth="yes"/>
      <point x="71" y="515" type="line" smooth="yes"/>
      <point x="71" y="612"/>
      <point x="132" y="661"/>
      <point x="224" y="661" type="curve" smooth="yes"/>
      <point x="318" y="661"/>
      <point x="380" y="612"/>
      <point x="380" y="515" type="curve" smooth="yes"/>
      <point x="380" y="186" type="line" smooth="yes"/>
      <point x="380" y="88"/>
      <point x="316" y="42"/>
      <point x="224" y="42" type="curve" smooth="yes"/>
      <point x="136" y="42"/>
      <point x="71" y="90"/>
    </contour>
    <contour>
      <point x="251" y="50" type="curve" smooth="yes"/>
      <point x="251" y="90"/>
      <point x="251" y="132"/>
      <point x="251" y="173" type="curve"/>
      <point x="195" y="173" type="line"/>
      <point x="195" y="132"/>
      <point x="195" y="91"/>
      <point x="195" y="51" type="curve" smooth="yes"/>
      <point x="195" y="-61"/>
      <point x="253" y="-107"/>
      <point x="370" y="-107" type="curve"/>
      <point x="376" y="-61" type="line"/>
      <point x="295" y="-62"/>
      <point x="251" y="-33"/>
    </contour>
  </outline>
</glyph>
<glyph name="S" format="1">
  <advance width="496"/>
  <unicode hex="0053"/>
  <outline>
    <contour>
      <point x="403" y="618" type="curve"/>
      <point x="420" y="670" type="line"/>
      <point x="374" y="695"/>
      <point x="315" y="708"/>
      <point x="257" y="707" type="curve" smooth="yes"/>
      <point x="202" y="707"/>
      <point x="148" y="693"/>
      <point x="109" y="664" type="curve" smooth="yes"/>
      <point x="71" y="639"/>
      <point x="47" y="599"/>
      <point x="44" y="547" type="curve" smooth="yes"/>
      <point x="40" y="448"/>
      <point x="113" y="402"/>
      <point x="197" y="365" type="curve" smooth="yes"/>
      <point x="230" y="351"/>
      <point x="264" y="339"/>
      <point x="296" y="324" type="curve" smooth="yes"/>
      <point x="367" y="293"/>
      <point x="426" y="254"/>
      <point x="422" y="177" type="curve" smooth="yes"/>
      <point x="420" y="140"/>
      <point x="407" y="112"/>
      <point x="386" y="91" type="curve" smooth="yes"/>
      <point x="352" y="56"/>
      <point x="297" y="42"/>
      <point x="242" y="42" type="curve" smooth="yes"/>
      <point x="186" y="42"/>
      <point x="142" y="62"/>
      <point x="113" y="84" type="curve" smooth="yes"/>
      <point x="66" y="120"/>
      <point x="55" y="159"/>
      <point x="55" y="159" type="curve"/>
      <point x="10" y="132" type="line"/>
      <point x="10" y="132"/>
      <point x="28" y="77"/>
      <point x="86" y="35" type="curve" smooth="yes"/>
      <point x="122" y="9"/>
      <point x="174" y="-12"/>
      <point x="246" y="-12" type="curve" smooth="yes"/>
      <point x="310" y="-12"/>
      <point x="375" y="3"/>
      <point x="420" y="43" type="curve" smooth="yes"/>
      <point x="457" y="73"/>
      <point x="480" y="118"/>
      <point x="482" y="179" type="curve" smooth="yes"/>
      <point x="486" y="282"/>
      <point x="409" y="333"/>
      <point x="322" y="373" type="curve" smooth="yes"/>
      <point x="287" y="389"/>
      <point x="251" y="403"/>
      <point x="217" y="417" type="curve" smooth="yes"/>
      <point x="151" y="447"/>
      <point x="99" y="480"/>
      <point x="102" y="541" type="curve" smooth="yes"/>
      <point x="103" y="579"/>
      <point x="122" y="606"/>
      <point x="148" y="625" type="curve" smooth="yes"/>
      <point x="177" y="645"/>
      <point x="217" y="653"/>
      <point x="258" y="653" type="curve" smooth="yes"/>
      <point x="308" y="654"/>
      <point x="361" y="641"/>
    </contour>
  </outline>
</glyph>
<glyph name="T" format="1">
  <advance width="380"/>
  <unicode hex="0054"/>
  <outline>
    <contour>
      <point x="389" y="698" type="line"/>
      <point x="-12" y="698" type="line"/>
      <point x="-12" y="648" type="line"/>
      <point x="158" y="648" type="line"/>
      <point x="158" y="0" type="line"/>
      <point x="213" y="0" type="line"/>
      <point x="213" y="648" type="line"/>
      <point x="389" y="648" type="line"/>
    </contour>
  </outline>
</glyph>
<glyph name="U" format="1">
  <advance width="457"/>
  <unicode hex="0055"/>
  <outline>
    <contour>
      <point x="437" y="185" type="curve" smooth="yes"/>
      <point x="437" y="698" type="line"/>
      <point x="382" y="698" type="line"/>
      <point x="382" y="186" type="line" smooth="yes"/>
      <point x="382" y="140"/>
      <point x="367" y="106"/>
      <point x="343" y="81" type="curve" smooth="yes"/>
      <point x="316" y="54"/>
      <point x="276" y="42"/>
      <point x="228" y="42" type="curve" smooth="yes"/>
      <point x="186" y="42"/>
      <point x="148" y="53"/>
      <point x="122" y="74" type="curve" smooth="yes"/>
      <point x="91" y="98"/>
      <point x="74" y="135"/>
      <point x="74" y="186" type="curve" smooth="yes"/>
      <point x="74" y="698" type="line"/>
      <point x="19" y="698" type="line"/>
      <point x="19" y="185" type="line" smooth="yes"/>
      <point x="19" y="118"/>
      <point x="40" y="68"/>
      <point x="80" y="36" type="curve" smooth="yes"/>
      <point x="122" y="4"/>
      <point x="172" y="-11"/>
      <point x="229" y="-11" type="curve" smooth="yes"/>
      <point x="285" y="-11"/>
      <point x="334" y="4"/>
      <point x="375" y="36" type="curve" smooth="yes"/>
      <point x="416" y="68"/>
      <point x="437" y="118"/>
    </contour>
  </outline>
</glyph>
<glyph name="V" format="1">
  <advance width="473"/>
  <unicode hex="0056"/>
  <outline>
    <contour>
      <point x="274" y="0" type="line"/>
      <point x="473" y="698" type="line"/>
      <point x="414" y="698" type="line"/>
      <point x="235" y="69" type="line"/>
      <point x="57" y="698" type="line"/>
      <point x="-3" y="698" type="line"/>
      <point x="197" y="0" type="line"/>
    </contour>
  </outline>
</glyph>
<glyph name="W" format="1">
  <advance width="696"/>
  <unicode hex="0057"/>
  <outline>
    <contour>
      <point x="202" y="69" type="line"/>
      <point x="61" y="698" type="line"/>
      <point x="0" y="698" type="line"/>
      <point x="165" y="0" type="line"/>
      <point x="250" y="0" type="line"/>
      <point x="349" y="597" type="line"/>
      <point x="447" y="0" type="line"/>
      <point x="531" y="0" type="line"/>
      <point x="694" y="698" type="line"/>
      <point x="635" y="698" type="line"/>
      <point x="494" y="69" type="line"/>
      <point x="387" y="698" type="line"/>
      <point x="309" y="698" type="line"/>
    </contour>
  </outline>
</glyph>
<glyph name="Y" format="1">
  <advance width="475"/>
  <unicode hex="0059"/>
  <outline>
    <contour>
      <point x="454" y="155" type="curve" smooth="yes"/>
      <point x="454" y="698" type="line"/>
      <point x="398" y="698" type="line"/>
      <point x="398" y="422" type="line" smooth="yes"/>
      <point x="398" y="380"/>
      <point x="373" y="339"/>
      <point x="334" y="319" type="curve" smooth="yes"/>
      <point x="307" y="306"/>
      <point x="272" y="299"/>
      <point x="231" y="299" type="curve" smooth="yes"/>
      <point x="187" y="299"/>
      <point x="147" y="310"/>
      <point x="114" y="334" type="curve" smooth="yes"/>
      <point x="82" y="360"/>
      <point x="68" y="395"/>
      <point x="68" y="451" type="curve" smooth="yes"/>
      <point x="68" y="698" type="line"/>
      <point x="12" y="698" type="line"/>
      <point x="12" y="462" type="line" smooth="yes"/>
      <point x="12" y="381"/>
      <point x="32" y="330"/>
      <point x="74" y="295" type="curve" smooth="yes"/>
      <point x="114" y="260"/>
      <point x="170" y="241"/>
      <point x="241" y="244" type="curve" smooth="yes"/>
      <point x="331" y="250"/>
      <point x="380" y="285"/>
      <point x="398" y="305" type="curve"/>
      <point x="398" y="152" type="line" smooth="yes"/>
      <point x="398" y="86"/>
      <point x="378" y="45"/>
      <point x="337" y="30" type="curve"/>
      <point x="350" y="-7" type="line"/>
      <point x="417" y="2"/>
      <point x="454" y="58"/>
    </contour>
  </outline>
</glyph>
<glyph name="Z" format="1">
  <advance width="510"/>
  <unicode hex="005A"/>
  <outline>
    <contour>
      <point x="24" y="647" type="line"/>
      <point x="420" y="647" type="line"/>
      <point x="12" y="50" type="line"/>
      <point x="12" y="0" type="line"/>
      <point x="497" y="0" type="line"/>
      <point x="497" y="51" type="line"/>
      <point x="82" y="51" type="line"/>
      <point x="492" y="648" type="line"/>
      <point x="492" y="698" type="line"/>
      <point x="24" y="698" type="line"/>
    </contour>
  </outline>
</glyph>
<glyph name="bracketleft" format="1">
  <advance width="198"/>
  <unicode hex="005B"/>
  <outline>
    <contour>
      <point x="184" y="815" type="line"/>
      <point x="23" y="815" type="line"/>
      <point x="23" y="-113" type="line"/>
      <point x="184" y="-113" type="line"/>
      <point x="184" y="-69" type="line"/>
      <point x="79" y="-59" type="line"/>
      <point x="79" y="760" type="line"/>
      <point x="184" y="770" type="line"/>
    </contour>
  </outline>
</glyph>
<glyph name="backslash" format="1">
  <advance width="408"/>
  <unicode hex="005C"/>
  <outline>
    <contour>
      <point x="70" y="815" type="line"/>
      <point x="14" y="815" type="line"/>
      <point x="333" y="-113" type="line"/>
      <point x="394" y="-113" type="line"/>
    </contour>
  </outline>
</glyph>
<glyph name="b" format="1">
  <advance width="420"/>
  <unicode hex="0062"/>
  <outline>
    <contour>
      <point x="78" y="471" type="curve"/>
      <point x="78" y="698" type="line"/>
      <point x="22" y="698" type="line"/>
      <point x="22" y="0" type="line"/>
      <point x="22" y="0"/>
      <point x="130" y="-9"/>
      <point x="179" y="-10" type="curve" smooth="yes"/>
      <point x="308" y="-14"/>
      <point x="406" y="21"/>
      <point x="406" y="168" type="curve" smooth="yes"/>
      <point x="406" y="231"/>
      <point x="406" y="295"/>
      <point x="406" y="358" type="curve" smooth="yes"/>
      <point x="406" y="470"/>
      <point x="320" y="508"/>
      <point x="240" y="508" type="curve" smooth="yes"/>
      <point x="175" y="508"/>
      <point x="123" y="491"/>
    </contour>
    <contour>
      <point x="78" y="46" type="curve"/>
      <point x="78" y="172"/>
      <point x="78" y="297"/>
      <point x="78" y="422" type="curve"/>
      <point x="132" y="444"/>
      <point x="180" y="461"/>
      <point x="244" y="461" type="curve" smooth="yes"/>
      <point x="282" y="461"/>
      <point x="351" y="446"/>
      <point x="351" y="354" type="curve" smooth="yes"/>
      <point x="351" y="332"/>
      <point x="351" y="195"/>
      <point x="351" y="175" type="curve" smooth="yes"/>
      <point x="351" y="80"/>
      <point x="317" y="33"/>
      <point x="184" y="38" type="curve" smooth="yes"/>
      <point x="119" y="42"/>
      <point x="78" y="46"/>
    </contour>
  </outline>
</glyph>
<glyph name="c" format="1">
  <advance width="344"/>
  <unicode hex="0063"/>
  <outline>
    <contour>
      <point x="315" y="430" type="curve"/>
      <point x="330" y="476" type="line"/>
      <point x="273" y="503"/>
      <point x="206" y="516"/>
      <point x="148" y="504" type="curve" smooth="yes"/>
      <point x="103" y="494"/>
      <point x="65" y="470"/>
      <point x="38" y="426" type="curve" smooth="yes"/>
      <point x="20" y="394"/>
      <point x="13" y="362"/>
      <point x="11" y="318" type="curve"/>
      <point x="11" y="173" type="line" smooth="yes"/>
      <point x="11" y="75"/>
      <point x="55" y="23"/>
      <point x="123" y="1" type="curve" smooth="yes"/>
      <point x="183" y="-18"/>
      <point x="265" y="-13"/>
      <point x="332" y="5" type="curve"/>
      <point x="321" y="55" type="line"/>
      <point x="321" y="55"/>
      <point x="199" y="26"/>
      <point x="135" y="52" type="curve" smooth="yes"/>
      <point x="82" y="71"/>
      <point x="66" y="119"/>
      <point x="66" y="185" type="curve" smooth="yes"/>
      <point x="66" y="305" type="line" smooth="yes"/>
      <point x="66" y="341"/>
      <point x="73" y="371"/>
      <point x="85" y="394" type="curve" smooth="yes"/>
      <point x="101" y="426"/>
      <point x="127" y="446"/>
      <point x="157" y="453" type="curve" smooth="yes"/>
      <point x="200" y="464"/>
      <point x="267" y="452"/>
    </contour>
  </outline>
</glyph>
<glyph name="d" format="1">
  <advance width="419"/>
  <unicode hex="0064"/>
  <outline>
    <contour>
      <point x="396" y="0" type="curve"/>
      <point x="396" y="698" type="line"/>
      <point x="341" y="698" type="line"/>
      <point x="341" y="471" type="line"/>
      <point x="295" y="491"/>
      <point x="243" y="508"/>
      <point x="178" y="508" type="curve" smooth="yes"/>
      <point x="98" y="508"/>
      <point x="12" y="470"/>
      <point x="12" y="358" type="curve" smooth="yes"/>
      <point x="12" y="295"/>
      <point x="12" y="231"/>
      <point x="12" y="168" type="curve" smooth="yes"/>
      <point x="12" y="21"/>
      <point x="111" y="-14"/>
      <point x="240" y="-10" type="curve" smooth="yes"/>
      <point x="288" y="-9"/>
      <point x="396" y="0"/>
    </contour>
    <contour>
      <point x="341" y="422" type="curve"/>
      <point x="341" y="297"/>
      <point x="341" y="172"/>
      <point x="341" y="46" type="curve"/>
      <point x="341" y="46"/>
      <point x="299" y="42"/>
      <point x="235" y="38" type="curve" smooth="yes"/>
      <point x="102" y="33"/>
      <point x="67" y="80"/>
      <point x="67" y="175" type="curve" smooth="yes"/>
      <point x="67" y="195"/>
      <point x="67" y="332"/>
      <point x="67" y="354" type="curve" smooth="yes"/>
      <point x="67" y="446"/>
      <point x="137" y="461"/>
      <point x="174" y="461" type="curve" smooth="yes"/>
      <point x="238" y="461"/>
      <point x="287" y="444"/>
    </contour>
  </outline>
</glyph>
<glyph name="f" format="1">
  <advance width="212"/>
  <unicode hex="0066"/>
  <outline>
    <contour>
      <point x="196" y="656" type="curve"/>
      <point x="205" y="705" type="line"/>
      <point x="194" y="708"/>
      <point x="182" y="708"/>
      <point x="169" y="708" type="curve" smooth="yes"/>
      <point x="103" y="710"/>
      <point x="21" y="673"/>
      <point x="21" y="548" type="curve" smooth="yes"/>
      <point x="21" y="0" type="line"/>
      <point x="77" y="0" type="line"/>
      <point x="77" y="446" type="line"/>
      <point x="168" y="446" type="line"/>
      <point x="191" y="498" type="line"/>
      <point x="77" y="498" type="line"/>
      <point x="77" y="515"/>
      <point x="77" y="531"/>
      <point x="77" y="548" type="curve" smooth="yes"/>
      <point x="77" y="621"/>
      <point x="109" y="658"/>
      <point x="170" y="658" type="curve" smooth="yes"/>
      <point x="178" y="658"/>
      <point x="187" y="657"/>
    </contour>
  </outline>
</glyph>
<glyph name="g" format="1">
  <advance width="400"/>
  <unicode hex="0067"/>
  <outline>
    <contour>
      <point x="381" y="-64" type="curve" smooth="yes"/>
      <point x="381" y="498" type="line"/>
      <point x="324" y="498" type="line"/>
      <point x="324" y="451" type="line"/>
      <point x="280" y="487"/>
      <point x="230" y="506"/>
      <point x="182" y="508" type="curve" smooth="yes"/>
      <point x="73" y="513"/>
      <point x="12" y="450"/>
      <point x="12" y="345" type="curve" smooth="yes"/>
      <point x="12" y="175" type="line" smooth="yes"/>
      <point x="12" y="53"/>
      <point x="71" y="-12"/>
      <point x="183" y="-12" type="curve" smooth="yes"/>
      <point x="243" y="-12"/>
      <point x="301" y="20"/>
      <point x="324" y="61" type="curve"/>
      <point x="324" y="-63" type="line" smooth="yes"/>
      <point x="324" y="-116"/>
      <point x="301" y="-150"/>
      <point x="257" y="-167" type="curve"/>
      <point x="273" y="-210" type="line"/>
      <point x="349" y="-186"/>
      <point x="381" y="-144"/>
    </contour>
    <contour>
      <point x="324" y="392" type="curve"/>
      <point x="324" y="173" type="line" smooth="yes"/>
      <point x="324" y="88"/>
      <point x="262" y="40"/>
      <point x="186" y="40" type="curve" smooth="yes"/>
      <point x="110" y="40"/>
      <point x="68" y="82"/>
      <point x="68" y="166" type="curve" smooth="yes"/>
      <point x="68" y="342" type="line" smooth="yes"/>
      <point x="68" y="432"/>
      <point x="131" y="463"/>
      <point x="194" y="458" type="curve" smooth="yes"/>
      <point x="238" y="454"/>
      <point x="295" y="433"/>
    </contour>
  </outline>
</glyph>
<glyph name="h" format="1">
  <advance width="407"/>
  <unicode hex="0068"/>
  <outline>
    <contour>
      <point x="78" y="465" type="curve"/>
      <point x="78" y="698" type="line"/>
      <point x="22" y="698" type="line"/>
      <point x="22" y="0" type="line"/>
      <point x="78" y="0" type="line"/>
      <point x="78" y="424" type="line"/>
      <point x="119" y="447"/>
      <point x="161" y="458"/>
      <point x="206" y="458" type="curve" smooth="yes"/>
      <point x="269" y="458"/>
      <point x="335" y="432"/>
      <point x="335" y="342" type="curve" smooth="yes"/>
      <point x="335" y="0" type="line"/>
      <point x="391" y="0" type="line"/>
      <point x="391" y="345" type="line" smooth="yes"/>
      <point x="391" y="450"/>
      <point x="327" y="508"/>
      <point x="217" y="508" type="curve" smooth="yes"/>
      <point x="167" y="508"/>
      <point x="117" y="492"/>
    </contour>
  </outline>
</glyph>
<glyph name="i" format="1">
  <advance width="108"/>
  <unicode hex="0069"/>
  <outline>
    <contour>
      <point x="81" y="499" type="line"/>
      <point x="25" y="499" type="line"/>
      <point x="25" y="0" type="line"/>
      <point x="81" y="0" type="line"/>
    </contour>
    <contour>
      <point x="54" y="708" type="curve" smooth="yes"/>
      <point x="35" y="708"/>
      <point x="20" y="693"/>
      <point x="20" y="674" type="curve" smooth="yes"/>
      <point x="20" y="656"/>
      <point x="35" y="641"/>
      <point x="54" y="641" type="curve" smooth="yes"/>
      <point x="71" y="641"/>
      <point x="87" y="656"/>
      <point x="87" y="674" type="curve" smooth="yes"/>
      <point x="87" y="693"/>
      <point x="71" y="708"/>
    </contour>
  </outline>
</glyph>
<glyph name="j" format="1">
  <advance width="158"/>
  <unicode hex="006A"/>
  <outline>
    <contour>
      <point x="131" y="-63" type="curve" smooth="yes"/>
      <point x="131" y="499" type="line"/>
      <point x="11" y="499" type="line"/>
      <point x="11" y="447" type="line"/>
      <point x="75" y="447" type="line"/>
      <point x="75" y="-62" type="line" smooth="yes"/>
      <point x="75" y="-90"/>
      <point x="69" y="-113"/>
      <point x="56" y="-131" type="curve" smooth="yes"/>
      <point x="45" y="-146"/>
      <point x="30" y="-158"/>
      <point x="9" y="-166" type="curve"/>
      <point x="25" y="-209" type="line"/>
      <point x="58" y="-198"/>
      <point x="81" y="-185"/>
      <point x="99" y="-166" type="curve" smooth="yes"/>
      <point x="122" y="-141"/>
      <point x="131" y="-108"/>
    </contour>
    <contour>
      <point x="139" y="674" type="curve" smooth="yes"/>
      <point x="139" y="693"/>
      <point x="123" y="707"/>
      <point x="105" y="707" type="curve" smooth="yes"/>
      <point x="86" y="707"/>
      <point x="71" y="693"/>
      <point x="71" y="674" type="curve" smooth="yes"/>
      <point x="71" y="656"/>
      <point x="86" y="641"/>
      <point x="105" y="641" type="curve" smooth="yes"/>
      <point x="123" y="641"/>
      <point x="139" y="656"/>
    </contour>
  </outline>
</glyph>
<glyph name="k" format="1">
  <advance width="392"/>
  <unicode hex="006B"/>
  <outline>
    <contour>
      <point x="170" y="351" type="curve"/>
      <point x="318" y="480" type="line"/>
      <point x="278" y="518" type="line"/>
      <point x="78" y="334" type="line"/>
      <point x="78" y="698" type="line"/>
      <point x="22" y="698" type="line"/>
      <point x="22" y="0" type="line"/>
      <point x="78" y="0" type="line"/>
      <point x="78" y="272" type="line"/>
      <point x="130" y="316" type="line"/>
      <point x="321" y="0" type="line"/>
      <point x="388" y="0" type="line"/>
      <point x="288" y="158"/>
      <point x="215" y="276"/>
    </contour>
  </outline>
</glyph>
<glyph name="m" format="1">
  <advance width="678"/>
  <unicode hex="006D"/>
  <outline>
    <contour>
      <point x="607" y="341" type="curve" smooth="yes"/>
      <point x="607" y="0" type="line"/>
      <point x="660" y="0" type="line"/>
      <point x="660" y="343" type="line" smooth="yes"/>
      <point x="660" y="449"/>
      <point x="607" y="507"/>
      <point x="496" y="507" type="curve" smooth="yes"/>
      <point x="453" y="507"/>
      <point x="394" y="492"/>
      <point x="339" y="451" type="curve"/>
      <point x="312" y="487"/>
      <point x="267" y="507"/>
      <point x="204" y="507" type="curve" smooth="yes"/>
      <point x="154" y="507"/>
      <point x="116" y="491"/>
      <point x="75" y="464" type="curve"/>
      <point x="75" y="498" type="line"/>
      <point x="19" y="498" type="line"/>
      <point x="19" y="0" type="line"/>
      <point x="75" y="0" type="line"/>
      <point x="75" y="422" type="line"/>
      <point x="116" y="446"/>
      <point x="148" y="457"/>
      <point x="194" y="457" type="curve" smooth="yes"/>
      <point x="257" y="457"/>
      <point x="315" y="431"/>
      <point x="315" y="341" type="curve" smooth="yes"/>
      <point x="315" y="0" type="line"/>
      <point x="367" y="0" type="line"/>
      <point x="367" y="343" type="line" smooth="yes"/>
      <point x="367" y="371"/>
      <point x="364" y="396"/>
      <point x="356" y="417" type="curve"/>
      <point x="404" y="446"/>
      <point x="447" y="457"/>
      <point x="486" y="457" type="curve" smooth="yes"/>
      <point x="550" y="457"/>
      <point x="607" y="431"/>
    </contour>
  </outline>
</glyph>
<glyph name="n" format="1">
  <advance width="405"/>
  <unicode hex="006E"/>
  <outline>
    <contour>
      <point x="332" y="341" type="curve" smooth="yes"/>
      <point x="332" y="0" type="line"/>
      <point x="387" y="0" type="line"/>
      <point x="387" y="344" type="line" smooth="yes"/>
      <point x="387" y="449"/>
      <point x="323" y="508"/>
      <point x="213" y="508" type="curve" smooth="yes"/>
      <point x="164" y="508"/>
      <point x="113" y="491"/>
      <point x="75" y="465" type="curve"/>
      <point x="75" y="499" type="line"/>
      <point x="19" y="499" type="line"/>
      <point x="19" y="0" type="line"/>
      <point x="75" y="0" type="line"/>
      <point x="75" y="424" type="line"/>
      <point x="116" y="447"/>
      <point x="157" y="458"/>
      <point x="202" y="458" type="curve" smooth="yes"/>
      <point x="266" y="458"/>
      <point x="332" y="431"/>
    </contour>
  </outline>
</glyph>
<glyph name="p" format="1">
  <advance width="404"/>
  <unicode hex="0070"/>
  <outline>
    <contour>
      <point x="389" y="175" type="curve" smooth="yes"/>
      <point x="389" y="345" type="line" smooth="yes"/>
      <point x="389" y="450"/>
      <point x="329" y="513"/>
      <point x="219" y="508" type="curve" smooth="yes"/>
      <point x="170" y="506"/>
      <point x="120" y="487"/>
      <point x="77" y="451" type="curve"/>
      <point x="77" y="498" type="line"/>
      <point x="20" y="498" type="line"/>
      <point x="20" y="-199" type="line"/>
      <point x="77" y="-212" type="line"/>
      <point x="77" y="61" type="line"/>
      <point x="100" y="20"/>
      <point x="157" y="-12"/>
      <point x="219" y="-12" type="curve" smooth="yes"/>
      <point x="330" y="-12"/>
      <point x="389" y="53"/>
    </contour>
    <contour>
      <point x="332" y="342" type="curve" smooth="yes"/>
      <point x="332" y="166" type="line" smooth="yes"/>
      <point x="332" y="82"/>
      <point x="290" y="40"/>
      <point x="216" y="40" type="curve" smooth="yes"/>
      <point x="139" y="40"/>
      <point x="77" y="88"/>
      <point x="77" y="173" type="curve" smooth="yes"/>
      <point x="77" y="392" type="line"/>
      <point x="107" y="433"/>
      <point x="163" y="454"/>
      <point x="207" y="458" type="curve" smooth="yes"/>
      <point x="271" y="463"/>
      <point x="332" y="432"/>
    </contour>
  </outline>
</glyph>
<glyph name="q" format="1">
  <advance width="400"/>
  <unicode hex="0071"/>
  <outline>
    <contour>
      <point x="324" y="62" type="curve"/>
      <point x="324" y="-198" type="line"/>
      <point x="381" y="-211" type="line"/>
      <point x="381" y="498" type="line"/>
      <point x="324" y="498" type="line"/>
      <point x="324" y="452" type="line"/>
      <point x="280" y="488"/>
      <point x="230" y="507"/>
      <point x="182" y="509" type="curve" smooth="yes"/>
      <point x="73" y="514"/>
      <point x="12" y="451"/>
      <point x="12" y="345" type="curve" smooth="yes"/>
      <point x="12" y="176" type="line" smooth="yes"/>
      <point x="12" y="54"/>
      <point x="71" y="-11"/>
      <point x="183" y="-11" type="curve" smooth="yes"/>
      <point x="243" y="-11"/>
      <point x="301" y="21"/>
    </contour>
    <contour>
      <point x="324" y="393" type="curve"/>
      <point x="324" y="173" type="line" smooth="yes"/>
      <point x="324" y="88"/>
      <point x="262" y="41"/>
      <point x="186" y="41" type="curve" smooth="yes"/>
      <point x="110" y="41"/>
      <point x="68" y="84"/>
      <point x="68" y="167" type="curve" smooth="yes"/>
      <point x="68" y="343" type="line" smooth="yes"/>
      <point x="68" y="433"/>
      <point x="131" y="463"/>
      <point x="194" y="459" type="curve" smooth="yes"/>
      <point x="238" y="455"/>
      <point x="295" y="435"/>
    </contour>
  </outline>
</glyph>
<glyph name="r" format="1">
  <advance width="294"/>
  <unicode hex="0072"/>
  <outline>
    <contour>
      <point x="286" y="459" type="curve"/>
      <point x="290" y="507" type="line"/>
      <point x="290" y="507"/>
      <point x="269" y="512"/>
      <point x="245" y="510" type="curve" smooth="yes"/>
      <point x="173" y="507"/>
      <point x="124" y="488"/>
      <point x="75" y="466" type="curve"/>
      <point x="75" y="499" type="line"/>
      <point x="19" y="499" type="line"/>
      <point x="19" y="0" type="line"/>
      <point x="75" y="0" type="line"/>
      <point x="75" y="408" type="line"/>
      <point x="112" y="433"/>
      <point x="187" y="457"/>
      <point x="244" y="460" type="curve" smooth="yes"/>
      <point x="265" y="461"/>
      <point x="286" y="459"/>
    </contour>
  </outline>
</glyph>
<glyph name="s" format="1">
  <advance width="384"/>
  <unicode hex="0073"/>
  <outline>
    <contour>
      <point x="306" y="438" type="curve"/>
      <point x="329" y="475" type="line"/>
      <point x="278" y="504"/>
      <point x="238" y="512"/>
      <point x="197" y="510" type="curve" smooth="yes"/>
      <point x="158" y="510"/>
      <point x="122" y="501"/>
      <point x="94" y="482" type="curve" smooth="yes"/>
      <point x="55" y="457"/>
      <point x="32" y="416"/>
      <point x="36" y="362" type="curve" smooth="yes"/>
      <point x="41" y="323"/>
      <point x="63" y="298"/>
      <point x="91" y="277" type="curve" smooth="yes"/>
      <point x="121" y="257"/>
      <point x="157" y="244"/>
      <point x="193" y="231" type="curve" smooth="yes"/>
      <point x="227" y="218"/>
      <point x="260" y="205"/>
      <point x="283" y="188" type="curve" smooth="yes"/>
      <point x="305" y="172"/>
      <point x="319" y="151"/>
      <point x="318" y="122" type="curve"/>
      <point x="318" y="95"/>
      <point x="302" y="73"/>
      <point x="280" y="57" type="curve" smooth="yes"/>
      <point x="258" y="42"/>
      <point x="229" y="34"/>
      <point x="197" y="34" type="curve" smooth="yes"/>
      <point x="167" y="34"/>
      <point x="141" y="40"/>
      <point x="118" y="48" type="curve" smooth="yes"/>
      <point x="86" y="61"/>
      <point x="61" y="80"/>
      <point x="41" y="100" type="curve"/>
      <point x="10" y="68" type="line"/>
      <point x="35" y="38"/>
      <point x="65" y="18"/>
      <point x="96" y="4" type="curve" smooth="yes"/>
      <point x="129" y="-11"/>
      <point x="164" y="-17"/>
      <point x="197" y="-18" type="curve" smooth="yes"/>
      <point x="237" y="-18"/>
      <point x="274" y="-9"/>
      <point x="304" y="10" type="curve" smooth="yes"/>
      <point x="345" y="36"/>
      <point x="373" y="79"/>
      <point x="370" y="133" type="curve" smooth="yes"/>
      <point x="367" y="170"/>
      <point x="351" y="197"/>
      <point x="328" y="218" type="curve" smooth="yes"/>
      <point x="298" y="244"/>
      <point x="256" y="261"/>
      <point x="217" y="276" type="curve" smooth="yes"/>
      <point x="186" y="287"/>
      <point x="156" y="298"/>
      <point x="132" y="311" type="curve" smooth="yes"/>
      <point x="109" y="324"/>
      <point x="92" y="341"/>
      <point x="88" y="364" type="curve" smooth="yes"/>
      <point x="82" y="398"/>
      <point x="97" y="424"/>
      <point x="121" y="440" type="curve" smooth="yes"/>
      <point x="142" y="454"/>
      <point x="169" y="462"/>
      <point x="199" y="463" type="curve" smooth="yes"/>
      <point x="235" y="464"/>
      <point x="275" y="455"/>
    </contour>
  </outline>
</glyph>
<glyph name="u" format="1">
  <advance width="404"/>
  <unicode hex="0075"/>
  <outline>
    <contour>
      <point x="328" y="48" type="curve"/>
      <point x="328" y="0" type="line"/>
      <point x="384" y="0" type="line"/>
      <point x="384" y="499" type="line"/>
      <point x="328" y="499" type="line"/>
      <point x="328" y="172" type="line" smooth="yes"/>
      <point x="328" y="101"/>
      <point x="272" y="44"/>
      <point x="201" y="44" type="curve" smooth="yes"/>
      <point x="137" y="44"/>
      <point x="71" y="68"/>
      <point x="71" y="159" type="curve" smooth="yes"/>
      <point x="71" y="499" type="line"/>
      <point x="15" y="499" type="line"/>
      <point x="15" y="156" type="line" smooth="yes"/>
      <point x="15" y="43"/>
      <point x="78" y="-10"/>
      <point x="189" y="-10" type="curve" smooth="yes"/>
      <point x="239" y="-10"/>
      <point x="294" y="9"/>
    </contour>
  </outline>
</glyph>
<glyph name="w" format="1">
  <advance width="671"/>
  <unicode hex="0077"/>
  <outline>
    <contour>
      <point x="193" y="57" type="line"/>
      <point x="59" y="498" type="line"/>
      <point x="1" y="498" type="line"/>
      <point x="153" y="0" type="line"/>
      <point x="230" y="0" type="line"/>
      <point x="332" y="404" type="line"/>
      <point x="432" y="0" type="line"/>
      <point x="509" y="0" type="line"/>
      <point x="664" y="498" type="line"/>
      <point x="605" y="498" type="line"/>
      <point x="472" y="57" type="line"/>
      <point x="362" y="498" type="line"/>
      <point x="305" y="498" type="line"/>
    </contour>
  </outline>
</glyph>
<glyph name="x" format="1">
  <advance width="400"/>
  <unicode hex="0078"/>
  <outline>
    <contour>
      <point x="12" y="498" type="line"/>
      <point x="168" y="248" type="line"/>
      <point x="12" y="0" type="line"/>
      <point x="78" y="0" type="line"/>
      <point x="201" y="197" type="line"/>
      <point x="323" y="0" type="line"/>
      <point x="389" y="0" type="line"/>
      <point x="233" y="248" type="line"/>
      <point x="389" y="498" type="line"/>
      <point x="327" y="498" type="line"/>
      <point x="201" y="299" type="line"/>
      <point x="76" y="498" type="line"/>
    </contour>
  </outline>
</glyph>
<glyph name="y" format="1">
  <advance width="429"/>
  <unicode hex="0079"/>
  <outline>
    <contour>
      <point x="417" y="468" type="curve"/>
      <point x="397" y="510" type="line"/>
      <point x="349" y="494"/>
      <point x="328" y="453"/>
      <point x="328" y="408" type="curve" smooth="yes"/>
      <point x="328" y="173" type="line" smooth="yes"/>
      <point x="328" y="102"/>
      <point x="272" y="44"/>
      <point x="201" y="44" type="curve" smooth="yes"/>
      <point x="139" y="44"/>
      <point x="71" y="69"/>
      <point x="71" y="161" type="curve" smooth="yes"/>
      <point x="71" y="499" type="line"/>
      <point x="15" y="499" type="line"/>
      <point x="15" y="157" type="line" smooth="yes"/>
      <point x="15" y="44"/>
      <point x="79" y="-9"/>
      <point x="189" y="-9" type="curve" smooth="yes"/>
      <point x="239" y="-9"/>
      <point x="295" y="10"/>
      <point x="328" y="50" type="curve"/>
      <point x="328" y="-61" type="line" smooth="yes"/>
      <point x="328" y="-89"/>
      <point x="322" y="-112"/>
      <point x="309" y="-130" type="curve" smooth="yes"/>
      <point x="298" y="-145"/>
      <point x="283" y="-157"/>
      <point x="263" y="-165" type="curve"/>
      <point x="279" y="-208" type="line"/>
      <point x="311" y="-197"/>
      <point x="335" y="-184"/>
      <point x="353" y="-165" type="curve" smooth="yes"/>
      <point x="375" y="-140"/>
      <point x="384" y="-107"/>
      <point x="384" y="-62" type="curve" smooth="yes"/>
      <point x="384" y="407" type="line" smooth="yes"/>
      <point x="384" y="448"/>
      <point x="398" y="460"/>
    </contour>
  </outline>
</glyph>
<glyph name="z" format="1">
  <advance width="391"/>
  <unicode hex="007A"/>
  <outline>
    <contour>
      <point x="22" y="449" type="line"/>
      <point x="287" y="449" type="line"/>
      <point x="13" y="50" type="line"/>
      <point x="13" y="0" type="line"/>
      <point x="380" y="0" type="line"/>
      <point x="380" y="51" type="line"/>
      <point x="82" y="51" type="line"/>
      <point x="359" y="450" type="line"/>
      <point x="359" y="499" type="line"/>
      <point x="22" y="499" type="line"/>
    </contour>
  </outline>
</glyph>
<glyph name="braceleft" format="1">
  <advance width="245"/>
  <unicode hex="007B"/>
  <outline>
    <contour>
      <point x="155" y="515" type="curve" smooth="yes"/>
      <point x="155" y="628" type="line" smooth="yes"/>
      <point x="155" y="717"/>
      <point x="200" y="757"/>
      <point x="230" y="772" type="curve"/>
      <point x="208" y="820" type="line"/>
      <point x="204" y="818"/>
      <point x="98" y="789"/>
      <point x="98" y="628" type="curve" smooth="yes"/>
      <point x="98" y="515" type="line" smooth="yes"/>
      <point x="98" y="459"/>
      <point x="92" y="408"/>
      <point x="29" y="360" type="curve" smooth="yes"/>
      <point x="18" y="352" type="line"/>
      <point x="29" y="344" type="line" smooth="yes"/>
      <point x="92" y="295"/>
      <point x="98" y="245"/>
      <point x="98" y="189" type="curve" smooth="yes"/>
      <point x="98" y="76" type="line" smooth="yes"/>
      <point x="98" y="-85"/>
      <point x="202" y="-114"/>
      <point x="208" y="-117" type="curve"/>
      <point x="231" y="-67" type="line"/>
      <point x="200" y="-52"/>
      <point x="155" y="-13"/>
      <point x="155" y="76" type="curve" smooth="yes"/>
      <point x="155" y="189" type="line" smooth="yes"/>
      <point x="155" y="245"/>
      <point x="150" y="300"/>
      <point x="88" y="352" type="curve"/>
      <point x="150" y="404"/>
      <point x="155" y="459"/>
    </contour>
  </outline>
</glyph>
<glyph name="braceright" format="1">
  <advance width="245"/>
  <unicode hex="007D"/>
  <outline>
    <contour>
      <point x="37" y="820" type="curve"/>
      <point x="15" y="772" type="line"/>
      <point x="44" y="757"/>
      <point x="90" y="717"/>
      <point x="90" y="628" type="curve" smooth="yes"/>
      <point x="90" y="515" type="line" smooth="yes"/>
      <point x="90" y="459"/>
      <point x="95" y="404"/>
      <point x="156" y="352" type="curve"/>
      <point x="95" y="300"/>
      <point x="90" y="245"/>
      <point x="90" y="189" type="curve" smooth="yes"/>
      <point x="90" y="76" type="line" smooth="yes"/>
      <point x="90" y="-13"/>
      <point x="44" y="-52"/>
      <point x="14" y="-67" type="curve"/>
      <point x="36" y="-117" type="line"/>
      <point x="42" y="-114"/>
      <point x="146" y="-85"/>
      <point x="146" y="76" type="curve" smooth="yes"/>
      <point x="146" y="189" type="line" smooth="yes"/>
      <point x="146" y="245"/>
      <point x="152" y="295"/>
      <point x="216" y="344" type="curve" smooth="yes"/>
      <point x="227" y="352" type="line"/>
      <point x="216" y="360" type="line" smooth="yes"/>
      <point x="152" y="408"/>
      <point x="146" y="459"/>
      <point x="146" y="515" type="curve" smooth="yes"/>
      <point x="146" y="628" type="line" smooth="yes"/>
      <point x="146" y="789"/>
      <point x="42" y="818"/>
    </contour>
  </outline>
</glyph>
<glyph name="asciitilde" format="1">
  <advance width="346"/>
  <unicode hex="007E"/>
  <outline>
    <contour>
      <point x="327" y="305" type="curve"/>
      <point x="302" y="346" type="line"/>
      <point x="286" y="329"/>
      <point x="266" y="318"/>
      <point x="241" y="317" type="curve" smooth="yes"/>
      <point x="194" y="316"/>
      <point x="150" y="353"/>
      <point x="100" y="353" type="curve" smooth="yes"/>
      <point x="74" y="353"/>
      <point x="47" y="343"/>
      <point x="18" y="312" type="curve"/>
      <point x="41" y="271" type="line"/>
      <point x="65" y="293"/>
      <point x="87" y="299"/>
      <point x="108" y="298" type="curve" smooth="yes"/>
      <point x="153" y="296"/>
      <point x="196" y="262"/>
      <point x="243" y="262" type="curve" smooth="yes"/>
      <point x="268" y="261"/>
      <point x="296" y="272"/>
    </contour>
  </outline>
</glyph>
<glyph name="exclamdown" format="1">
  <advance width="110"/>
  <unicode hex="00A1"/>
  <outline>
    <contour>
      <point x="88" y="36" type="curve" smooth="yes"/>
      <point x="79" y="588" type="line"/>
      <point x="32" y="588" type="line"/>
      <point x="22" y="37" type="line"/>
      <point x="22" y="12"/>
      <point x="33" y="0"/>
      <point x="55" y="0" type="curve" smooth="yes"/>
      <point x="77" y="0"/>
      <point x="88" y="12"/>
    </contour>
    <contour>
      <point x="88" y="674" type="curve" smooth="yes"/>
      <point x="88" y="693"/>
      <point x="74" y="707"/>
      <point x="55" y="707" type="curve" smooth="yes"/>
      <point x="36" y="707"/>
      <point x="21" y="693"/>
      <point x="21" y="674" type="curve" smooth="yes"/>
      <point x="21" y="656"/>
      <point x="36" y="641"/>
      <point x="55" y="641" type="curve" smooth="yes"/>
      <point x="74" y="641"/>
      <point x="88" y="656"/>
    </contour>
  </outline>
</glyph>
<glyph name="cent" format="1">
  <advance width="356"/>
  <unicode hex="00A2"/>
  <outline>
    <contour>
      <point x="321" y="430" type="curve"/>
      <point x="337" y="476" type="line"/>
      <point x="279" y="503"/>
      <point x="212" y="516"/>
      <point x="155" y="504" type="curve" smooth="yes"/>
      <point x="110" y="494"/>
      <point x="71" y="470"/>
      <point x="46" y="426" type="curve" smooth="yes"/>
      <point x="26" y="394"/>
      <point x="20" y="362"/>
      <point x="18" y="318" type="curve"/>
      <point x="18" y="173" type="line" smooth="yes"/>
      <point x="18" y="75"/>
      <point x="62" y="23"/>
      <point x="130" y="1" type="curve" smooth="yes"/>
      <point x="189" y="-18"/>
      <point x="272" y="-13"/>
      <point x="339" y="5" type="curve"/>
      <point x="328" y="55" type="line"/>
      <point x="328" y="55"/>
      <point x="206" y="26"/>
      <point x="142" y="52" type="curve" smooth="yes"/>
      <point x="89" y="71"/>
      <point x="73" y="119"/>
      <point x="73" y="185" type="curve" smooth="yes"/>
      <point x="73" y="305" type="line" smooth="yes"/>
      <point x="73" y="340"/>
      <point x="79" y="371"/>
      <point x="91" y="394" type="curve" smooth="yes"/>
      <point x="108" y="426"/>
      <point x="133" y="446"/>
      <point x="164" y="453" type="curve" smooth="yes"/>
      <point x="207" y="464"/>
      <point x="274" y="452"/>
    </contour>
    <contour>
      <point x="232" y="621" type="line"/>
      <point x="176" y="621" type="line"/>
      <point x="176" y="-113" type="line"/>
      <point x="232" y="-113" type="line"/>
    </contour>
  </outline>
</glyph>
<glyph name="sterling" format="1">
  <advance width="398"/>
  <unicode hex="00A3"/>
  <outline>
    <contour>
      <point x="99" y="53" type="curve" smooth="yes"/>
      <point x="20" y="53" type="line"/>
      <point x="20" y="0" type="line"/>
      <point x="378" y="0" type="line"/>
      <point x="378" y="53" type="line"/>
      <point x="256" y="53" type="line"/>
      <point x="273" y="64"/>
      <point x="286" y="77"/>
      <point x="297" y="94" type="curve" smooth="yes"/>
      <point x="346" y="167"/>
      <point x="334" y="254"/>
      <point x="275" y="324" type="curve"/>
      <point x="271" y="329"/>
      <point x="267" y="334"/>
      <point x="263" y="339" type="curve"/>
      <point x="378" y="339" type="line"/>
      <point x="378" y="396" type="line"/>
      <point x="212" y="396" type="line"/>
      <point x="191" y="419"/>
      <point x="172" y="441"/>
      <point x="162" y="453" type="curve" smooth="yes"/>
      <point x="117" y="506"/>
      <point x="90" y="559"/>
      <point x="118" y="605" type="curve" smooth="yes"/>
      <point x="135" y="637"/>
      <point x="165" y="651"/>
      <point x="198" y="654" type="curve" smooth="yes"/>
      <point x="239" y="659"/>
      <point x="285" y="645"/>
      <point x="327" y="620" type="curve"/>
      <point x="346" y="669" type="line"/>
      <point x="294" y="697"/>
      <point x="233" y="712"/>
      <point x="180" y="705" type="curve" smooth="yes"/>
      <point x="135" y="700"/>
      <point x="94" y="680"/>
      <point x="69" y="635" type="curve" smooth="yes"/>
      <point x="25" y="555"/>
      <point x="63" y="485"/>
      <point x="120" y="419" type="curve" smooth="yes"/>
      <point x="124" y="414"/>
      <point x="131" y="405"/>
      <point x="140" y="396" type="curve"/>
      <point x="20" y="396" type="line"/>
      <point x="20" y="339" type="line"/>
      <point x="191" y="339" type="line"/>
      <point x="206" y="323"/>
      <point x="219" y="307"/>
      <point x="233" y="291" type="curve" smooth="yes"/>
      <point x="283" y="234"/>
      <point x="283" y="168"/>
      <point x="246" y="118" type="curve" smooth="yes"/>
      <point x="207" y="61"/>
      <point x="146" y="53"/>
    </contour>
  </outline>
</glyph>
<glyph name="currency" format="1">
  <advance width="438"/>
  <unicode hex="00A4"/>
  <outline>
    <contour>
      <point x="337" y="365" type="curve"/>
      <point x="419" y="448" type="line"/>
      <point x="384" y="483" type="line"/>
      <point x="301" y="400" type="line"/>
      <point x="278" y="418"/>
      <point x="250" y="428"/>
      <point x="219" y="428" type="curve" smooth="yes"/>
      <point x="187" y="428"/>
      <point x="158" y="418"/>
      <point x="134" y="400" type="curve"/>
      <point x="53" y="483" type="line"/>
      <point x="18" y="448" type="line"/>
      <point x="99" y="365" type="line"/>
      <point x="82" y="342"/>
      <point x="74" y="313"/>
      <point x="74" y="283" type="curve" smooth="yes"/>
      <point x="74" y="251"/>
      <point x="84" y="222"/>
      <point x="100" y="199" type="curve"/>
      <point x="18" y="117" type="line"/>
      <point x="53" y="81" type="line"/>
      <point x="135" y="164" type="line"/>
      <point x="158" y="147"/>
      <point x="187" y="137"/>
      <point x="219" y="137" type="curve" smooth="yes"/>
      <point x="250" y="137"/>
      <point x="277" y="147"/>
      <point x="301" y="164" type="curve"/>
      <point x="384" y="81" type="line"/>
      <point x="419" y="117" type="line"/>
      <point x="337" y="199" type="line"/>
      <point x="353" y="222"/>
      <point x="363" y="251"/>
      <point x="363" y="283" type="curve" smooth="yes"/>
      <point x="363" y="313"/>
      <point x="353" y="342"/>
    </contour>
    <contour>
      <point x="219" y="188" type="curve" smooth="yes"/>
      <point x="166" y="188"/>
      <point x="124" y="230"/>
      <point x="124" y="283" type="curve" smooth="yes"/>
      <point x="124" y="334"/>
      <point x="166" y="376"/>
      <point x="219" y="376" type="curve" smooth="yes"/>
      <point x="271" y="376"/>
      <point x="312" y="334"/>
      <point x="312" y="283" type="curve" smooth="yes"/>
      <point x="312" y="230"/>
      <point x="271" y="188"/>
    </contour>
  </outline>
</glyph>
<glyph name="yen" format="1">
  <advance width="502"/>
  <unicode hex="00A5"/>
  <outline>
    <contour>
      <point x="223" y="148" type="line"/>
      <point x="91" y="148" type="line"/>
      <point x="91" y="94" type="line"/>
      <point x="223" y="94" type="line"/>
      <point x="223" y="0" type="line"/>
      <point x="279" y="0" type="line"/>
      <point x="279" y="94" type="line"/>
      <point x="410" y="94" type="line"/>
      <point x="410" y="148" type="line"/>
      <point x="279" y="148" type="line"/>
      <point x="279" y="198" type="line"/>
      <point x="410" y="198" type="line"/>
      <point x="410" y="253" type="line"/>
      <point x="279" y="253" type="line"/>
      <point x="279" y="341" type="line"/>
      <point x="486" y="698" type="line"/>
      <point x="424" y="698" type="line"/>
      <point x="250" y="405" type="line"/>
      <point x="79" y="698" type="line"/>
      <point x="15" y="698" type="line"/>
      <point x="223" y="339" type="line"/>
      <point x="223" y="253" type="line"/>
      <point x="91" y="253" type="line"/>
      <point x="91" y="198" type="line"/>
      <point x="223" y="198" type="line"/>
    </contour>
  </outline>
</glyph>
<glyph name="copyright" format="1">
  <advance width="668"/>
  <unicode hex="00A9"/>
  <outline>
    <contour>
      <point x="649" y="187" type="curve" smooth="yes"/>
      <point x="649" y="326" type="line" smooth="yes"/>
      <point x="649" y="496"/>
      <point x="517" y="581"/>
      <point x="333" y="582" type="curve" smooth="yes"/>
      <point x="150" y="581"/>
      <point x="18" y="496"/>
      <point x="18" y="326" type="curve" smooth="yes"/>
      <point x="18" y="187" type="line" smooth="yes"/>
      <point x="18" y="16"/>
      <point x="150" y="-68"/>
      <point x="333" y="-69" type="curve" smooth="yes"/>
      <point x="517" y="-68"/>
      <point x="649" y="16"/>
    </contour>
    <contour>
      <point x="590" y="301" type="curve" smooth="yes"/>
      <point x="590" y="211" type="line" smooth="yes"/>
      <point x="590" y="48"/>
      <point x="508" y="-13"/>
      <point x="333" y="-15" type="curve" smooth="yes"/>
      <point x="158" y="-13"/>
      <point x="77" y="48"/>
      <point x="77" y="211" type="curve" smooth="yes"/>
      <point x="77" y="301" type="line" smooth="yes"/>
      <point x="77" y="464"/>
      <point x="158" y="526"/>
      <point x="333" y="528" type="curve" smooth="yes"/>
      <point x="508" y="526"/>
      <point x="590" y="464"/>
    </contour>
    <contour>
      <point x="472" y="383" type="curve"/>
      <point x="488" y="420" type="line"/>
      <point x="446" y="442"/>
      <point x="397" y="453"/>
      <point x="346" y="453" type="curve" smooth="yes"/>
      <point x="306" y="453"/>
      <point x="269" y="446"/>
      <point x="240" y="428" type="curve" smooth="yes"/>
      <point x="182" y="393"/>
      <point x="153" y="337"/>
      <point x="153" y="249" type="curve" smooth="yes"/>
      <point x="153" y="165"/>
      <point x="186" y="110"/>
      <point x="234" y="82" type="curve"/>
      <point x="283" y="58"/>
      <point x="330" y="58"/>
      <point x="351" y="58" type="curve" smooth="yes"/>
      <point x="403" y="58"/>
      <point x="457" y="68"/>
      <point x="513" y="90" type="curve"/>
      <point x="501" y="137" type="line"/>
      <point x="444" y="118"/>
      <point x="396" y="108"/>
      <point x="356" y="108" type="curve" smooth="yes"/>
      <point x="310" y="108"/>
      <point x="278" y="117"/>
      <point x="255" y="133" type="curve" smooth="yes"/>
      <point x="221" y="158"/>
      <point x="210" y="202"/>
      <point x="210" y="254" type="curve" smooth="yes"/>
      <point x="210" y="310"/>
      <point x="227" y="352"/>
      <point x="261" y="376" type="curve" smooth="yes"/>
      <point x="286" y="394"/>
      <point x="320" y="404"/>
      <point x="364" y="404" type="curve" smooth="yes"/>
      <point x="398" y="404"/>
      <point x="435" y="396"/>
    </contour>
  </outline>
</glyph>
<glyph name="ordfeminine" format="1">
  <advance width="287"/>
  <unicode hex="00AA"/>
  <outline>
    <contour>
      <point x="272" y="389" type="curve"/>
      <point x="272" y="444"/>
      <point x="272" y="498"/>
      <point x="272" y="553" type="curve" smooth="yes"/>
      <point x="272" y="614"/>
      <point x="257" y="653"/>
      <point x="229" y="676" type="curve" smooth="yes"/>
      <point x="202" y="698"/>
      <point x="162" y="707"/>
      <point x="107" y="707" type="curve"/>
      <point x="103" y="664" type="line"/>
      <point x="140" y="664"/>
      <point x="172" y="661"/>
      <point x="189" y="649" type="curve" smooth="yes"/>
      <point x="212" y="635"/>
      <point x="220" y="614"/>
      <point x="220" y="591" type="curve"/>
      <point x="176" y="616"/>
      <point x="139" y="628"/>
      <point x="108" y="629" type="curve" smooth="yes"/>
      <point x="40" y="631"/>
      <point x="3" y="583"/>
      <point x="3" y="517" type="curve" smooth="yes"/>
      <point x="3" y="410"/>
      <point x="64" y="380"/>
      <point x="151" y="378" type="curve" smooth="yes"/>
      <point x="187" y="378"/>
      <point x="228" y="383"/>
    </contour>
    <contour>
      <point x="218" y="541" type="curve"/>
      <point x="218" y="428" type="line"/>
      <point x="218" y="428"/>
      <point x="136" y="416"/>
      <point x="98" y="432" type="curve" smooth="yes"/>
      <point x="66" y="447"/>
      <point x="50" y="472"/>
      <point x="50" y="512" type="curve" smooth="yes"/>
      <point x="50" y="563"/>
      <point x="71" y="582"/>
      <point x="103" y="582" type="curve" smooth="yes"/>
      <point x="135" y="582"/>
      <point x="178" y="565"/>
    </contour>
  </outline>
</glyph>
<glyph name="registered" format="1">
  <advance width="668"/>
  <unicode hex="00AE"/>
  <outline>
    <contour>
      <point x="649" y="187" type="curve" smooth="yes"/>
      <point x="649" y="326" type="line" smooth="yes"/>
      <point x="649" y="496"/>
      <point x="517" y="581"/>
      <point x="333" y="582" type="curve" smooth="yes"/>
      <point x="150" y="581"/>
      <point x="18" y="496"/>
      <point x="18" y="326" type="curve" smooth="yes"/>
      <point x="18" y="187" type="line" smooth="yes"/>
      <point x="18" y="16"/>
      <point x="150" y="-68"/>
      <point x="333" y="-69" type="curve" smooth="yes"/>
      <point x="517" y="-68"/>
      <point x="649" y="16"/>
    </contour>
    <contour>
      <point x="588" y="301" type="curve" smooth="yes"/>
      <point x="588" y="211" type="line" smooth="yes"/>
      <point x="588" y="48"/>
      <point x="508" y="-13"/>
      <point x="333" y="-15" type="curve" smooth="yes"/>
      <point x="158" y="-13"/>
      <point x="77" y="48"/>
      <point x="77" y="211" type="curve" smooth="yes"/>
      <point x="77" y="301" type="line" smooth="yes"/>
      <point x="77" y="464"/>
      <point x="158" y="526"/>
      <point x="333" y="528" type="curve" smooth="yes"/>
      <point x="508" y="526"/>
      <point x="588" y="464"/>
    </contour>
    <contour>
      <point x="167" y="442" type="line"/>
      <point x="167" y="59" type="line"/>
      <point x="220" y="59" type="line"/>
      <point x="220" y="176" type="line"/>
      <point x="369" y="176" type="line"/>
      <point x="426" y="59" type="line"/>
      <point x="490" y="59" type="line"/>
      <point x="427" y="185" type="line"/>
      <point x="466" y="197"/>
      <point x="502" y="229"/>
      <point x="501" y="311" type="curve" smooth="yes"/>
      <point x="499" y="430"/>
      <point x="424" y="442"/>
      <point x="371" y="442" type="curve" smooth="yes"/>
    </contour>
    <contour>
      <point x="374" y="232" type="curve" smooth="yes"/>
      <point x="220" y="232" type="line"/>
      <point x="220" y="388" type="line"/>
      <point x="374" y="388" type="line" smooth="yes"/>
      <point x="427" y="388"/>
      <point x="449" y="365"/>
      <point x="449" y="310" type="curve" smooth="yes"/>
      <point x="449" y="256"/>
      <point x="425" y="232"/>
    </contour>
  </outline>
</glyph>
<glyph name="degree" format="1">
  <advance width="324"/>
  <unicode hex="00B0"/>
  <outline>
    <contour>
      <point x="307" y="563" type="curve" smooth="yes"/>
      <point x="307" y="643"/>
      <point x="242" y="708"/>
      <point x="162" y="708" type="curve" smooth="yes"/>
      <point x="81" y="708"/>
      <point x="16" y="643"/>
      <point x="16" y="563" type="curve" smooth="yes"/>
      <point x="16" y="483"/>
      <point x="81" y="418"/>
      <point x="162" y="418" type="curve" smooth="yes"/>
      <point x="242" y="418"/>
      <point x="307" y="483"/>
    </contour>
    <contour>
      <point x="162" y="658" type="curve" smooth="yes"/>
      <point x="213" y="658"/>
      <point x="256" y="615"/>
      <point x="256" y="563" type="curve" smooth="yes"/>
      <point x="256" y="512"/>
      <point x="213" y="469"/>
      <point x="162" y="469" type="curve" smooth="yes"/>
      <point x="110" y="469"/>
      <point x="67" y="512"/>
      <point x="67" y="563" type="curve" smooth="yes"/>
      <point x="67" y="615"/>
      <point x="110" y="658"/>
    </contour>
  </outline>
</glyph>
<glyph name="plusminus" format="1">
  <advance width="358"/>
  <unicode hex="00B1"/>
  <outline>
    <contour>
      <point x="153" y="246" type="line"/>
      <point x="19" y="246" type="line"/>
      <point x="19" y="189" type="line"/>
      <point x="338" y="189" type="line"/>
      <point x="338" y="246" type="line"/>
      <point x="208" y="246" type="line"/>
      <point x="208" y="377" type="line"/>
      <point x="339" y="377" type="line"/>
      <point x="339" y="431" type="line"/>
      <point x="208" y="431" type="line"/>
      <point x="208" y="563" type="line"/>
      <point x="153" y="563" type="line"/>
      <point x="153" y="431" type="line"/>
      <point x="20" y="431" type="line"/>
      <point x="20" y="377" type="line"/>
      <point x="153" y="377" type="line"/>
    </contour>
  </outline>
</glyph>
<glyph name="mu" format="1">
  <advance width="427"/>
  <unicode hex="00B5"/>
  <outline>
    <contour>
      <point x="389" y="94" type="curve" smooth="yes"/>
      <point x="389" y="508" type="line"/>
      <point x="332" y="496" type="line"/>
      <point x="332" y="153" type="line" smooth="yes"/>
      <point x="332" y="78"/>
      <point x="298" y="43"/>
      <point x="230" y="43" type="curve" smooth="yes"/>
      <point x="142" y="43"/>
      <point x="92" y="89"/>
      <point x="77" y="105" type="curve"/>
      <point x="77" y="499" type="line"/>
      <point x="20" y="499" type="line"/>
      <point x="20" y="-200" type="line"/>
      <point x="77" y="-209" type="line"/>
      <point x="77" y="44" type="line"/>
      <point x="77" y="44"/>
      <point x="131" y="-12"/>
      <point x="227" y="-12" type="curve" smooth="yes"/>
      <point x="277" y="-12"/>
      <point x="320" y="9"/>
      <point x="341" y="44" type="curve"/>
      <point x="363" y="2"/>
      <point x="389" y="-6"/>
      <point x="389" y="-6" type="curve"/>
      <point x="416" y="26" type="line"/>
      <point x="416" y="26"/>
      <point x="389" y="51"/>
    </contour>
  </outline>
</glyph>
<glyph name="paragraph" format="1">
  <advance width="588"/>
  <unicode hex="00B6"/>
  <outline>
    <contour>
      <point x="395" y="246" type="line"/>
      <point x="395" y="1" type="line"/>
      <point x="450" y="1" type="line"/>
      <point x="450" y="650" type="line"/>
      <point x="509" y="649" type="line"/>
      <point x="509" y="1" type="line"/>
      <point x="565" y="1" type="line"/>
      <point x="565" y="700" type="line"/>
      <point x="215" y="700" type="line" smooth="yes"/>
      <point x="88" y="700"/>
      <point x="18" y="645"/>
      <point x="18" y="474" type="curve" smooth="yes"/>
      <point x="18" y="308"/>
      <point x="84" y="246"/>
      <point x="215" y="246" type="curve" smooth="yes"/>
    </contour>
    <contour>
      <point x="211" y="647" type="curve" smooth="yes"/>
      <point x="395" y="647" type="line"/>
      <point x="395" y="300" type="line"/>
      <point x="211" y="300" type="line" smooth="yes"/>
      <point x="135" y="300"/>
      <point x="74" y="322"/>
      <point x="74" y="474" type="curve" smooth="yes"/>
      <point x="74" y="615"/>
      <point x="132" y="647"/>
    </contour>
  </outline>
</glyph>
<glyph name="guillemotright" format="1">
  <advance width="479"/>
  <unicode hex="00BB"/>
  <outline>
    <contour>
      <point x="54" y="79" type="line"/>
      <point x="241" y="266" type="line"/>
      <point x="54" y="453" type="line"/>
      <point x="18" y="416" type="line"/>
      <point x="167" y="266" type="line"/>
      <point x="20" y="113" type="line"/>
    </contour>
    <contour>
      <point x="274" y="79" type="line"/>
      <point x="460" y="266" type="line"/>
      <point x="274" y="453" type="line"/>
      <point x="237" y="416" type="line"/>
      <point x="386" y="266" type="line"/>
      <point x="239" y="113" type="line"/>
    </contour>
  </outline>
</glyph>
<glyph name="questiondown" format="1">
  <advance width="386"/>
  <unicode hex="00BF"/>
  <outline>
    <contour>
      <point x="367" y="161" type="curve"/>
      <point x="311" y="161" type="line"/>
      <point x="311" y="76"/>
      <point x="251" y="35"/>
      <point x="190" y="37" type="curve" smooth="yes"/>
      <point x="131" y="38"/>
      <point x="73" y="80"/>
      <point x="73" y="157" type="curve" smooth="yes"/>
      <point x="73" y="224"/>
      <point x="113" y="260"/>
      <point x="151" y="302" type="curve" smooth="yes"/>
      <point x="188" y="345"/>
      <point x="228" y="393"/>
      <point x="228" y="480" type="curve" smooth="yes"/>
      <point x="228" y="572" type="line"/>
      <point x="176" y="572" type="line"/>
      <point x="176" y="543"/>
      <point x="176" y="514"/>
      <point x="176" y="485" type="curve" smooth="yes"/>
      <point x="176" y="402"/>
      <point x="139" y="371"/>
      <point x="100" y="326" type="curve" smooth="yes"/>
      <point x="56" y="275"/>
      <point x="18" y="229"/>
      <point x="18" y="155" type="curve" smooth="yes"/>
      <point x="18" y="48"/>
      <point x="102" y="-14"/>
      <point x="190" y="-15" type="curve" smooth="yes"/>
      <point x="278" y="-18"/>
      <point x="367" y="38"/>
    </contour>
    <contour>
      <point x="201" y="701" type="curve" smooth="yes"/>
      <point x="183" y="701"/>
      <point x="168" y="685"/>
      <point x="168" y="667" type="curve" smooth="yes"/>
      <point x="168" y="648"/>
      <point x="183" y="634"/>
      <point x="201" y="634" type="curve" smooth="yes"/>
      <point x="220" y="634"/>
      <point x="235" y="648"/>
      <point x="235" y="667" type="curve" smooth="yes"/>
      <point x="235" y="685"/>
      <point x="220" y="701"/>
    </contour>
  </outline>
</glyph>
<glyph name="Agrave" format="1">
  <advance width="514"/>
  <unicode hex="00C0"/>
  <outline>
    <contour>
      <point x="229" y="698" type="line"/>
      <point x="5" y="0" type="line"/>
      <point x="65" y="0" type="line"/>
      <point x="143" y="244" type="line"/>
      <point x="370" y="244" type="line"/>
      <point x="450" y="0" type="line"/>
      <point x="509" y="0" type="line"/>
      <point x="282" y="698" type="line"/>
    </contour>
    <contour>
      <point x="355" y="299" type="line"/>
      <point x="158" y="299" type="line"/>
      <point x="255" y="612" type="line"/>
    </contour>
    <contour>
      <point x="184" y="820" type="curve"/>
      <point x="237" y="740" type="line"/>
      <point x="272" y="740" type="line"/>
      <point x="234" y="848" type="line" smooth="yes"/>
      <point x="228" y="866"/>
      <point x="208" y="877"/>
      <point x="190" y="867" type="curve"/>
      <point x="172" y="858"/>
      <point x="170" y="834"/>
    </contour>
  </outline>
</glyph>
<glyph name="Acircumflex" format="1">
  <advance width="514"/>
  <unicode hex="00C2"/>
  <outline>
    <contour>
      <point x="229" y="698" type="line"/>
      <point x="5" y="0" type="line"/>
      <point x="65" y="0" type="line"/>
      <point x="143" y="244" type="line"/>
      <point x="370" y="244" type="line"/>
      <point x="450" y="0" type="line"/>
      <point x="509" y="0" type="line"/>
      <point x="282" y="698" type="line"/>
    </contour>
    <contour>
      <point x="355" y="299" type="line"/>
      <point x="158" y="299" type="line"/>
      <point x="255" y="612" type="line"/>
    </contour>
    <contour>
      <point x="264" y="831" type="line"/>
      <point x="353" y="743" type="line"/>
      <point x="392" y="781" type="line"/>
      <point x="264" y="906" type="line"/>
      <point x="132" y="780" type="line"/>
      <point x="170" y="741" type="line"/>
    </contour>
  </outline>
</glyph>
<glyph name="Atilde" format="1">
  <advance width="514"/>
  <unicode hex="00C3"/>
  <outline>
    <contour>
      <point x="229" y="698" type="line"/>
      <point x="5" y="0" type="line"/>
      <point x="65" y="0" type="line"/>
      <point x="143" y="244" type="line"/>
      <point x="370" y="244" type="line"/>
      <point x="450" y="0" type="line"/>
      <point x="509" y="0" type="line"/>
      <point x="282" y="698" type="line"/>
    </contour>
    <contour>
      <point x="355" y="299" type="line"/>
      <point x="158" y="299" type="line"/>
      <point x="255" y="612" type="line"/>
    </contour>
    <contour>
      <point x="392" y="774" type="curve"/>
      <point x="371" y="822" type="line"/>
      <point x="359" y="811"/>
      <point x="338" y="802"/>
      <point x="319" y="802" type="curve" smooth="yes"/>
      <point x="305" y="802"/>
      <point x="258" y="827"/>
      <point x="210" y="827" type="curve" smooth="yes"/>
      <point x="184" y="827"/>
      <point x="155" y="820"/>
      <point x="132" y="795" type="curve"/>
      <point x="155" y="749" type="line"/>
      <point x="169" y="760"/>
      <point x="180" y="768"/>
      <point x="200" y="769" type="curve" smooth="yes"/>
      <point x="231" y="771"/>
      <point x="275" y="745"/>
      <point x="320" y="745" type="curve" smooth="yes"/>
      <point x="344" y="745"/>
      <point x="369" y="752"/>
    </contour>
  </outline>
</glyph>
<glyph name="Adieresis" format="1">
  <advance width="514"/>
  <unicode hex="00C4"/>
  <outline>
    <contour>
      <point x="229" y="698" type="line"/>
      <point x="5" y="0" type="line"/>
      <point x="65" y="0" type="line"/>
      <point x="143" y="244" type="line"/>
      <point x="370" y="244" type="line"/>
      <point x="450" y="0" type="line"/>
      <point x="509" y="0" type="line"/>
      <point x="282" y="698" type="line"/>
    </contour>
    <contour>
      <point x="355" y="299" type="line"/>
      <point x="158" y="299" type="line"/>
      <point x="255" y="612" type="line"/>
    </contour>
    <contour>
      <point x="341" y="834" type="curve" smooth="yes"/>
      <point x="322" y="834"/>
      <point x="308" y="818"/>
      <point x="308" y="801" type="curve" smooth="yes"/>
      <point x="308" y="782"/>
      <point x="322" y="767"/>
      <point x="341" y="767" type="curve" smooth="yes"/>
      <point x="360" y="767"/>
      <point x="374" y="782"/>
      <point x="374" y="801" type="curve" smooth="yes"/>
      <point x="374" y="818"/>
      <point x="360" y="834"/>
    </contour>
    <contour>
      <point x="217" y="801" type="curve" smooth="yes"/>
      <point x="217" y="818"/>
      <point x="201" y="834"/>
      <point x="184" y="834" type="curve" smooth="yes"/>
      <point x="165" y="834"/>
      <point x="150" y="818"/>
      <point x="150" y="801" type="curve" smooth="yes"/>
      <point x="150" y="782"/>
      <point x="165" y="767"/>
      <point x="184" y="767" type="curve" smooth="yes"/>
      <point x="201" y="767"/>
      <point x="217" y="782"/>
    </contour>
  </outline>
</glyph>
<glyph name="Aring" format="1">
  <advance width="515"/>
  <unicode hex="00C5"/>
  <outline>
    <contour>
      <point x="229" y="698" type="line"/>
      <point x="5" y="0" type="line"/>
      <point x="65" y="0" type="line"/>
      <point x="143" y="244" type="line"/>
      <point x="370" y="244" type="line"/>
      <point x="450" y="0" type="line"/>
      <point x="509" y="0" type="line"/>
      <point x="283" y="698" type="line"/>
    </contour>
    <contour>
      <point x="355" y="299" type="line"/>
      <point x="158" y="299" type="line"/>
      <point x="255" y="612" type="line"/>
    </contour>
    <contour>
      <point x="256" y="660" type="curve" smooth="yes"/>
      <point x="320" y="660"/>
      <point x="371" y="711"/>
      <point x="371" y="773" type="curve" smooth="yes"/>
      <point x="371" y="836"/>
      <point x="320" y="888"/>
      <point x="256" y="888" type="curve" smooth="yes"/>
      <point x="194" y="888"/>
      <point x="143" y="836"/>
      <point x="143" y="773" type="curve" smooth="yes"/>
      <point x="143" y="711"/>
      <point x="194" y="660"/>
    </contour>
    <contour>
      <point x="327" y="773" type="curve" smooth="yes"/>
      <point x="327" y="735"/>
      <point x="295" y="704"/>
      <point x="256" y="704" type="curve" smooth="yes"/>
      <point x="218" y="704"/>
      <point x="187" y="735"/>
      <point x="187" y="773" type="curve" smooth="yes"/>
      <point x="187" y="812"/>
      <point x="218" y="844"/>
      <point x="256" y="844" type="curve" smooth="yes"/>
      <point x="295" y="844"/>
      <point x="327" y="812"/>
    </contour>
  </outline>
</glyph>
<glyph name="AE" format="1">
  <advance width="716"/>
  <unicode hex="00C6"/>
  <outline>
    <contour>
      <point x="700" y="50" type="line"/>
      <point x="424" y="50" type="line"/>
      <point x="424" y="355" type="line"/>
      <point x="596" y="355" type="line"/>
      <point x="615" y="413" type="line"/>
      <point x="424" y="413" type="line"/>
      <point x="424" y="645" type="line"/>
      <point x="703" y="645" type="line"/>
      <point x="703" y="698" type="line"/>
      <point x="275" y="698" type="line"/>
      <point x="4" y="0" type="line"/>
      <point x="63" y="0" type="line"/>
      <point x="157" y="243" type="line"/>
      <point x="367" y="243" type="line"/>
      <point x="367" y="0" type="line"/>
      <point x="700" y="0" type="line"/>
    </contour>
    <contour>
      <point x="367" y="645" type="line"/>
      <point x="367" y="299" type="line"/>
      <point x="178" y="299" type="line"/>
      <point x="313" y="645" type="line"/>
    </contour>
  </outline>
</glyph>
<glyph name="Ccedilla" format="1">
  <advance width="387"/>
  <unicode hex="00C7"/>
  <outline>
    <contour>
      <point x="334" y="637" type="curve"/>
      <point x="351" y="675" type="line"/>
      <point x="308" y="697"/>
      <point x="260" y="708"/>
      <point x="209" y="708" type="curve" smooth="yes"/>
      <point x="168" y="708"/>
      <point x="132" y="700"/>
      <point x="102" y="683" type="curve" smooth="yes"/>
      <point x="44" y="647"/>
      <point x="15" y="590"/>
      <point x="15" y="503" type="curve" smooth="yes"/>
      <point x="15" y="183" type="line" smooth="yes"/>
      <point x="15" y="99"/>
      <point x="48" y="42"/>
      <point x="97" y="15" type="curve" smooth="yes"/>
      <point x="145" y="-10"/>
      <point x="194" y="-10"/>
      <point x="215" y="-10" type="curve" smooth="yes"/>
      <point x="265" y="-10"/>
      <point x="319" y="1"/>
      <point x="376" y="23" type="curve"/>
      <point x="364" y="69" type="line"/>
      <point x="307" y="50"/>
      <point x="258" y="40"/>
      <point x="219" y="40" type="curve" smooth="yes"/>
      <point x="173" y="40"/>
      <point x="141" y="48"/>
      <point x="118" y="65" type="curve" smooth="yes"/>
      <point x="82" y="90"/>
      <point x="71" y="132"/>
      <point x="71" y="185" type="curve" smooth="yes"/>
      <point x="71" y="512" type="line" smooth="yes"/>
      <point x="71" y="568"/>
      <point x="88" y="607"/>
      <point x="122" y="631" type="curve" smooth="yes"/>
      <point x="147" y="649"/>
      <point x="183" y="658"/>
      <point x="227" y="658" type="curve" smooth="yes"/>
      <point x="261" y="658"/>
      <point x="297" y="651"/>
    </contour>
    <contour>
      <point x="241" y="-48" type="curve" smooth="yes"/>
      <point x="232" y="-50"/>
      <point x="222" y="-50"/>
      <point x="213" y="-51" type="curve"/>
      <point x="240" y="-7" type="line"/>
      <point x="190" y="-7" type="line"/>
      <point x="150" y="-75" type="line"/>
      <point x="164" y="-105" type="line"/>
      <point x="190" y="-102"/>
      <point x="216" y="-98"/>
      <point x="238" y="-98" type="curve" smooth="yes"/>
      <point x="272" y="-97"/>
      <point x="296" y="-105"/>
      <point x="296" y="-139" type="curve" smooth="yes"/>
      <point x="296" y="-179"/>
      <point x="264" y="-190"/>
      <point x="224" y="-190" type="curve" smooth="yes"/>
      <point x="198" y="-190"/>
      <point x="168" y="-185"/>
      <point x="142" y="-178" type="curve"/>
      <point x="134" y="-208"/>
      <point x="136" y="-199"/>
      <point x="130" y="-227" type="curve"/>
      <point x="132" y="-228"/>
      <point x="184" y="-240"/>
      <point x="231" y="-240" type="curve" smooth="yes"/>
      <point x="310" y="-240"/>
      <point x="345" y="-190"/>
      <point x="345" y="-142" type="curve" smooth="yes"/>
      <point x="345" y="-91"/>
      <point x="307" y="-41"/>
    </contour>
  </outline>
</glyph>
<glyph name="Egrave" format="1">
  <advance width="367"/>
  <unicode hex="00C8"/>
  <outline>
    <contour>
      <point x="352" y="50" type="line"/>
      <point x="77" y="50" type="line"/>
      <point x="77" y="356" type="line"/>
      <point x="249" y="356" type="line"/>
      <point x="267" y="411" type="line"/>
      <point x="77" y="411" type="line"/>
      <point x="77" y="646" type="line"/>
      <point x="354" y="646" type="line"/>
      <point x="354" y="698" type="line"/>
      <point x="21" y="698" type="line"/>
      <point x="21" y="0" type="line"/>
      <point x="352" y="0" type="line"/>
    </contour>
    <contour>
      <point x="117" y="822" type="curve"/>
      <point x="169" y="743" type="line"/>
      <point x="205" y="743" type="line"/>
      <point x="167" y="849" type="line"/>
      <point x="162" y="868"/>
      <point x="141" y="879"/>
      <point x="123" y="869" type="curve" smooth="yes"/>
      <point x="106" y="859"/>
      <point x="105" y="836"/>
    </contour>
  </outline>
</glyph>
<glyph name="Eacute" format="1">
  <advance width="367"/>
  <unicode hex="00C9"/>
  <outline>
    <contour>
      <point x="352" y="50" type="line"/>
      <point x="77" y="50" type="line"/>
      <point x="77" y="356" type="line"/>
      <point x="249" y="356" type="line"/>
      <point x="267" y="411" type="line"/>
      <point x="77" y="411" type="line"/>
      <point x="77" y="646" type="line"/>
      <point x="354" y="646" type="line"/>
      <point x="354" y="698" type="line"/>
      <point x="21" y="698" type="line"/>
      <point x="21" y="0" type="line"/>
      <point x="352" y="0" type="line"/>
    </contour>
    <contour>
      <point x="209" y="858" type="curve" smooth="yes"/>
      <point x="168" y="743" type="line"/>
      <point x="207" y="743" type="line"/>
      <point x="264" y="828" type="line"/>
      <point x="277" y="844"/>
      <point x="276" y="869"/>
      <point x="256" y="880" type="curve" smooth="yes"/>
      <point x="238" y="890"/>
      <point x="216" y="879"/>
    </contour>
  </outline>
</glyph>
<glyph name="Ecircumflex" format="1">
  <advance width="369"/>
  <unicode hex="00CA"/>
  <outline>
    <contour>
      <point x="353" y="50" type="line"/>
      <point x="78" y="50" type="line"/>
      <point x="78" y="356" type="line"/>
      <point x="250" y="356" type="line"/>
      <point x="268" y="411" type="line"/>
      <point x="78" y="411" type="line"/>
      <point x="78" y="646" type="line"/>
      <point x="355" y="646" type="line"/>
      <point x="355" y="698" type="line"/>
      <point x="22" y="698" type="line"/>
      <point x="22" y="0" type="line"/>
      <point x="353" y="0" type="line"/>
    </contour>
    <contour>
      <point x="190" y="833" type="line"/>
      <point x="279" y="745" type="line"/>
      <point x="319" y="782" type="line"/>
      <point x="190" y="909" type="line"/>
      <point x="58" y="781" type="line"/>
      <point x="98" y="743" type="line"/>
    </contour>
  </outline>
</glyph>
<glyph name="Edieresis" format="1">
  <advance width="369"/>
  <unicode hex="00CB"/>
  <outline>
    <contour>
      <point x="353" y="50" type="line"/>
      <point x="78" y="50" type="line"/>
      <point x="78" y="356" type="line"/>
      <point x="250" y="356" type="line"/>
      <point x="268" y="411" type="line"/>
      <point x="78" y="411" type="line"/>
      <point x="78" y="646" type="line"/>
      <point x="355" y="646" type="line"/>
      <point x="355" y="698" type="line"/>
      <point x="22" y="698" type="line"/>
      <point x="22" y="0" type="line"/>
      <point x="353" y="0" type="line"/>
    </contour>
    <contour>
      <point x="301" y="802" type="curve" smooth="yes"/>
      <point x="301" y="821"/>
      <point x="286" y="835"/>
      <point x="267" y="835" type="curve" smooth="yes"/>
      <point x="250" y="835"/>
      <point x="234" y="821"/>
      <point x="234" y="802" type="curve" smooth="yes"/>
      <point x="234" y="783"/>
      <point x="250" y="768"/>
      <point x="267" y="768" type="curve" smooth="yes"/>
      <point x="286" y="768"/>
      <point x="301" y="783"/>
    </contour>
    <contour>
      <point x="143" y="802" type="curve" smooth="yes"/>
      <point x="143" y="821"/>
      <point x="129" y="835"/>
      <point x="110" y="835" type="curve" smooth="yes"/>
      <point x="91" y="835"/>
      <point x="76" y="821"/>
      <point x="76" y="802" type="curve" smooth="yes"/>
      <point x="76" y="783"/>
      <point x="91" y="768"/>
      <point x="110" y="768" type="curve" smooth="yes"/>
      <point x="129" y="768"/>
      <point x="143" y="783"/>
    </contour>
  </outline>
</glyph>
<glyph name="Igrave" format="1">
  <advance width="178"/>
  <unicode hex="00CC"/>
  <outline>
    <contour>
      <point x="69" y="0" type="line"/>
      <point x="125" y="0" type="line"/>
      <point x="125" y="698" type="line"/>
      <point x="2" y="698" type="line"/>
      <point x="2" y="649" type="line"/>
      <point x="69" y="647" type="line"/>
    </contour>
    <contour>
      <point x="116" y="847" type="curve"/>
      <point x="77" y="740" type="line"/>
      <point x="112" y="740" type="line"/>
      <point x="166" y="820" type="line"/>
      <point x="178" y="834"/>
      <point x="177" y="857"/>
      <point x="159" y="867" type="curve" smooth="yes"/>
      <point x="142" y="877"/>
      <point x="121" y="866"/>
    </contour>
  </outline>
</glyph>
<glyph name="Iacute" format="1">
  <advance width="179"/>
  <unicode hex="00CD"/>
  <outline>
    <contour>
      <point x="70" y="0" type="line"/>
      <point x="127" y="0" type="line"/>
      <point x="127" y="698" type="line"/>
      <point x="2" y="698" type="line"/>
      <point x="2" y="649" type="line"/>
      <point x="70" y="647" type="line"/>
    </contour>
    <contour>
      <point x="116" y="847" type="curve" smooth="yes"/>
      <point x="78" y="740" type="line"/>
      <point x="113" y="740" type="line"/>
      <point x="166" y="820" type="line"/>
      <point x="179" y="834"/>
      <point x="177" y="857"/>
      <point x="159" y="867" type="curve" smooth="yes"/>
      <point x="142" y="877"/>
      <point x="122" y="866"/>
    </contour>
  </outline>
</glyph>
<glyph name="Icircumflex" format="1">
  <advance width="234"/>
  <unicode hex="00CE"/>
  <outline>
    <contour>
      <point x="91" y="0" type="line"/>
      <point x="147" y="0" type="line"/>
      <point x="147" y="698" type="line"/>
      <point x="24" y="698" type="line"/>
      <point x="24" y="649" type="line"/>
      <point x="91" y="647" type="line"/>
    </contour>
    <contour>
      <point x="121" y="827" type="line"/>
      <point x="210" y="740" type="line"/>
      <point x="249" y="778" type="line"/>
      <point x="121" y="903" type="line"/>
      <point x="-11" y="777" type="line"/>
      <point x="28" y="738" type="line"/>
    </contour>
  </outline>
</glyph>
<glyph name="Idieresis" format="1">
  <advance width="210"/>
  <unicode hex="00CF"/>
  <outline>
    <contour>
      <point x="100" y="0" type="line"/>
      <point x="155" y="0" type="line"/>
      <point x="155" y="698" type="line"/>
      <point x="32" y="698" type="line"/>
      <point x="32" y="649" type="line"/>
      <point x="100" y="647" type="line"/>
    </contour>
    <contour>
      <point x="176" y="834" type="curve" smooth="yes"/>
      <point x="157" y="834"/>
      <point x="143" y="818"/>
      <point x="143" y="800" type="curve" smooth="yes"/>
      <point x="143" y="782"/>
      <point x="157" y="767"/>
      <point x="176" y="767" type="curve" smooth="yes"/>
      <point x="195" y="767"/>
      <point x="210" y="782"/>
      <point x="210" y="800" type="curve" smooth="yes"/>
      <point x="210" y="818"/>
      <point x="195" y="834"/>
    </contour>
    <contour>
      <point x="19" y="834" type="curve" smooth="yes"/>
      <point x="0" y="834"/>
      <point x="-15" y="818"/>
      <point x="-15" y="800" type="curve" smooth="yes"/>
      <point x="-15" y="782"/>
      <point x="0" y="767"/>
      <point x="19" y="767" type="curve" smooth="yes"/>
      <point x="36" y="767"/>
      <point x="52" y="782"/>
      <point x="52" y="800" type="curve" smooth="yes"/>
      <point x="52" y="818"/>
      <point x="36" y="834"/>
    </contour>
  </outline>
</glyph>
<glyph name="Eth" format="1">
  <advance width="458"/>
  <unicode hex="00D0"/>
  <outline>
    <contour>
      <point x="210" y="698" type="curve" smooth="yes"/>
      <point x="22" y="698" type="line"/>
      <point x="22" y="0" type="line"/>
      <point x="230" y="0" type="line" smooth="yes"/>
      <point x="371" y="0"/>
      <point x="441" y="67"/>
      <point x="441" y="199" type="curve" smooth="yes"/>
      <point x="441" y="473" type="line" smooth="yes"/>
      <point x="441" y="609"/>
      <point x="360" y="698"/>
    </contour>
    <contour>
      <point x="213" y="50" type="curve" smooth="yes"/>
      <point x="78" y="50" type="line"/>
      <point x="78" y="359" type="line"/>
      <point x="267" y="359" type="line"/>
      <point x="282" y="413" type="line"/>
      <point x="78" y="413" type="line"/>
      <point x="78" y="648" type="line"/>
      <point x="220" y="648" type="line" smooth="yes"/>
      <point x="337" y="648"/>
      <point x="385" y="574"/>
      <point x="385" y="488" type="curve" smooth="yes"/>
      <point x="385" y="189" type="line" smooth="yes"/>
      <point x="385" y="97"/>
      <point x="328" y="50"/>
    </contour>
  </outline>
</glyph>
<glyph name="Ntilde" format="1">
  <advance width="533"/>
  <unicode hex="00D1"/>
  <outline>
    <contour>
      <point x="455" y="102" type="line"/>
      <point x="77" y="698" type="line"/>
      <point x="21" y="698" type="line"/>
      <point x="21" y="0" type="line"/>
      <point x="77" y="0" type="line"/>
      <point x="77" y="595" type="line"/>
      <point x="455" y="0" type="line"/>
      <point x="512" y="0" type="line"/>
      <point x="512" y="698" type="line"/>
      <point x="455" y="698" type="line"/>
    </contour>
    <contour>
      <point x="396" y="782" type="curve"/>
      <point x="375" y="829" type="line"/>
      <point x="362" y="818"/>
      <point x="342" y="810"/>
      <point x="323" y="810" type="curve" smooth="yes"/>
      <point x="309" y="810"/>
      <point x="263" y="835"/>
      <point x="215" y="835" type="curve" smooth="yes"/>
      <point x="188" y="835"/>
      <point x="159" y="828"/>
      <point x="136" y="803" type="curve"/>
      <point x="159" y="757" type="line"/>
      <point x="174" y="769"/>
      <point x="185" y="776"/>
      <point x="205" y="777" type="curve" smooth="yes"/>
      <point x="235" y="779"/>
      <point x="279" y="752"/>
      <point x="324" y="752" type="curve" smooth="yes"/>
      <point x="349" y="752"/>
      <point x="373" y="760"/>
    </contour>
  </outline>
</glyph>
<glyph name="Oacute" format="1">
  <advance width="452"/>
  <unicode hex="00D3"/>
  <outline>
    <contour>
      <point x="15" y="506" type="curve" smooth="yes"/>
      <point x="15" y="185" type="line" smooth="yes"/>
      <point x="15" y="56"/>
      <point x="108" y="-11"/>
      <point x="226" y="-11" type="curve" smooth="yes"/>
      <point x="349" y="-11"/>
      <point x="435" y="64"/>
      <point x="435" y="185" type="curve" smooth="yes"/>
      <point x="435" y="505" type="line" smooth="yes"/>
      <point x="435" y="635"/>
      <point x="359" y="714"/>
      <point x="227" y="714" type="curve" smooth="yes"/>
      <point x="95" y="714"/>
      <point x="15" y="642"/>
    </contour>
    <contour>
      <point x="71" y="186" type="curve" smooth="yes"/>
      <point x="71" y="515" type="line" smooth="yes"/>
      <point x="71" y="612"/>
      <point x="132" y="661"/>
      <point x="224" y="661" type="curve" smooth="yes"/>
      <point x="318" y="661"/>
      <point x="380" y="612"/>
      <point x="380" y="515" type="curve" smooth="yes"/>
      <point x="380" y="186" type="line" smooth="yes"/>
      <point x="380" y="88"/>
      <point x="316" y="42"/>
      <point x="224" y="42" type="curve" smooth="yes"/>
      <point x="136" y="42"/>
      <point x="71" y="90"/>
    </contour>
    <contour>
      <point x="246" y="858" type="curve" smooth="yes"/>
      <point x="209" y="751" type="line"/>
      <point x="244" y="751" type="line"/>
      <point x="297" y="831" type="line"/>
      <point x="310" y="845"/>
      <point x="308" y="868"/>
      <point x="290" y="878" type="curve" smooth="yes"/>
      <point x="273" y="888"/>
      <point x="253" y="877"/>
    </contour>
  </outline>
</glyph>
<glyph name="Otilde" format="1">
  <advance width="452"/>
  <unicode hex="00D5"/>
  <outline>
    <contour>
      <point x="15" y="506" type="curve" smooth="yes"/>
      <point x="15" y="185" type="line" smooth="yes"/>
      <point x="15" y="56"/>
      <point x="108" y="-11"/>
      <point x="226" y="-11" type="curve" smooth="yes"/>
      <point x="349" y="-11"/>
      <point x="435" y="64"/>
      <point x="435" y="185" type="curve" smooth="yes"/>
      <point x="435" y="505" type="line" smooth="yes"/>
      <point x="435" y="635"/>
      <point x="359" y="714"/>
      <point x="227" y="714" type="curve" smooth="yes"/>
      <point x="95" y="714"/>
      <point x="15" y="642"/>
    </contour>
    <contour>
      <point x="71" y="186" type="curve" smooth="yes"/>
      <point x="71" y="515" type="line" smooth="yes"/>
      <point x="71" y="612"/>
      <point x="132" y="661"/>
      <point x="224" y="661" type="curve" smooth="yes"/>
      <point x="318" y="661"/>
      <point x="380" y="612"/>
      <point x="380" y="515" type="curve" smooth="yes"/>
      <point x="380" y="186" type="line" smooth="yes"/>
      <point x="380" y="88"/>
      <point x="316" y="42"/>
      <point x="224" y="42" type="curve" smooth="yes"/>
      <point x="136" y="42"/>
      <point x="71" y="90"/>
    </contour>
    <contour>
      <point x="354" y="774" type="curve"/>
      <point x="333" y="822" type="line"/>
      <point x="320" y="811"/>
      <point x="300" y="801"/>
      <point x="280" y="802" type="curve"/>
      <point x="267" y="801"/>
      <point x="221" y="827"/>
      <point x="173" y="827" type="curve" smooth="yes"/>
      <point x="145" y="827"/>
      <point x="118" y="820"/>
      <point x="95" y="795" type="curve"/>
      <point x="117" y="749" type="line"/>
      <point x="132" y="760"/>
      <point x="143" y="768"/>
      <point x="163" y="769" type="curve" smooth="yes"/>
      <point x="193" y="771"/>
      <point x="238" y="745"/>
      <point x="283" y="745" type="curve" smooth="yes"/>
      <point x="307" y="745"/>
      <point x="331" y="751"/>
    </contour>
  </outline>
</glyph>
<glyph name="Odieresis" format="1">
  <advance width="452"/>
  <unicode hex="00D6"/>
  <outline>
    <contour>
      <point x="15" y="506" type="curve" smooth="yes"/>
      <point x="15" y="185" type="line" smooth="yes"/>
      <point x="15" y="56"/>
      <point x="108" y="-11"/>
      <point x="226" y="-11" type="curve" smooth="yes"/>
      <point x="349" y="-11"/>
      <point x="435" y="64"/>
      <point x="435" y="185" type="curve" smooth="yes"/>
      <point x="435" y="505" type="line" smooth="yes"/>
      <point x="435" y="635"/>
      <point x="359" y="714"/>
      <point x="227" y="714" type="curve" smooth="yes"/>
      <point x="95" y="714"/>
      <point x="15" y="642"/>
    </contour>
    <contour>
      <point x="71" y="186" type="curve" smooth="yes"/>
      <point x="71" y="515" type="line" smooth="yes"/>
      <point x="71" y="612"/>
      <point x="132" y="661"/>
      <point x="224" y="661" type="curve" smooth="yes"/>
      <point x="318" y="661"/>
      <point x="380" y="612"/>
      <point x="380" y="515" type="curve" smooth="yes"/>
      <point x="380" y="186" type="line" smooth="yes"/>
      <point x="380" y="88"/>
      <point x="316" y="42"/>
      <point x="224" y="42" type="curve" smooth="yes"/>
      <point x="136" y="42"/>
      <point x="71" y="90"/>
    </contour>
    <contour>
      <point x="304" y="844" type="curve" smooth="yes"/>
      <point x="285" y="844"/>
      <point x="269" y="828"/>
      <point x="269" y="810" type="curve" smooth="yes"/>
      <point x="269" y="791"/>
      <point x="285" y="777"/>
      <point x="304" y="777" type="curve" smooth="yes"/>
      <point x="321" y="777"/>
      <point x="337" y="791"/>
      <point x="337" y="810" type="curve" smooth="yes"/>
      <point x="337" y="828"/>
      <point x="321" y="844"/>
    </contour>
    <contour>
      <point x="145" y="844" type="curve" smooth="yes"/>
      <point x="127" y="844"/>
      <point x="112" y="828"/>
      <point x="112" y="810" type="curve" smooth="yes"/>
      <point x="112" y="791"/>
      <point x="127" y="777"/>
      <point x="145" y="777" type="curve" smooth="yes"/>
      <point x="164" y="777"/>
      <point x="179" y="791"/>
      <point x="179" y="810" type="curve" smooth="yes"/>
      <point x="179" y="828"/>
      <point x="164" y="844"/>
    </contour>
  </outline>
</glyph>
<glyph name="multiply" format="1">
  <advance width="321"/>
  <unicode hex="00D7"/>
  <outline>
    <contour>
      <point x="19" y="461" type="line"/>
      <point x="124" y="332" type="line"/>
      <point x="19" y="205" type="line"/>
      <point x="61" y="167" type="line"/>
      <point x="161" y="289" type="line"/>
      <point x="261" y="167" type="line"/>
      <point x="302" y="205" type="line"/>
      <point x="196" y="332" type="line"/>
      <point x="302" y="461" type="line"/>
      <point x="261" y="495" type="line"/>
      <point x="161" y="374" type="line"/>
      <point x="59" y="495" type="line"/>
    </contour>
  </outline>
</glyph>
<glyph name="Ugrave" format="1">
  <advance width="455"/>
  <unicode hex="00D9"/>
  <outline>
    <contour>
      <point x="436" y="185" type="curve" smooth="yes"/>
      <point x="436" y="698" type="line"/>
      <point x="381" y="698" type="line"/>
      <point x="381" y="186" type="line" smooth="yes"/>
      <point x="381" y="140"/>
      <point x="366" y="106"/>
      <point x="342" y="81" type="curve" smooth="yes"/>
      <point x="315" y="54"/>
      <point x="275" y="42"/>
      <point x="227" y="42" type="curve" smooth="yes"/>
      <point x="185" y="42"/>
      <point x="147" y="53"/>
      <point x="121" y="74" type="curve" smooth="yes"/>
      <point x="90" y="98"/>
      <point x="73" y="135"/>
      <point x="73" y="186" type="curve" smooth="yes"/>
      <point x="73" y="698" type="line"/>
      <point x="18" y="698" type="line"/>
      <point x="18" y="185" type="line" smooth="yes"/>
      <point x="18" y="118"/>
      <point x="38" y="68"/>
      <point x="79" y="36" type="curve" smooth="yes"/>
      <point x="121" y="4"/>
      <point x="170" y="-11"/>
      <point x="228" y="-11" type="curve" smooth="yes"/>
      <point x="284" y="-11"/>
      <point x="333" y="4"/>
      <point x="374" y="36" type="curve" smooth="yes"/>
      <point x="415" y="68"/>
      <point x="436" y="118"/>
    </contour>
    <contour>
      <point x="158" y="822" type="curve"/>
      <point x="211" y="743" type="line"/>
      <point x="246" y="743" type="line"/>
      <point x="209" y="849" type="line" smooth="yes"/>
      <point x="202" y="868"/>
      <point x="183" y="879"/>
      <point x="165" y="869" type="curve" smooth="yes"/>
      <point x="147" y="859"/>
      <point x="145" y="836"/>
    </contour>
  </outline>
</glyph>
<glyph name="Udieresis" format="1">
  <advance width="455"/>
  <unicode hex="00DC"/>
  <outline>
    <contour>
      <point x="436" y="185" type="curve" smooth="yes"/>
      <point x="436" y="698" type="line"/>
      <point x="381" y="698" type="line"/>
      <point x="381" y="186" type="line" smooth="yes"/>
      <point x="381" y="140"/>
      <point x="366" y="106"/>
      <point x="342" y="81" type="curve" smooth="yes"/>
      <point x="315" y="54"/>
      <point x="275" y="42"/>
      <point x="227" y="42" type="curve" smooth="yes"/>
      <point x="185" y="42"/>
      <point x="147" y="53"/>
      <point x="121" y="74" type="curve" smooth="yes"/>
      <point x="90" y="98"/>
      <point x="73" y="135"/>
      <point x="73" y="186" type="curve" smooth="yes"/>
      <point x="73" y="698" type="line"/>
      <point x="18" y="698" type="line"/>
      <point x="18" y="185" type="line" smooth="yes"/>
      <point x="18" y="118"/>
      <point x="38" y="68"/>
      <point x="79" y="36" type="curve" smooth="yes"/>
      <point x="121" y="4"/>
      <point x="170" y="-11"/>
      <point x="228" y="-11" type="curve" smooth="yes"/>
      <point x="284" y="-11"/>
      <point x="333" y="4"/>
      <point x="374" y="36" type="curve" smooth="yes"/>
      <point x="415" y="68"/>
      <point x="436" y="118"/>
    </contour>
    <contour>
      <point x="339" y="803" type="curve" smooth="yes"/>
      <point x="339" y="822"/>
      <point x="323" y="836"/>
      <point x="306" y="836" type="curve" smooth="yes"/>
      <point x="287" y="836"/>
      <point x="272" y="822"/>
      <point x="272" y="803" type="curve" smooth="yes"/>
      <point x="272" y="784"/>
      <point x="287" y="769"/>
      <point x="306" y="769" type="curve" smooth="yes"/>
      <point x="323" y="769"/>
      <point x="339" y="784"/>
    </contour>
    <contour>
      <point x="182" y="803" type="curve" smooth="yes"/>
      <point x="182" y="822"/>
      <point x="166" y="836"/>
      <point x="147" y="836" type="curve" smooth="yes"/>
      <point x="129" y="836"/>
      <point x="114" y="822"/>
      <point x="114" y="803" type="curve" smooth="yes"/>
      <point x="114" y="784"/>
      <point x="129" y="769"/>
      <point x="147" y="769" type="curve" smooth="yes"/>
      <point x="166" y="769"/>
      <point x="182" y="784"/>
    </contour>
  </outline>
</glyph>
<glyph name="Yacute" format="1">
  <advance width="475"/>
  <unicode hex="00DD"/>
  <outline>
    <contour>
      <point x="454" y="155" type="curve" smooth="yes"/>
      <point x="454" y="698" type="line"/>
      <point x="398" y="698" type="line"/>
      <point x="398" y="422" type="line" smooth="yes"/>
      <point x="398" y="380"/>
      <point x="373" y="339"/>
      <point x="334" y="319" type="curve" smooth="yes"/>
      <point x="307" y="306"/>
      <point x="272" y="299"/>
      <point x="231" y="299" type="curve" smooth="yes"/>
      <point x="187" y="299"/>
      <point x="147" y="310"/>
      <point x="114" y="334" type="curve" smooth="yes"/>
      <point x="82" y="360"/>
      <point x="68" y="395"/>
      <point x="68" y="451" type="curve" smooth="yes"/>
      <point x="68" y="698" type="line"/>
      <point x="12" y="698" type="line"/>
      <point x="12" y="462" type="line" smooth="yes"/>
      <point x="12" y="381"/>
      <point x="32" y="330"/>
      <point x="74" y="295" type="curve" smooth="yes"/>
      <point x="114" y="260"/>
      <point x="170" y="241"/>
      <point x="241" y="244" type="curve" smooth="yes"/>
      <point x="331" y="250"/>
      <point x="380" y="285"/>
      <point x="398" y="305" type="curve"/>
      <point x="398" y="152" type="line" smooth="yes"/>
      <point x="398" y="86"/>
      <point x="378" y="45"/>
      <point x="337" y="30" type="curve"/>
      <point x="350" y="-7" type="line"/>
      <point x="417" y="2"/>
      <point x="454" y="58"/>
    </contour>
    <contour>
      <point x="254" y="848" type="curve" smooth="yes"/>
      <point x="217" y="741" type="line"/>
      <point x="252" y="741" type="line"/>
      <point x="305" y="821" type="line"/>
      <point x="318" y="835"/>
      <point x="316" y="858"/>
      <point x="298" y="868" type="curve" smooth="yes"/>
      <point x="280" y="878"/>
      <point x="261" y="867"/>
    </contour>
  </outline>
</glyph>
<glyph name="Thorn" format="1">
  <advance width="394"/>
  <unicode hex="00DE"/>
  <outline>
    <contour>
      <point x="381" y="289" type="curve" smooth="yes"/>
      <point x="381" y="435" type="line" smooth="yes"/>
      <point x="380" y="479"/>
      <point x="372" y="510"/>
      <point x="353" y="542" type="curve" smooth="yes"/>
      <point x="328" y="586"/>
      <point x="288" y="610"/>
      <point x="244" y="620" type="curve" smooth="yes"/>
      <point x="193" y="631"/>
      <point x="131" y="621"/>
      <point x="78" y="599" type="curve"/>
      <point x="78" y="698" type="line"/>
      <point x="22" y="698" type="line"/>
      <point x="22" y="0" type="line"/>
      <point x="78" y="0" type="line"/>
      <point x="78" y="118" type="line"/>
      <point x="141" y="102"/>
      <point x="215" y="100"/>
      <point x="269" y="118" type="curve" smooth="yes"/>
      <point x="338" y="140"/>
      <point x="381" y="191"/>
    </contour>
    <contour>
      <point x="234" y="570" type="curve" smooth="yes"/>
      <point x="265" y="562"/>
      <point x="291" y="542"/>
      <point x="308" y="510" type="curve"/>
      <point x="319" y="486"/>
      <point x="327" y="457"/>
      <point x="327" y="420" type="curve" smooth="yes"/>
      <point x="327" y="301" type="line" smooth="yes"/>
      <point x="327" y="234"/>
      <point x="309" y="188"/>
      <point x="257" y="168" type="curve" smooth="yes"/>
      <point x="199" y="144"/>
      <point x="100" y="165"/>
      <point x="78" y="169" type="curve"/>
      <point x="78" y="547" type="line"/>
      <point x="124" y="568"/>
      <point x="193" y="581"/>
    </contour>
  </outline>
</glyph>
<glyph name="germandbls" format="1">
  <advance width="430"/>
  <unicode hex="00DF"/>
  <outline>
    <contour>
      <point x="76" y="0" type="curve"/>
      <point x="76" y="539" type="line" smooth="yes"/>
      <point x="76" y="610"/>
      <point x="105" y="645"/>
      <point x="159" y="645" type="curve" smooth="yes"/>
      <point x="202" y="645"/>
      <point x="227" y="610"/>
      <point x="230" y="575" type="curve" smooth="yes"/>
      <point x="233" y="540"/>
      <point x="215" y="506"/>
      <point x="170" y="506" type="curve"/>
      <point x="155" y="480"/>
      <point x="151" y="455"/>
      <point x="153" y="433" type="curve" smooth="yes"/>
      <point x="158" y="380"/>
      <point x="209" y="337"/>
      <point x="258" y="294" type="curve" smooth="yes"/>
      <point x="310" y="249"/>
      <point x="361" y="204"/>
      <point x="361" y="143" type="curve" smooth="yes"/>
      <point x="361" y="76"/>
      <point x="310" y="44"/>
      <point x="254" y="43" type="curve" smooth="yes"/>
      <point x="215" y="43"/>
      <point x="173" y="57"/>
      <point x="144" y="85" type="curve"/>
      <point x="134" y="68"/>
      <point x="124" y="53"/>
      <point x="114" y="36" type="curve"/>
      <point x="154" y="3"/>
      <point x="210" y="-13"/>
      <point x="263" y="-11" type="curve" smooth="yes"/>
      <point x="344" y="-8"/>
      <point x="419" y="40"/>
      <point x="419" y="141" type="curve" smooth="yes"/>
      <point x="419" y="219"/>
      <point x="363" y="275"/>
      <point x="308" y="323" type="curve" smooth="yes"/>
      <point x="261" y="365"/>
      <point x="215" y="400"/>
      <point x="210" y="439" type="curve" smooth="yes"/>
      <point x="209" y="451"/>
      <point x="211" y="463"/>
      <point x="219" y="475" type="curve"/>
      <point x="218" y="475"/>
      <point x="249" y="475"/>
      <point x="249" y="475" type="curve"/>
      <point x="275" y="497"/>
      <point x="287" y="533"/>
      <point x="285" y="570" type="curve" smooth="yes"/>
      <point x="283" y="635"/>
      <point x="237" y="703"/>
      <point x="154" y="698" type="curve"/>
      <point x="67" y="698"/>
      <point x="20" y="638"/>
      <point x="20" y="536" type="curve" smooth="yes"/>
      <point x="20" y="358"/>
      <point x="20" y="178"/>
      <point x="20" y="0" type="curve"/>
      <point x="38" y="0"/>
      <point x="57" y="0"/>
    </contour>
  </outline>
</glyph>
<glyph name="agrave" format="1">
  <advance width="410"/>
  <unicode hex="00E0"/>
  <outline>
    <contour>
      <point x="338" y="349" type="curve"/>
      <point x="291" y="375"/>
      <point x="228" y="402"/>
      <point x="163" y="402" type="curve" smooth="yes"/>
      <point x="82" y="402"/>
      <point x="10" y="363"/>
      <point x="10" y="251" type="curve" smooth="yes"/>
      <point x="10" y="223"/>
      <point x="10" y="196"/>
      <point x="10" y="168" type="curve" smooth="yes"/>
      <point x="10" y="21"/>
      <point x="108" y="-14"/>
      <point x="237" y="-10" type="curve" smooth="yes"/>
      <point x="286" y="-9"/>
      <point x="394" y="0"/>
      <point x="394" y="0" type="curve"/>
      <point x="394" y="96"/>
      <point x="394" y="191"/>
      <point x="394" y="287" type="curve" smooth="yes"/>
      <point x="394" y="375"/>
      <point x="386" y="444"/>
      <point x="323" y="480" type="curve" smooth="yes"/>
      <point x="282" y="504"/>
      <point x="232" y="507"/>
      <point x="186" y="507" type="curve"/>
      <point x="184" y="464" type="line"/>
      <point x="221" y="464"/>
      <point x="255" y="461"/>
      <point x="280" y="449" type="curve" smooth="yes"/>
      <point x="317" y="432"/>
      <point x="338" y="404"/>
    </contour>
    <contour>
      <point x="338" y="302" type="curve"/>
      <point x="338" y="217"/>
      <point x="338" y="132"/>
      <point x="338" y="46" type="curve"/>
      <point x="338" y="46"/>
      <point x="297" y="42"/>
      <point x="232" y="38" type="curve" smooth="yes"/>
      <point x="99" y="33"/>
      <point x="65" y="80"/>
      <point x="65" y="175" type="curve" smooth="yes"/>
      <point x="65" y="195"/>
      <point x="65" y="226"/>
      <point x="65" y="249" type="curve" smooth="yes"/>
      <point x="65" y="339"/>
      <point x="122" y="354"/>
      <point x="158" y="354" type="curve" smooth="yes"/>
      <point x="222" y="354"/>
      <point x="283" y="329"/>
    </contour>
    <contour>
      <point x="131" y="628" type="curve"/>
      <point x="184" y="550" type="line"/>
      <point x="219" y="550" type="line"/>
      <point x="182" y="657" type="line" smooth="yes"/>
      <point x="175" y="675"/>
      <point x="155" y="686"/>
      <point x="137" y="676" type="curve" smooth="yes"/>
      <point x="120" y="667"/>
      <point x="118" y="643"/>
    </contour>
  </outline>
</glyph>
<glyph name="aacute" format="1">
  <advance width="409"/>
  <unicode hex="00E1"/>
  <outline>
    <contour>
      <point x="337" y="349" type="curve"/>
      <point x="290" y="375"/>
      <point x="227" y="402"/>
      <point x="162" y="402" type="curve" smooth="yes"/>
      <point x="81" y="402"/>
      <point x="9" y="363"/>
      <point x="9" y="251" type="curve" smooth="yes"/>
      <point x="9" y="223"/>
      <point x="9" y="196"/>
      <point x="9" y="168" type="curve" smooth="yes"/>
      <point x="9" y="21"/>
      <point x="107" y="-14"/>
      <point x="235" y="-10" type="curve" smooth="yes"/>
      <point x="285" y="-9"/>
      <point x="393" y="0"/>
      <point x="393" y="0" type="curve"/>
      <point x="393" y="96"/>
      <point x="393" y="191"/>
      <point x="393" y="287" type="curve" smooth="yes"/>
      <point x="393" y="375"/>
      <point x="385" y="444"/>
      <point x="322" y="480" type="curve" smooth="yes"/>
      <point x="280" y="504"/>
      <point x="231" y="507"/>
      <point x="185" y="507" type="curve"/>
      <point x="183" y="464" type="line"/>
      <point x="220" y="464"/>
      <point x="254" y="461"/>
      <point x="279" y="449" type="curve" smooth="yes"/>
      <point x="316" y="432"/>
      <point x="337" y="404"/>
    </contour>
    <contour>
      <point x="337" y="302" type="curve"/>
      <point x="337" y="217"/>
      <point x="337" y="132"/>
      <point x="337" y="46" type="curve"/>
      <point x="337" y="46"/>
      <point x="296" y="42"/>
      <point x="231" y="38" type="curve" smooth="yes"/>
      <point x="98" y="33"/>
      <point x="64" y="80"/>
      <point x="64" y="175" type="curve" smooth="yes"/>
      <point x="64" y="195"/>
      <point x="64" y="226"/>
      <point x="64" y="249" type="curve" smooth="yes"/>
      <point x="64" y="339"/>
      <point x="121" y="354"/>
      <point x="157" y="354" type="curve" smooth="yes"/>
      <point x="221" y="354"/>
      <point x="282" y="329"/>
    </contour>
    <contour>
      <point x="227" y="654" type="curve" smooth="yes"/>
      <point x="189" y="548" type="line"/>
      <point x="224" y="548" type="line"/>
      <point x="277" y="627" type="line"/>
      <point x="290" y="641"/>
      <point x="288" y="664"/>
      <point x="271" y="674" type="curve" smooth="yes"/>
      <point x="253" y="684"/>
      <point x="233" y="673"/>
    </contour>
  </outline>
</glyph>
<glyph name="acircumflex" format="1">
  <advance width="411"/>
  <unicode hex="00E2"/>
  <outline>
    <contour>
      <point x="339" y="349" type="curve"/>
      <point x="293" y="375"/>
      <point x="229" y="402"/>
      <point x="164" y="402" type="curve" smooth="yes"/>
      <point x="84" y="402"/>
      <point x="11" y="363"/>
      <point x="11" y="251" type="curve" smooth="yes"/>
      <point x="11" y="223"/>
      <point x="11" y="196"/>
      <point x="11" y="168" type="curve" smooth="yes"/>
      <point x="11" y="21"/>
      <point x="109" y="-14"/>
      <point x="238" y="-10" type="curve" smooth="yes"/>
      <point x="287" y="-9"/>
      <point x="395" y="0"/>
      <point x="395" y="0" type="curve"/>
      <point x="395" y="96"/>
      <point x="395" y="191"/>
      <point x="395" y="287" type="curve" smooth="yes"/>
      <point x="395" y="375"/>
      <point x="387" y="444"/>
      <point x="324" y="480" type="curve" smooth="yes"/>
      <point x="283" y="504"/>
      <point x="233" y="507"/>
      <point x="187" y="507" type="curve"/>
      <point x="185" y="464" type="line"/>
      <point x="222" y="464"/>
      <point x="256" y="461"/>
      <point x="282" y="449" type="curve" smooth="yes"/>
      <point x="318" y="432"/>
      <point x="339" y="404"/>
    </contour>
    <contour>
      <point x="339" y="302" type="curve"/>
      <point x="339" y="217"/>
      <point x="339" y="132"/>
      <point x="339" y="46" type="curve"/>
      <point x="339" y="46"/>
      <point x="298" y="42"/>
      <point x="233" y="38" type="curve" smooth="yes"/>
      <point x="100" y="33"/>
      <point x="66" y="80"/>
      <point x="66" y="175" type="curve" smooth="yes"/>
      <point x="66" y="195"/>
      <point x="66" y="226"/>
      <point x="66" y="249" type="curve" smooth="yes"/>
      <point x="66" y="339"/>
      <point x="123" y="354"/>
      <point x="159" y="354" type="curve" smooth="yes"/>
      <point x="223" y="354"/>
      <point x="284" y="329"/>
    </contour>
    <contour>
      <point x="205" y="636" type="line"/>
      <point x="294" y="548" type="line"/>
      <point x="333" y="585" type="line"/>
      <point x="205" y="712" type="line"/>
      <point x="74" y="584" type="line"/>
      <point x="112" y="546" type="line"/>
    </contour>
  </outline>
</glyph>
<glyph name="atilde" format="1">
  <advance width="413"/>
  <unicode hex="00E3"/>
  <outline>
    <contour>
      <point x="339" y="349" type="curve"/>
      <point x="293" y="375"/>
      <point x="229" y="402"/>
      <point x="164" y="402" type="curve" smooth="yes"/>
      <point x="84" y="402"/>
      <point x="11" y="363"/>
      <point x="11" y="251" type="curve" smooth="yes"/>
      <point x="11" y="223"/>
      <point x="11" y="196"/>
      <point x="11" y="168" type="curve" smooth="yes"/>
      <point x="11" y="21"/>
      <point x="109" y="-14"/>
      <point x="238" y="-10" type="curve" smooth="yes"/>
      <point x="287" y="-9"/>
      <point x="395" y="0"/>
      <point x="395" y="0" type="curve"/>
      <point x="395" y="96"/>
      <point x="395" y="191"/>
      <point x="395" y="287" type="curve" smooth="yes"/>
      <point x="395" y="375"/>
      <point x="387" y="444"/>
      <point x="324" y="480" type="curve" smooth="yes"/>
      <point x="283" y="504"/>
      <point x="233" y="507"/>
      <point x="187" y="507" type="curve"/>
      <point x="185" y="464" type="line"/>
      <point x="222" y="464"/>
      <point x="256" y="461"/>
      <point x="282" y="449" type="curve" smooth="yes"/>
      <point x="318" y="432"/>
      <point x="339" y="404"/>
    </contour>
    <contour>
      <point x="339" y="302" type="curve"/>
      <point x="339" y="217"/>
      <point x="339" y="132"/>
      <point x="339" y="46" type="curve"/>
      <point x="339" y="46"/>
      <point x="298" y="42"/>
      <point x="233" y="38" type="curve" smooth="yes"/>
      <point x="100" y="33"/>
      <point x="66" y="80"/>
      <point x="66" y="175" type="curve" smooth="yes"/>
      <point x="66" y="195"/>
      <point x="66" y="226"/>
      <point x="66" y="249" type="curve" smooth="yes"/>
      <point x="66" y="339"/>
      <point x="123" y="354"/>
      <point x="159" y="354" type="curve" smooth="yes"/>
      <point x="223" y="354"/>
      <point x="284" y="329"/>
    </contour>
    <contour>
      <point x="333" y="583" type="curve"/>
      <point x="312" y="630" type="line"/>
      <point x="299" y="619"/>
      <point x="278" y="610"/>
      <point x="260" y="610" type="curve" smooth="yes"/>
      <point x="246" y="610"/>
      <point x="200" y="636"/>
      <point x="152" y="636" type="curve" smooth="yes"/>
      <point x="124" y="636"/>
      <point x="97" y="628"/>
      <point x="74" y="604" type="curve"/>
      <point x="96" y="558" type="line"/>
      <point x="110" y="570"/>
      <point x="122" y="576"/>
      <point x="141" y="577" type="curve" smooth="yes"/>
      <point x="172" y="580"/>
      <point x="216" y="553"/>
      <point x="262" y="553" type="curve" smooth="yes"/>
      <point x="286" y="553"/>
      <point x="310" y="561"/>
    </contour>
  </outline>
</glyph>
<glyph name="aring" format="1">
  <advance width="411"/>
  <unicode hex="00E5"/>
  <outline>
    <contour>
      <point x="339" y="349" type="curve"/>
      <point x="293" y="375"/>
      <point x="229" y="402"/>
      <point x="164" y="402" type="curve" smooth="yes"/>
      <point x="84" y="402"/>
      <point x="11" y="363"/>
      <point x="11" y="251" type="curve" smooth="yes"/>
      <point x="11" y="223"/>
      <point x="11" y="196"/>
      <point x="11" y="168" type="curve" smooth="yes"/>
      <point x="11" y="21"/>
      <point x="109" y="-14"/>
      <point x="238" y="-10" type="curve" smooth="yes"/>
      <point x="287" y="-9"/>
      <point x="395" y="0"/>
      <point x="395" y="0" type="curve"/>
      <point x="395" y="96"/>
      <point x="395" y="191"/>
      <point x="395" y="287" type="curve" smooth="yes"/>
      <point x="395" y="375"/>
      <point x="387" y="444"/>
      <point x="324" y="480" type="curve" smooth="yes"/>
      <point x="283" y="504"/>
      <point x="233" y="507"/>
      <point x="187" y="507" type="curve"/>
      <point x="185" y="464" type="line"/>
      <point x="222" y="464"/>
      <point x="256" y="461"/>
      <point x="282" y="449" type="curve" smooth="yes"/>
      <point x="318" y="432"/>
      <point x="339" y="404"/>
    </contour>
    <contour>
      <point x="339" y="302" type="curve"/>
      <point x="339" y="217"/>
      <point x="339" y="132"/>
      <point x="339" y="46" type="curve"/>
      <point x="339" y="46"/>
      <point x="298" y="42"/>
      <point x="233" y="38" type="curve" smooth="yes"/>
      <point x="100" y="33"/>
      <point x="66" y="80"/>
      <point x="66" y="175" type="curve" smooth="yes"/>
      <point x="66" y="195"/>
      <point x="66" y="226"/>
      <point x="66" y="249" type="curve" smooth="yes"/>
      <point x="66" y="339"/>
      <point x="123" y="354"/>
      <point x="159" y="354" type="curve" smooth="yes"/>
      <point x="223" y="354"/>
      <point x="284" y="329"/>
    </contour>
    <contour>
      <point x="189" y="465" type="curve" smooth="yes"/>
      <point x="253" y="465"/>
      <point x="304" y="517"/>
      <point x="304" y="580" type="curve" smooth="yes"/>
      <point x="304" y="642"/>
      <point x="253" y="693"/>
      <point x="189" y="693" type="curve" smooth="yes"/>
      <point x="127" y="693"/>
      <point x="76" y="642"/>
      <point x="76" y="580" type="curve" smooth="yes"/>
      <point x="76" y="517"/>
      <point x="127" y="465"/>
    </contour>
    <contour>
      <point x="260" y="580" type="curve" smooth="yes"/>
      <point x="260" y="541"/>
      <point x="228" y="509"/>
      <point x="189" y="509" type="curve" smooth="yes"/>
      <point x="151" y="509"/>
      <point x="120" y="541"/>
      <point x="120" y="580" type="curve" smooth="yes"/>
      <point x="120" y="618"/>
      <point x="151" y="649"/>
      <point x="189" y="649" type="curve" smooth="yes"/>
      <point x="228" y="649"/>
      <point x="260" y="618"/>
    </contour>
  </outline>
</glyph>
<glyph name="ae" format="1">
  <advance width="713"/>
  <unicode hex="00E6"/>
  <outline>
    <contour>
      <point x="396" y="133" type="curve" smooth="yes"/>
      <point x="396" y="195" type="line"/>
      <point x="700" y="211" type="line"/>
      <point x="700" y="341" type="line" smooth="yes"/>
      <point x="700" y="449"/>
      <point x="631" y="508"/>
      <point x="524" y="508" type="curve" smooth="yes"/>
      <point x="452" y="508"/>
      <point x="399" y="484"/>
      <point x="366" y="437" type="curve"/>
      <point x="329" y="498"/>
      <point x="249" y="507"/>
      <point x="185" y="507" type="curve"/>
      <point x="184" y="493"/>
      <point x="184" y="479"/>
      <point x="183" y="464" type="curve"/>
      <point x="273" y="464"/>
      <point x="337" y="442"/>
      <point x="337" y="349" type="curve"/>
      <point x="290" y="375"/>
      <point x="227" y="402"/>
      <point x="162" y="402" type="curve" smooth="yes"/>
      <point x="81" y="402"/>
      <point x="9" y="363"/>
      <point x="9" y="251" type="curve" smooth="yes"/>
      <point x="9" y="168" type="line" smooth="yes"/>
      <point x="9" y="40"/>
      <point x="85" y="-4"/>
      <point x="189" y="-10" type="curve" smooth="yes"/>
      <point x="212" y="-11"/>
      <point x="381" y="-3"/>
      <point x="393" y="0" type="curve"/>
      <point x="393" y="14" type="line"/>
      <point x="431" y="-11"/>
      <point x="482" y="-12"/>
      <point x="512" y="-12" type="curve" smooth="yes"/>
      <point x="562" y="-11"/>
      <point x="624" y="4"/>
      <point x="674" y="35" type="curve"/>
      <point x="652" y="78" type="line"/>
      <point x="602" y="51"/>
      <point x="560" y="36"/>
      <point x="507" y="36" type="curve" smooth="yes"/>
      <point x="475" y="36"/>
      <point x="396" y="38"/>
    </contour>
    <contour>
      <point x="337" y="302" type="curve"/>
      <point x="337" y="46" type="line"/>
      <point x="337" y="46"/>
      <point x="296" y="42"/>
      <point x="231" y="38" type="curve" smooth="yes"/>
      <point x="98" y="33"/>
      <point x="64" y="80"/>
      <point x="64" y="175" type="curve" smooth="yes"/>
      <point x="64" y="249" type="line" smooth="yes"/>
      <point x="64" y="339"/>
      <point x="121" y="354"/>
      <point x="157" y="354" type="curve" smooth="yes"/>
      <point x="221" y="354"/>
      <point x="282" y="329"/>
    </contour>
    <contour>
      <point x="643" y="348" type="curve" smooth="yes"/>
      <point x="643" y="261" type="line"/>
      <point x="396" y="250" type="line"/>
      <point x="396" y="308" type="line" smooth="yes"/>
      <point x="396" y="414"/>
      <point x="435" y="461"/>
      <point x="522" y="461" type="curve" smooth="yes"/>
      <point x="565" y="461"/>
      <point x="643" y="439"/>
    </contour>
  </outline>
</glyph>
<glyph name="ccedilla" format="1">
  <advance width="344"/>
  <unicode hex="00E7"/>
  <outline>
    <contour>
      <point x="315" y="430" type="curve"/>
      <point x="330" y="476" type="line"/>
      <point x="273" y="503"/>
      <point x="206" y="516"/>
      <point x="148" y="504" type="curve" smooth="yes"/>
      <point x="103" y="494"/>
      <point x="65" y="470"/>
      <point x="38" y="426" type="curve" smooth="yes"/>
      <point x="20" y="394"/>
      <point x="13" y="362"/>
      <point x="11" y="318" type="curve"/>
      <point x="11" y="173" type="line" smooth="yes"/>
      <point x="11" y="75"/>
      <point x="55" y="23"/>
      <point x="123" y="1" type="curve" smooth="yes"/>
      <point x="183" y="-18"/>
      <point x="265" y="-13"/>
      <point x="332" y="5" type="curve"/>
      <point x="321" y="55" type="line"/>
      <point x="321" y="55"/>
      <point x="199" y="26"/>
      <point x="135" y="52" type="curve" smooth="yes"/>
      <point x="82" y="71"/>
      <point x="66" y="119"/>
      <point x="66" y="185" type="curve" smooth="yes"/>
      <point x="66" y="305" type="line" smooth="yes"/>
      <point x="66" y="340"/>
      <point x="73" y="371"/>
      <point x="85" y="394" type="curve" smooth="yes"/>
      <point x="101" y="426"/>
      <point x="127" y="446"/>
      <point x="157" y="453" type="curve" smooth="yes"/>
      <point x="200" y="464"/>
      <point x="267" y="452"/>
    </contour>
    <contour>
      <point x="191" y="-39" type="curve" smooth="yes"/>
      <point x="183" y="-40"/>
      <point x="174" y="-40"/>
      <point x="165" y="-41" type="curve"/>
      <point x="191" y="3" type="line"/>
      <point x="142" y="3" type="line"/>
      <point x="101" y="-65" type="line"/>
      <point x="116" y="-95" type="line"/>
      <point x="142" y="-92"/>
      <point x="167" y="-88"/>
      <point x="189" y="-88" type="curve" smooth="yes"/>
      <point x="223" y="-87"/>
      <point x="248" y="-95"/>
      <point x="248" y="-129" type="curve" smooth="yes"/>
      <point x="248" y="-169"/>
      <point x="216" y="-180"/>
      <point x="176" y="-180" type="curve" smooth="yes"/>
      <point x="150" y="-180"/>
      <point x="120" y="-175"/>
      <point x="92" y="-168" type="curve"/>
      <point x="86" y="-198"/>
      <point x="88" y="-189"/>
      <point x="81" y="-217" type="curve"/>
      <point x="84" y="-218"/>
      <point x="135" y="-230"/>
      <point x="183" y="-230" type="curve" smooth="yes"/>
      <point x="262" y="-230"/>
      <point x="297" y="-180"/>
      <point x="297" y="-132" type="curve" smooth="yes"/>
      <point x="297" y="-81"/>
      <point x="258" y="-31"/>
    </contour>
  </outline>
</glyph>
<glyph name="edieresis" format="1">
  <advance width="388"/>
  <unicode hex="00EB"/>
  <outline>
    <contour>
      <point x="70" y="133" type="curve" smooth="yes"/>
      <point x="70" y="195" type="line"/>
      <point x="374" y="211" type="line"/>
      <point x="374" y="341" type="line" smooth="yes"/>
      <point x="374" y="392"/>
      <point x="359" y="432"/>
      <point x="331" y="461" type="curve" smooth="yes"/>
      <point x="300" y="492"/>
      <point x="255" y="508"/>
      <point x="198" y="508" type="curve" smooth="yes"/>
      <point x="148" y="508"/>
      <point x="107" y="496"/>
      <point x="76" y="473" type="curve" smooth="yes"/>
      <point x="37" y="444"/>
      <point x="14" y="398"/>
      <point x="14" y="338" type="curve" smooth="yes"/>
      <point x="14" y="133" type="line" smooth="yes"/>
      <point x="14" y="80"/>
      <point x="31" y="46"/>
      <point x="55" y="24" type="curve" smooth="yes"/>
      <point x="96" y="-13"/>
      <point x="156" y="-12"/>
      <point x="186" y="-12" type="curve" smooth="yes"/>
      <point x="237" y="-11"/>
      <point x="298" y="4"/>
      <point x="349" y="35" type="curve"/>
      <point x="327" y="78" type="line"/>
      <point x="276" y="51"/>
      <point x="230" y="36"/>
      <point x="182" y="36" type="curve" smooth="yes"/>
      <point x="162" y="36"/>
      <point x="121" y="36"/>
      <point x="96" y="63" type="curve"/>
      <point x="80" y="77"/>
      <point x="70" y="99"/>
    </contour>
    <contour>
      <point x="318" y="348" type="curve" smooth="yes"/>
      <point x="318" y="319"/>
      <point x="318" y="289"/>
      <point x="318" y="261" type="curve"/>
      <point x="70" y="250" type="line"/>
      <point x="70" y="278"/>
      <point x="70" y="308"/>
      <point x="70" y="337" type="curve" smooth="yes"/>
      <point x="70" y="378"/>
      <point x="82" y="408"/>
      <point x="105" y="429" type="curve" smooth="yes"/>
      <point x="128" y="450"/>
      <point x="159" y="461"/>
      <point x="197" y="461" type="curve" smooth="yes"/>
      <point x="230" y="461"/>
      <point x="264" y="454"/>
      <point x="295" y="418" type="curve" smooth="yes"/>
      <point x="310" y="399"/>
      <point x="318" y="377"/>
    </contour>
    <contour>
      <point x="273" y="641" type="curve" smooth="yes"/>
      <point x="254" y="641"/>
      <point x="240" y="626"/>
      <point x="240" y="607" type="curve" smooth="yes"/>
      <point x="240" y="588"/>
      <point x="254" y="574"/>
      <point x="273" y="574" type="curve" smooth="yes"/>
      <point x="291" y="574"/>
      <point x="307" y="588"/>
      <point x="307" y="607" type="curve" smooth="yes"/>
      <point x="307" y="626"/>
      <point x="291" y="641"/>
    </contour>
    <contour>
      <point x="116" y="641" type="curve" smooth="yes"/>
      <point x="97" y="641"/>
      <point x="81" y="626"/>
      <point x="81" y="607" type="curve" smooth="yes"/>
      <point x="81" y="588"/>
      <point x="97" y="574"/>
      <point x="116" y="574" type="curve" smooth="yes"/>
      <point x="133" y="574"/>
      <point x="148" y="588"/>
      <point x="148" y="607" type="curve" smooth="yes"/>
      <point x="148" y="626"/>
      <point x="133" y="641"/>
    </contour>
  </outline>
</glyph>
<glyph name="igrave" format="1">
  <advance width="140"/>
  <unicode hex="00EC"/>
  <outline>
    <contour>
      <point x="120" y="499" type="line"/>
      <point x="65" y="499" type="line"/>
      <point x="65" y="0" type="line"/>
      <point x="120" y="0" type="line"/>
    </contour>
    <contour>
      <point x="15" y="623" type="curve"/>
      <point x="68" y="543" type="line"/>
      <point x="103" y="543" type="line"/>
      <point x="66" y="651" type="line" smooth="yes"/>
      <point x="59" y="669"/>
      <point x="40" y="680"/>
      <point x="22" y="671" type="curve" smooth="yes"/>
      <point x="4" y="661"/>
      <point x="2" y="638"/>
    </contour>
  </outline>
</glyph>
<glyph name="iacute" format="1">
  <advance width="139"/>
  <unicode hex="00ED"/>
  <outline>
    <contour>
      <point x="76" y="499" type="line"/>
      <point x="20" y="499" type="line"/>
      <point x="20" y="0" type="line"/>
      <point x="76" y="0" type="line"/>
    </contour>
    <contour>
      <point x="70" y="651" type="curve" smooth="yes"/>
      <point x="32" y="543" type="line"/>
      <point x="68" y="543" type="line"/>
      <point x="121" y="623" type="line"/>
      <point x="133" y="638"/>
      <point x="132" y="661"/>
      <point x="114" y="671" type="curve" smooth="yes"/>
      <point x="97" y="680"/>
      <point x="76" y="669"/>
    </contour>
  </outline>
</glyph>
<glyph name="icircumflex" format="1">
  <advance width="256"/>
  <unicode hex="00EE"/>
  <outline>
    <contour>
      <point x="154" y="499" type="line"/>
      <point x="98" y="499" type="line"/>
      <point x="98" y="0" type="line"/>
      <point x="154" y="0" type="line"/>
    </contour>
    <contour>
      <point x="128" y="634" type="line"/>
      <point x="217" y="546" type="line"/>
      <point x="256" y="583" type="line"/>
      <point x="128" y="708" type="line"/>
      <point x="-3" y="582" type="line"/>
      <point x="35" y="543" type="line"/>
    </contour>
  </outline>
</glyph>
<glyph name="idieresis" format="1">
  <advance width="230"/>
  <unicode hex="00EF"/>
  <outline>
    <contour>
      <point x="141" y="499" type="line"/>
      <point x="85" y="499" type="line"/>
      <point x="85" y="0" type="line"/>
      <point x="141" y="0" type="line"/>
    </contour>
    <contour>
      <point x="226" y="603" type="curve" smooth="yes"/>
      <point x="226" y="620"/>
      <point x="210" y="636"/>
      <point x="191" y="636" type="curve" smooth="yes"/>
      <point x="173" y="636"/>
      <point x="158" y="620"/>
      <point x="158" y="603" type="curve" smooth="yes"/>
      <point x="158" y="584"/>
      <point x="173" y="569"/>
      <point x="191" y="569" type="curve" smooth="yes"/>
      <point x="210" y="569"/>
      <point x="226" y="584"/>
    </contour>
    <contour>
      <point x="67" y="603" type="curve" smooth="yes"/>
      <point x="67" y="620"/>
      <point x="52" y="636"/>
      <point x="34" y="636" type="curve" smooth="yes"/>
      <point x="15" y="636"/>
      <point x="0" y="620"/>
      <point x="0" y="603" type="curve" smooth="yes"/>
      <point x="0" y="584"/>
      <point x="15" y="569"/>
      <point x="34" y="569" type="curve" smooth="yes"/>
      <point x="52" y="569"/>
      <point x="67" y="584"/>
    </contour>
  </outline>
</glyph>
<glyph name="ntilde" format="1">
  <advance width="405"/>
  <unicode hex="00F1"/>
  <outline>
    <contour>
      <point x="332" y="342" type="curve" smooth="yes"/>
      <point x="332" y="0" type="line"/>
      <point x="387" y="0" type="line"/>
      <point x="387" y="345" type="line" smooth="yes"/>
      <point x="387" y="450"/>
      <point x="323" y="508"/>
      <point x="213" y="508" type="curve" smooth="yes"/>
      <point x="164" y="508"/>
      <point x="113" y="492"/>
      <point x="75" y="465" type="curve"/>
      <point x="75" y="499" type="line"/>
      <point x="19" y="499" type="line"/>
      <point x="19" y="0" type="line"/>
      <point x="75" y="0" type="line"/>
      <point x="75" y="424" type="line"/>
      <point x="116" y="447"/>
      <point x="157" y="458"/>
      <point x="202" y="458" type="curve" smooth="yes"/>
      <point x="265" y="458"/>
      <point x="332" y="432"/>
    </contour>
    <contour>
      <point x="332" y="581" type="curve"/>
      <point x="312" y="628" type="line"/>
      <point x="299" y="617"/>
      <point x="278" y="607"/>
      <point x="260" y="608" type="curve"/>
      <point x="245" y="607"/>
      <point x="199" y="634"/>
      <point x="151" y="634" type="curve" smooth="yes"/>
      <point x="124" y="634"/>
      <point x="96" y="626"/>
      <point x="73" y="602" type="curve"/>
      <point x="96" y="555" type="line"/>
      <point x="110" y="566"/>
      <point x="121" y="574"/>
      <point x="141" y="575" type="curve" smooth="yes"/>
      <point x="172" y="577"/>
      <point x="216" y="551"/>
      <point x="261" y="551" type="curve" smooth="yes"/>
      <point x="285" y="551"/>
      <point x="309" y="558"/>
    </contour>
  </outline>
</glyph>
<glyph name="ocircumflex" format="1">
  <advance width="395"/>
  <unicode hex="00F4"/>
  <outline>
    <contour>
      <point x="381" y="184" type="curve" smooth="yes"/>
      <point x="381" y="315" type="line" smooth="yes"/>
      <point x="381" y="436"/>
      <point x="317" y="510"/>
      <point x="198" y="510" type="curve" smooth="yes"/>
      <point x="79" y="510"/>
      <point x="12" y="442"/>
      <point x="12" y="315" type="curve" smooth="yes"/>
      <point x="12" y="184" type="line" smooth="yes"/>
      <point x="12" y="75"/>
      <point x="76" y="-10"/>
      <point x="200" y="-10" type="curve" smooth="yes"/>
      <point x="323" y="-10"/>
      <point x="381" y="71"/>
    </contour>
    <contour>
      <point x="324" y="315" type="curve" smooth="yes"/>
      <point x="324" y="174" type="line" smooth="yes"/>
      <point x="324" y="92"/>
      <point x="283" y="40"/>
      <point x="200" y="40" type="curve" smooth="yes"/>
      <point x="119" y="40"/>
      <point x="68" y="94"/>
      <point x="68" y="174" type="curve" smooth="yes"/>
      <point x="68" y="315" type="line" smooth="yes"/>
      <point x="68" y="411"/>
      <point x="112" y="460"/>
      <point x="200" y="460" type="curve" smooth="yes"/>
      <point x="286" y="460"/>
      <point x="324" y="411"/>
    </contour>
    <contour>
      <point x="204" y="642" type="line"/>
      <point x="308" y="538" type="line"/>
      <point x="346" y="577" type="line"/>
      <point x="205" y="718" type="line"/>
      <point x="57" y="577" type="line"/>
      <point x="95" y="538" type="line"/>
    </contour>
  </outline>
</glyph>
<glyph name="otilde" format="1">
  <advance width="395"/>
  <unicode hex="00F5"/>
  <outline>
    <contour>
      <point x="381" y="184" type="curve" smooth="yes"/>
      <point x="381" y="315" type="line" smooth="yes"/>
      <point x="381" y="436"/>
      <point x="317" y="510"/>
      <point x="198" y="510" type="curve" smooth="yes"/>
      <point x="79" y="510"/>
      <point x="12" y="442"/>
      <point x="12" y="315" type="curve" smooth="yes"/>
      <point x="12" y="184" type="line" smooth="yes"/>
      <point x="12" y="75"/>
      <point x="76" y="-10"/>
      <point x="200" y="-10" type="curve" smooth="yes"/>
      <point x="323" y="-10"/>
      <point x="381" y="71"/>
    </contour>
    <contour>
      <point x="324" y="315" type="curve" smooth="yes"/>
      <point x="324" y="174" type="line" smooth="yes"/>
      <point x="324" y="92"/>
      <point x="283" y="40"/>
      <point x="200" y="40" type="curve" smooth="yes"/>
      <point x="119" y="40"/>
      <point x="68" y="94"/>
      <point x="68" y="174" type="curve" smooth="yes"/>
      <point x="68" y="315" type="line" smooth="yes"/>
      <point x="68" y="411"/>
      <point x="112" y="460"/>
      <point x="200" y="460" type="curve" smooth="yes"/>
      <point x="286" y="460"/>
      <point x="324" y="411"/>
    </contour>
    <contour>
      <point x="327" y="581" type="curve"/>
      <point x="306" y="628" type="line"/>
      <point x="293" y="617"/>
      <point x="272" y="608"/>
      <point x="253" y="608" type="curve" smooth="yes"/>
      <point x="240" y="608"/>
      <point x="194" y="634"/>
      <point x="145" y="634" type="curve" smooth="yes"/>
      <point x="118" y="634"/>
      <point x="90" y="626"/>
      <point x="67" y="602" type="curve"/>
      <point x="89" y="555" type="line"/>
      <point x="103" y="566"/>
      <point x="116" y="574"/>
      <point x="135" y="575" type="curve" smooth="yes"/>
      <point x="165" y="577"/>
      <point x="209" y="551"/>
      <point x="255" y="551" type="curve" smooth="yes"/>
      <point x="279" y="551"/>
      <point x="304" y="559"/>
    </contour>
  </outline>
</glyph>
<glyph name="odieresis" format="1">
  <advance width="395"/>
  <unicode hex="00F6"/>
  <outline>
    <contour>
      <point x="381" y="184" type="curve" smooth="yes"/>
      <point x="381" y="315" type="line" smooth="yes"/>
      <point x="381" y="436"/>
      <point x="317" y="510"/>
      <point x="198" y="510" type="curve" smooth="yes"/>
      <point x="79" y="510"/>
      <point x="12" y="442"/>
      <point x="12" y="315" type="curve" smooth="yes"/>
      <point x="12" y="184" type="line" smooth="yes"/>
      <point x="12" y="75"/>
      <point x="76" y="-10"/>
      <point x="200" y="-10" type="curve" smooth="yes"/>
      <point x="323" y="-10"/>
      <point x="381" y="71"/>
    </contour>
    <contour>
      <point x="324" y="315" type="curve" smooth="yes"/>
      <point x="324" y="174" type="line" smooth="yes"/>
      <point x="324" y="92"/>
      <point x="283" y="40"/>
      <point x="200" y="40" type="curve" smooth="yes"/>
      <point x="119" y="40"/>
      <point x="68" y="94"/>
      <point x="68" y="174" type="curve" smooth="yes"/>
      <point x="68" y="315" type="line" smooth="yes"/>
      <point x="68" y="411"/>
      <point x="112" y="460"/>
      <point x="200" y="460" type="curve" smooth="yes"/>
      <point x="286" y="460"/>
      <point x="324" y="411"/>
    </contour>
    <contour>
      <point x="305" y="606" type="curve" smooth="yes"/>
      <point x="305" y="625"/>
      <point x="290" y="639"/>
      <point x="272" y="639" type="curve" smooth="yes"/>
      <point x="253" y="639"/>
      <point x="238" y="625"/>
      <point x="238" y="606" type="curve" smooth="yes"/>
      <point x="238" y="587"/>
      <point x="253" y="572"/>
      <point x="272" y="572" type="curve" smooth="yes"/>
      <point x="290" y="572"/>
      <point x="305" y="587"/>
    </contour>
    <contour>
      <point x="147" y="606" type="curve" smooth="yes"/>
      <point x="147" y="625"/>
      <point x="132" y="639"/>
      <point x="113" y="639" type="curve" smooth="yes"/>
      <point x="96" y="639"/>
      <point x="80" y="625"/>
      <point x="80" y="606" type="curve" smooth="yes"/>
      <point x="80" y="587"/>
      <point x="96" y="572"/>
      <point x="113" y="572" type="curve" smooth="yes"/>
      <point x="132" y="572"/>
      <point x="147" y="587"/>
    </contour>
  </outline>
</glyph>
<glyph name="divide" format="1">
  <advance width="355"/>
  <unicode hex="00F7"/>
  <outline>
    <contour>
      <point x="337" y="409" type="line"/>
      <point x="18" y="409" type="line"/>
      <point x="18" y="355" type="line"/>
      <point x="337" y="355" type="line"/>
    </contour>
    <contour>
      <point x="178" y="544" type="curve" smooth="yes"/>
      <point x="159" y="544"/>
      <point x="145" y="529"/>
      <point x="145" y="510" type="curve" smooth="yes"/>
      <point x="145" y="492"/>
      <point x="159" y="477"/>
      <point x="178" y="477" type="curve" smooth="yes"/>
      <point x="197" y="477"/>
      <point x="212" y="492"/>
      <point x="212" y="510" type="curve" smooth="yes"/>
      <point x="212" y="529"/>
      <point x="197" y="544"/>
    </contour>
    <contour>
      <point x="178" y="287" type="curve" smooth="yes"/>
      <point x="159" y="287"/>
      <point x="145" y="273"/>
      <point x="145" y="254" type="curve" smooth="yes"/>
      <point x="145" y="235"/>
      <point x="159" y="221"/>
      <point x="178" y="221" type="curve" smooth="yes"/>
      <point x="197" y="221"/>
      <point x="212" y="235"/>
      <point x="212" y="254" type="curve" smooth="yes"/>
      <point x="212" y="273"/>
      <point x="197" y="287"/>
    </contour>
  </outline>
</glyph>
<glyph name="oslash" format="1">
  <advance width="395"/>
  <unicode hex="00F8"/>
  <outline>
    <contour>
      <point x="380" y="184" type="curve" smooth="yes"/>
      <point x="380" y="315" type="line" smooth="yes"/>
      <point x="380" y="381"/>
      <point x="360" y="432"/>
      <point x="323" y="466" type="curve"/>
      <point x="375" y="585" type="line"/>
      <point x="317" y="585" type="line"/>
      <point x="277" y="495" type="line"/>
      <point x="254" y="505"/>
      <point x="228" y="510"/>
      <point x="197" y="510" type="curve" smooth="yes"/>
      <point x="78" y="510"/>
      <point x="11" y="442"/>
      <point x="11" y="315" type="curve" smooth="yes"/>
      <point x="11" y="184" type="line" smooth="yes"/>
      <point x="11" y="119"/>
      <point x="33" y="64"/>
      <point x="77" y="29" type="curve"/>
      <point x="36" y="-66" type="line"/>
      <point x="92" y="-66" type="line"/>
      <point x="122" y="2" type="line"/>
      <point x="144" y="-6"/>
      <point x="169" y="-10"/>
      <point x="199" y="-10" type="curve" smooth="yes"/>
      <point x="322" y="-10"/>
      <point x="380" y="71"/>
    </contour>
    <contour>
      <point x="67" y="174" type="curve" smooth="yes"/>
      <point x="67" y="315" type="line" smooth="yes"/>
      <point x="67" y="411"/>
      <point x="111" y="460"/>
      <point x="199" y="460" type="curve" smooth="yes"/>
      <point x="222" y="460"/>
      <point x="241" y="457"/>
      <point x="257" y="449" type="curve"/>
      <point x="99" y="80" type="line"/>
      <point x="78" y="103"/>
      <point x="67" y="135"/>
    </contour>
    <contour>
      <point x="323" y="315" type="curve" smooth="yes"/>
      <point x="323" y="174" type="line" smooth="yes"/>
      <point x="323" y="92"/>
      <point x="282" y="40"/>
      <point x="199" y="40" type="curve" smooth="yes"/>
      <point x="178" y="40"/>
      <point x="158" y="43"/>
      <point x="142" y="50" type="curve"/>
      <point x="300" y="414" type="line"/>
      <point x="316" y="389"/>
      <point x="323" y="356"/>
    </contour>
  </outline>
</glyph>
<glyph name="ugrave" format="1">
  <advance width="402"/>
  <unicode hex="00F9"/>
  <outline>
    <contour>
      <point x="328" y="48" type="curve"/>
      <point x="328" y="0" type="line"/>
      <point x="384" y="0" type="line"/>
      <point x="384" y="499" type="line"/>
      <point x="328" y="499" type="line"/>
      <point x="328" y="172" type="line" smooth="yes"/>
      <point x="328" y="101"/>
      <point x="272" y="44"/>
      <point x="201" y="44" type="curve" smooth="yes"/>
      <point x="137" y="44"/>
      <point x="71" y="68"/>
      <point x="71" y="159" type="curve" smooth="yes"/>
      <point x="71" y="499" type="line"/>
      <point x="15" y="499" type="line"/>
      <point x="15" y="156" type="line" smooth="yes"/>
      <point x="15" y="43"/>
      <point x="78" y="-10"/>
      <point x="189" y="-10" type="curve" smooth="yes"/>
      <point x="239" y="-10"/>
      <point x="294" y="9"/>
    </contour>
    <contour>
      <point x="124" y="621" type="curve"/>
      <point x="177" y="543" type="line"/>
      <point x="212" y="543" type="line"/>
      <point x="175" y="650" type="line"/>
      <point x="169" y="669"/>
      <point x="148" y="680"/>
      <point x="131" y="670" type="curve" smooth="yes"/>
      <point x="113" y="660"/>
      <point x="112" y="637"/>
    </contour>
  </outline>
</glyph>
<glyph name="uacute" format="1">
  <advance width="402"/>
  <unicode hex="00FA"/>
  <outline>
    <contour>
      <point x="327" y="48" type="curve"/>
      <point x="327" y="0" type="line"/>
      <point x="383" y="0" type="line"/>
      <point x="383" y="499" type="line"/>
      <point x="327" y="499" type="line"/>
      <point x="327" y="172" type="line" smooth="yes"/>
      <point x="327" y="101"/>
      <point x="271" y="44"/>
      <point x="200" y="44" type="curve" smooth="yes"/>
      <point x="136" y="44"/>
      <point x="70" y="68"/>
      <point x="70" y="159" type="curve" smooth="yes"/>
      <point x="70" y="499" type="line"/>
      <point x="14" y="499" type="line"/>
      <point x="14" y="156" type="line" smooth="yes"/>
      <point x="14" y="43"/>
      <point x="77" y="-10"/>
      <point x="188" y="-10" type="curve" smooth="yes"/>
      <point x="238" y="-10"/>
      <point x="293" y="9"/>
    </contour>
    <contour>
      <point x="223" y="649" type="curve"/>
      <point x="186" y="542" type="line"/>
      <point x="221" y="542" type="line"/>
      <point x="274" y="621" type="line"/>
      <point x="286" y="636"/>
      <point x="285" y="659"/>
      <point x="267" y="669" type="curve" smooth="yes"/>
      <point x="250" y="679"/>
      <point x="229" y="668"/>
    </contour>
  </outline>
</glyph>
<glyph name="ucircumflex" format="1">
  <advance width="403"/>
  <unicode hex="00FB"/>
  <outline>
    <contour>
      <point x="328" y="48" type="curve"/>
      <point x="328" y="0" type="line"/>
      <point x="384" y="0" type="line"/>
      <point x="384" y="499" type="line"/>
      <point x="328" y="499" type="line"/>
      <point x="328" y="172" type="line" smooth="yes"/>
      <point x="328" y="101"/>
      <point x="272" y="44"/>
      <point x="201" y="44" type="curve" smooth="yes"/>
      <point x="137" y="44"/>
      <point x="71" y="68"/>
      <point x="71" y="159" type="curve" smooth="yes"/>
      <point x="71" y="499" type="line"/>
      <point x="15" y="499" type="line"/>
      <point x="15" y="156" type="line" smooth="yes"/>
      <point x="15" y="43"/>
      <point x="78" y="-10"/>
      <point x="189" y="-10" type="curve" smooth="yes"/>
      <point x="239" y="-10"/>
      <point x="294" y="9"/>
    </contour>
    <contour>
      <point x="202" y="632" type="line"/>
      <point x="291" y="544" type="line"/>
      <point x="330" y="583" type="line"/>
      <point x="202" y="708" type="line"/>
      <point x="70" y="581" type="line"/>
      <point x="109" y="543" type="line"/>
    </contour>
  </outline>
</glyph>
<glyph name="udieresis" format="1">
  <advance width="404"/>
  <unicode hex="00FC"/>
  <outline>
    <contour>
      <point x="328" y="48" type="curve"/>
      <point x="328" y="0" type="line"/>
      <point x="384" y="0" type="line"/>
      <point x="384" y="499" type="line"/>
      <point x="328" y="499" type="line"/>
      <point x="328" y="172" type="line" smooth="yes"/>
      <point x="328" y="101"/>
      <point x="272" y="44"/>
      <point x="201" y="44" type="curve" smooth="yes"/>
      <point x="137" y="44"/>
      <point x="71" y="68"/>
      <point x="71" y="159" type="curve" smooth="yes"/>
      <point x="71" y="499" type="line"/>
      <point x="15" y="499" type="line"/>
      <point x="15" y="156" type="line" smooth="yes"/>
      <point x="15" y="43"/>
      <point x="78" y="-10"/>
      <point x="189" y="-10" type="curve" smooth="yes"/>
      <point x="239" y="-10"/>
      <point x="294" y="9"/>
    </contour>
    <contour>
      <point x="279" y="636" type="curve" smooth="yes"/>
      <point x="261" y="636"/>
      <point x="245" y="620"/>
      <point x="245" y="602" type="curve" smooth="yes"/>
      <point x="245" y="583"/>
      <point x="261" y="569"/>
      <point x="279" y="569" type="curve" smooth="yes"/>
      <point x="297" y="569"/>
      <point x="312" y="583"/>
      <point x="312" y="602" type="curve" smooth="yes"/>
      <point x="312" y="620"/>
      <point x="297" y="636"/>
    </contour>
    <contour>
      <point x="121" y="636" type="curve" smooth="yes"/>
      <point x="102" y="636"/>
      <point x="88" y="620"/>
      <point x="88" y="602" type="curve" smooth="yes"/>
      <point x="88" y="583"/>
      <point x="102" y="569"/>
      <point x="121" y="569" type="curve" smooth="yes"/>
      <point x="140" y="569"/>
      <point x="154" y="583"/>
      <point x="154" y="602" type="curve" smooth="yes"/>
      <point x="154" y="620"/>
      <point x="140" y="636"/>
    </contour>
  </outline>
</glyph>
<glyph name="yacute" format="1">
  <advance width="428"/>
  <unicode hex="00FD"/>
  <outline>
    <contour>
      <point x="416" y="468" type="curve"/>
      <point x="396" y="510" type="line"/>
      <point x="348" y="494"/>
      <point x="327" y="453"/>
      <point x="327" y="408" type="curve" smooth="yes"/>
      <point x="327" y="173" type="line" smooth="yes"/>
      <point x="327" y="102"/>
      <point x="271" y="44"/>
      <point x="200" y="44" type="curve" smooth="yes"/>
      <point x="137" y="44"/>
      <point x="70" y="69"/>
      <point x="70" y="161" type="curve" smooth="yes"/>
      <point x="70" y="499" type="line"/>
      <point x="14" y="499" type="line"/>
      <point x="14" y="157" type="line" smooth="yes"/>
      <point x="14" y="44"/>
      <point x="78" y="-9"/>
      <point x="188" y="-9" type="curve" smooth="yes"/>
      <point x="238" y="-9"/>
      <point x="294" y="10"/>
      <point x="327" y="50" type="curve"/>
      <point x="327" y="-61" type="line" smooth="yes"/>
      <point x="327" y="-89"/>
      <point x="321" y="-112"/>
      <point x="308" y="-130" type="curve" smooth="yes"/>
      <point x="297" y="-145"/>
      <point x="282" y="-157"/>
      <point x="262" y="-165" type="curve"/>
      <point x="278" y="-208" type="line"/>
      <point x="310" y="-197"/>
      <point x="334" y="-184"/>
      <point x="352" y="-165" type="curve" smooth="yes"/>
      <point x="374" y="-140"/>
      <point x="383" y="-107"/>
      <point x="383" y="-62" type="curve" smooth="yes"/>
      <point x="383" y="407" type="line" smooth="yes"/>
      <point x="383" y="448"/>
      <point x="397" y="460"/>
    </contour>
    <contour>
      <point x="238" y="650" type="curve"/>
      <point x="199" y="543" type="line"/>
      <point x="234" y="543" type="line"/>
      <point x="288" y="621" type="line"/>
      <point x="300" y="637"/>
      <point x="299" y="660"/>
      <point x="282" y="670" type="curve" smooth="yes"/>
      <point x="264" y="680"/>
      <point x="243" y="669"/>
    </contour>
  </outline>
</glyph>
<glyph name="thorn" format="1">
  <advance width="409"/>
  <unicode hex="00FE"/>
  <outline>
    <contour>
      <point x="78" y="453" type="curve"/>
      <point x="78" y="698" type="line"/>
      <point x="22" y="698" type="line"/>
      <point x="22" y="0" type="line"/>
      <point x="78" y="0" type="line"/>
      <point x="78" y="185" type="line"/>
      <point x="105" y="142"/>
      <point x="165" y="116"/>
      <point x="213" y="116" type="curve" smooth="yes"/>
      <point x="324" y="116"/>
      <point x="399" y="190"/>
      <point x="399" y="310" type="curve" smooth="yes"/>
      <point x="399" y="422"/>
      <point x="327" y="507"/>
      <point x="217" y="507" type="curve" smooth="yes"/>
      <point x="159" y="507"/>
      <point x="116" y="490"/>
    </contour>
    <contour>
      <point x="212" y="457" type="curve" smooth="yes"/>
      <point x="285" y="457"/>
      <point x="343" y="416"/>
      <point x="343" y="316" type="curve" smooth="yes"/>
      <point x="343" y="217"/>
      <point x="290" y="169"/>
      <point x="211" y="169" type="curve" smooth="yes"/>
      <point x="133" y="169"/>
      <point x="79" y="220"/>
      <point x="79" y="323" type="curve" smooth="yes"/>
      <point x="84" y="415"/>
      <point x="142" y="457"/>
    </contour>
  </outline>
</glyph>
<glyph name="Abreve" format="1">
  <advance width="514"/>
  <unicode hex="0102"/>
  <outline>
    <contour>
      <point x="229" y="698" type="line"/>
      <point x="5" y="0" type="line"/>
      <point x="65" y="0" type="line"/>
      <point x="143" y="244" type="line"/>
      <point x="370" y="244" type="line"/>
      <point x="450" y="0" type="line"/>
      <point x="509" y="0" type="line"/>
      <point x="282" y="698" type="line"/>
    </contour>
    <contour>
      <point x="355" y="299" type="line"/>
      <point x="158" y="299" type="line"/>
      <point x="255" y="612" type="line"/>
    </contour>
    <contour>
      <point x="191" y="855" type="curve" smooth="yes"/>
      <point x="191" y="861" type="line"/>
      <point x="145" y="861" type="line"/>
      <point x="145" y="855" type="line" smooth="yes"/>
      <point x="145" y="792"/>
      <point x="196" y="741"/>
      <point x="258" y="741" type="curve" smooth="yes"/>
      <point x="321" y="741"/>
      <point x="372" y="792"/>
      <point x="372" y="855" type="curve" smooth="yes"/>
      <point x="372" y="861" type="line"/>
      <point x="327" y="861" type="line"/>
      <point x="327" y="855" type="line" smooth="yes"/>
      <point x="327" y="817"/>
      <point x="296" y="787"/>
      <point x="258" y="787" type="curve" smooth="yes"/>
      <point x="221" y="787"/>
      <point x="191" y="817"/>
    </contour>
  </outline>
</glyph>
<glyph name="abreve" format="1">
  <advance width="411"/>
  <unicode hex="0103"/>
  <outline>
    <contour>
      <point x="339" y="349" type="curve"/>
      <point x="293" y="375"/>
      <point x="229" y="402"/>
      <point x="164" y="402" type="curve" smooth="yes"/>
      <point x="84" y="402"/>
      <point x="11" y="363"/>
      <point x="11" y="251" type="curve" smooth="yes"/>
      <point x="11" y="223"/>
      <point x="11" y="196"/>
      <point x="11" y="168" type="curve" smooth="yes"/>
      <point x="11" y="21"/>
      <point x="109" y="-14"/>
      <point x="238" y="-10" type="curve" smooth="yes"/>
      <point x="287" y="-9"/>
      <point x="395" y="0"/>
      <point x="395" y="0" type="curve"/>
      <point x="395" y="96"/>
      <point x="395" y="191"/>
      <point x="395" y="287" type="curve" smooth="yes"/>
      <point x="395" y="375"/>
      <point x="387" y="444"/>
      <point x="324" y="480" type="curve" smooth="yes"/>
      <point x="283" y="504"/>
      <point x="233" y="507"/>
      <point x="187" y="507" type="curve"/>
      <point x="185" y="464" type="line"/>
      <point x="222" y="464"/>
      <point x="256" y="461"/>
      <point x="282" y="449" type="curve" smooth="yes"/>
      <point x="318" y="432"/>
      <point x="339" y="404"/>
    </contour>
    <contour>
      <point x="339" y="302" type="curve"/>
      <point x="339" y="217"/>
      <point x="339" y="132"/>
      <point x="339" y="46" type="curve"/>
      <point x="339" y="46"/>
      <point x="298" y="42"/>
      <point x="233" y="38" type="curve" smooth="yes"/>
      <point x="100" y="33"/>
      <point x="66" y="80"/>
      <point x="66" y="175" type="curve" smooth="yes"/>
      <point x="66" y="195"/>
      <point x="66" y="226"/>
      <point x="66" y="249" type="curve" smooth="yes"/>
      <point x="66" y="339"/>
      <point x="123" y="354"/>
      <point x="159" y="354" type="curve" smooth="yes"/>
      <point x="223" y="354"/>
      <point x="284" y="329"/>
    </contour>
    <contour>
      <point x="317" y="661" type="curve" smooth="yes"/>
      <point x="317" y="668" type="line"/>
      <point x="271" y="668" type="line"/>
      <point x="271" y="661" type="line" smooth="yes"/>
      <point x="271" y="624"/>
      <point x="241" y="593"/>
      <point x="204" y="593" type="curve" smooth="yes"/>
      <point x="166" y="593"/>
      <point x="135" y="624"/>
      <point x="135" y="661" type="curve" smooth="yes"/>
      <point x="135" y="668" type="line"/>
      <point x="90" y="668" type="line"/>
      <point x="90" y="661" type="line" smooth="yes"/>
      <point x="90" y="598"/>
      <point x="141" y="548"/>
      <point x="204" y="548" type="curve" smooth="yes"/>
      <point x="265" y="548"/>
      <point x="317" y="598"/>
    </contour>
  </outline>
</glyph>
<glyph name="Aogonek" format="1">
  <advance width="566"/>
  <unicode hex="0104"/>
  <outline>
    <contour>
      <point x="229" y="698" type="line"/>
      <point x="5" y="0" type="line"/>
      <point x="65" y="0" type="line"/>
      <point x="143" y="244" type="line"/>
      <point x="370" y="244" type="line"/>
      <point x="450" y="0" type="line"/>
      <point x="509" y="0" type="line"/>
      <point x="282" y="698" type="line"/>
    </contour>
    <contour>
      <point x="355" y="299" type="line"/>
      <point x="158" y="299" type="line"/>
      <point x="255" y="612" type="line"/>
    </contour>
    <contour>
      <point x="430" y="-127" type="curve" smooth="yes"/>
      <point x="502" y="-2" type="line"/>
      <point x="502" y="7" type="line"/>
      <point x="458" y="3" type="line"/>
      <point x="458" y="-1" type="line"/>
      <point x="394" y="-112" type="line" smooth="yes"/>
      <point x="353" y="-185"/>
      <point x="402" y="-255"/>
      <point x="491" y="-230" type="curve" smooth="yes"/>
      <point x="509" y="-224"/>
      <point x="593" y="-195"/>
      <point x="595" y="-194" type="curve"/>
      <point x="576" y="-154" type="line"/>
      <point x="576" y="-154"/>
      <point x="535" y="-168"/>
      <point x="480" y="-188" type="curve" smooth="yes"/>
      <point x="431" y="-205"/>
      <point x="405" y="-173"/>
    </contour>
  </outline>
</glyph>
<glyph name="aogonek" format="1">
  <advance width="459"/>
  <unicode hex="0105"/>
  <outline>
    <contour>
      <point x="337" y="349" type="curve"/>
      <point x="290" y="375"/>
      <point x="227" y="402"/>
      <point x="162" y="402" type="curve" smooth="yes"/>
      <point x="81" y="402"/>
      <point x="9" y="363"/>
      <point x="9" y="251" type="curve" smooth="yes"/>
      <point x="9" y="223"/>
      <point x="9" y="196"/>
      <point x="9" y="168" type="curve" smooth="yes"/>
      <point x="9" y="21"/>
      <point x="107" y="-14"/>
      <point x="235" y="-10" type="curve" smooth="yes"/>
      <point x="285" y="-9"/>
      <point x="393" y="0"/>
      <point x="393" y="0" type="curve"/>
      <point x="393" y="96"/>
      <point x="393" y="191"/>
      <point x="393" y="287" type="curve" smooth="yes"/>
      <point x="393" y="375"/>
      <point x="385" y="444"/>
      <point x="322" y="480" type="curve" smooth="yes"/>
      <point x="280" y="504"/>
      <point x="231" y="507"/>
      <point x="185" y="507" type="curve"/>
      <point x="183" y="464" type="line"/>
      <point x="220" y="464"/>
      <point x="254" y="461"/>
      <point x="279" y="449" type="curve" smooth="yes"/>
      <point x="316" y="432"/>
      <point x="337" y="404"/>
    </contour>
    <contour>
      <point x="337" y="302" type="curve"/>
      <point x="337" y="217"/>
      <point x="337" y="132"/>
      <point x="337" y="46" type="curve"/>
      <point x="337" y="46"/>
      <point x="296" y="42"/>
      <point x="231" y="38" type="curve" smooth="yes"/>
      <point x="98" y="33"/>
      <point x="64" y="80"/>
      <point x="64" y="175" type="curve" smooth="yes"/>
      <point x="64" y="195"/>
      <point x="64" y="226"/>
      <point x="64" y="249" type="curve" smooth="yes"/>
      <point x="64" y="339"/>
      <point x="121" y="354"/>
      <point x="157" y="354" type="curve" smooth="yes"/>
      <point x="221" y="354"/>
      <point x="282" y="329"/>
    </contour>
    <contour>
      <point x="312" y="-132" type="curve" smooth="yes"/>
      <point x="337" y="-90"/>
      <point x="360" y="-50"/>
      <point x="384" y="-8" type="curve"/>
      <point x="384" y="1" type="line"/>
      <point x="370" y="0"/>
      <point x="354" y="-1"/>
      <point x="340" y="-2" type="curve"/>
      <point x="340" y="-3"/>
      <point x="340" y="-6"/>
      <point x="340" y="-7" type="curve"/>
      <point x="276" y="-118" type="line" smooth="yes"/>
      <point x="235" y="-189"/>
      <point x="284" y="-260"/>
      <point x="372" y="-234" type="curve" smooth="yes"/>
      <point x="391" y="-230"/>
      <point x="475" y="-200"/>
      <point x="476" y="-199" type="curve"/>
      <point x="459" y="-160" type="line"/>
      <point x="459" y="-160"/>
      <point x="417" y="-174"/>
      <point x="362" y="-193" type="curve" smooth="yes"/>
      <point x="312" y="-210"/>
      <point x="286" y="-178"/>
    </contour>
  </outline>
</glyph>
<glyph name="cacute" format="1">
  <advance width="345"/>
  <unicode hex="0107"/>
  <outline>
    <contour>
      <point x="315" y="430" type="curve"/>
      <point x="330" y="476" type="line"/>
      <point x="273" y="503"/>
      <point x="206" y="516"/>
      <point x="148" y="504" type="curve" smooth="yes"/>
      <point x="103" y="494"/>
      <point x="65" y="470"/>
      <point x="40" y="426" type="curve" smooth="yes"/>
      <point x="20" y="394"/>
      <point x="13" y="362"/>
      <point x="11" y="318" type="curve"/>
      <point x="11" y="173" type="line" smooth="yes"/>
      <point x="11" y="75"/>
      <point x="55" y="23"/>
      <point x="123" y="1" type="curve" smooth="yes"/>
      <point x="183" y="-18"/>
      <point x="265" y="-13"/>
      <point x="332" y="5" type="curve"/>
      <point x="321" y="55" type="line"/>
      <point x="321" y="55"/>
      <point x="199" y="26"/>
      <point x="135" y="52" type="curve" smooth="yes"/>
      <point x="82" y="71"/>
      <point x="66" y="119"/>
      <point x="66" y="185" type="curve" smooth="yes"/>
      <point x="66" y="305" type="line" smooth="yes"/>
      <point x="66" y="340"/>
      <point x="73" y="371"/>
      <point x="85" y="394" type="curve" smooth="yes"/>
      <point x="101" y="426"/>
      <point x="127" y="446"/>
      <point x="157" y="453" type="curve" smooth="yes"/>
      <point x="200" y="464"/>
      <point x="267" y="452"/>
    </contour>
    <contour>
      <point x="211" y="654" type="curve"/>
      <point x="173" y="548" type="line"/>
      <point x="209" y="548" type="line"/>
      <point x="262" y="627" type="line"/>
      <point x="274" y="641"/>
      <point x="273" y="664"/>
      <point x="255" y="674" type="curve" smooth="yes"/>
      <point x="238" y="684"/>
      <point x="217" y="673"/>
    </contour>
  </outline>
</glyph>
